<mxfile host="app.diagrams.net" modified="2022-05-06T06:38:45.557Z" agent="5.0 (Windows NT 10.0; Win64; x64) AppleWebKit/537.36 (KHTML, like Gecko) Chrome/101.0.4951.54 Safari/537.36" etag="addtV2AZmB_i6ImlO72g" version="17.5.0" type="github">
  <diagram id="7-PHXlbq43CkYi06ybIF" name="Page-1">
    <mxGraphModel dx="1119" dy="642" grid="1" gridSize="10" guides="1" tooltips="1" connect="1" arrows="1" fold="1" page="1" pageScale="1" pageWidth="850" pageHeight="1100" math="0" shadow="0">
      <root>
        <mxCell id="0" />
        <mxCell id="1" parent="0" />
        <mxCell id="744nSJvXdaSqL4zcJOoP-26" value="" style="shape=image;verticalLabelPosition=bottom;labelBackgroundColor=default;verticalAlign=top;aspect=fixed;imageAspect=0;image=data:image/png,iVBORw0KGgoAAAANSUhEUgAAAe4AAAGdCAYAAADUoZA5AAAAAXNSR0IArs4c6QAAAARnQU1BAACxjwv8YQUAAAAJcEhZcwAAFxEAABcRAcom8z8AAH2KSURBVHhe7Z0HmFXV2bY/kT+9N9M11cTkSzUkX3rUxBIrRZHODAy9t6GD9F6k9967AiJNQVQQRMWCgoANawRRNDGJ7//em7PxMHOGOTNzus99XQ/D7LNnn7PP3ns9613rXWv9jxBCCCGEEEIIIYQQQgghhBBCCCGEEEIIIYQQQgghhBBCCCGEEEIIIYQQQgghhBBCCCGEEEIIIYQQQgghxFk4x/VjV2vXQNcI13DXMFdH1+WuL7mK8inXH1zNXfwdfzPI1dlVw/V914dcRTnPdZWrk+tG1xdcQgghhIiTc10NXM+4/uF6yLU38vM+13xXLdenXVDJ9XlXVddE1ybXgy72vz/y+zQXx/yOi/2j+bNrleufrs2R32MZvBBCCCFigHETbWPa61xEw+gG1wDXHtdy1+9cQPTd0HW7a5trqKu262rXlS5e6+nqEfn9Y65oClzPucz1lKu962suIYQQIiPAGP/XhblhUt1cNC9jdD+J6BLX31xXuDC2rq48F6/9P1cIphka5FddHBv4+W3XXyL6pite+NtWrsOuW9gQxc9cd7iIphu7PusiQsa0H3YNcf3CFc3HXb908TmruD7iCvmca4yLSsIjrntdC10Xu4QQQoi082EXptTHtdFF9Pq4a6trrCvf1ca11EXz8RTXBteTrntcRLy/doUGjSGudi1x/dEVmiI/r3NNck12UQmIl2jj5v2iOd8110WTeTsXfeFtXQdcc1w/cBVtCge2UeGo7KIPHfgufu9a48K0+U5mufhO6BOPdRwhhBAipfzGNc613oWptnDRlEw03chF3zFmedCFGZIYxvaWrgkumqKJUMMIGhPf4aJv+K+uj7qAnzVdi12Y+rWueIk27v5siILm8S0ujJtKBtH2rS6auGk5CE05Hmgh4H3ucmHYmDjN6Zx3L9eXXUIIIUTawEyJUh9zzXOFfcQhGBnGjlk+69ruIlIOo+vfujDNnS6a0IleibjphybqxkSjI26SxWa4ZrpoSo8X3o/m+SMuon0qFiSWNXHRKkDCGZWP/3ORYc65YORUPsoCTeokut3t4tgkuNF9wPlxTM4nPHchhBAipRCJfsuF8dEs3NRVNHOafS500a9M8/l4F33IIfyfCByjIwInqxvzu82VaOOu7yKr/JiLz0tWOZniZIiPdtEs/xkXUT590kTNdVzxwrnSlE+zOE3lYZ82LQjTXbwPXQb0jwshhBAph/7dX7kwJUzu765YfNdFMzHN32RiRzc9Y/T0J2N0vV1fd0Ub959c0cZNFjjvVx7jJvGMiJum+Q4ukugwUiJionwyw+mDJokO4ybiJiqPF5LqurhoFme8dwjHJdrf7aLSwRhvIYQQIuVgumE0SX80w6tigXFj2DST098bnaBFMhfDtEhaI5GLfm6MGyNf6SIKZh+gooBxY9rlMe6wj5uJVEqCz0aWOwl0GDATrcQL3QQY/msu+uGJ3Gn+JwpnopdXXHwHfGd0CQghhBApBZOjGZwEM6LJkpqVv+fq62JoFZFomGwGn3DRjE42OlEwfcIMz2JMNWZOf3i4PxE3fdMrXGR70xcdL/EaN9BcTgWDZvWpLrLOSyJsPaBSQcIdTe8nXfTnE9mTNY/2u/7t2uei71tJakIIIdICU4JichgT/dc/dEWDCRJBk5yGETJemnHPIT9y0Sz+gKuaiyieYxBRk7TWzPVJFzCBCf3pvBcR7aWueMG46UPHuIl+S4Px2Qxno7+a8yt6Xhj1RS4+A699xUU/OYZNdj1Z6aMiYvIWvps7XRyPGdc0plsIIUTaIPLFSDEs+qlpHiZbnElSrnHRVMx2ktNICuvuusxFUzJN6PQlL3BhhIAJkqnO8Ra56rkwOn6SEf6Si/5v/j5eMG6OSXM15l8aNNkTodMSQAWCz0lXAOdFljxN9vTN05SOydMygDFTqajroh+bSgsiGY1KB4l1TOrCRC+0HGD+QgghRMrBnOhvJsokSQ0jJoJmSBcRJ0lhLLaBEWOCRNP0YZPVzTAs+pMxv3DaUKJuZmEjSidCfdRFpM4wK4wc82ZoVVmbyklEO+riM5UGfdAMZcOEZ7vow2dI1y4XTeB8Hsas8zoVFPrpmSGN5n1aEWJBNwAZ9M+7ODe+NyGEECIt0A+NgRFN0+eNOdNEzDhoIm6Mm75pmoyZ5IQJWdinn4ssbvq6o8E4SeJiWlSMnQlaMF6iVprUmYWMGc3ihf54JkMhci7LxC1MX0oFodDFYiNkhWPYfH769Om/JxOefTBvPlvYtB8LzpUkPM7jbPsJIYQQSQdzJFrGxBHJZGFfMIZOpMxMZJg0r7EPGePRw8OiYTt/z76IYxM58z78LCv8Hccr698WPa/wc4dTnSL+j9j3bISfIfxbIYQQIuNgOBgJXvQXl2V4lRBC/M83XCSRkORCcgjJLbEWzy8KsznRbHeTi/46mrlYpUgIUTr0+dKnS382Q7+InhMBs66RKMYkKTRTsxoZWeiI/yMyyW92sWa2ECILoQ+O/jIKEIaFkCDzB9fZoGmLfehjI2uU5BQyQykULnCpuUuIs0M/MGO06eMmszucUKWiYMZkdpMQxwImzJfOOGlEQhu/P+Eqawa6ECKDYPwoBccg13YXWaJnS1ShH4rJF2jeY0IIogUmT2ACB8ZiUrNXZqgQZ4ex3mSJMwSMJTPL0z8dCyJuFgUhAQ4DJ7pmZTLE/xFDulidTBG3EFnKF11EySyMwNzJDOkg47UkMGWMnUxYMmS/7wIKoSUuhqQQTQghhBAiCYQZqRgyyTKlGTeTMBBtMz6VWjtDQ+ALLoayMJcyiyyURphJSmYqzYT8DDNLJSnXVTTCjrVPeVSWyD0681uSpMSqPKM1ygzGHU/EzTzMI130b7PYQbgcH01/bCfqpvkPIy4JTorxphg/Y0hJ0hnw//7f/xv2qU99avgXv/jF4eedd97wL3zhC5IkSZJUZoUe8uEPf5i1AIa7vwT/D3XOOecEwnPYF98peoyyimN85StfGf6Zz3yG92MaYVYHTKp5M4MRUzCWZtyMP2VxfaZIpH88TKohy5yJI1jogBmfik4eEQ2mznSNHV3MwITZ3/W5z33uX3/4wx+sQYMG1rBhQ6tfv74kSZIklVl4SN26de0vf/mLXXjhhfbtb3/bvvWtb50Wv//iF7+wG264IdgX34l1nLKIY+Tl5dl1111nX/rSl951X2NSorMFsRWmPMbNcLDyGDfN5OzP8LGfun5RqVKlZhdddNFrw4cPtwMHDkiSJElShbR//35bsmSJtW/f3qpVq2ZXXnmlXXXVVXb11VdbvXr1bNiwYbZjx46Yf1teHTx40NatW2e/+tWvjru3MckSTeZJI17jpqmcuYXP1lTO6kBlqmVUrlz54t/85jf7V6xYYUIIIUQieOONN2zVqlXWqlUrq1Gjht18881Wu3ZtGzp0qO3bty+yV2J59tln7fLLL3/arY0piZNq3CxmwNSLa12sZFQSJKcxxzJRN/MSY/gQJqexoECZl+dz4/7TxRdf/NT8+fMjpy6EEEJUnIceesi6detmVatWDSJvmtDnzp0bmHoyePzxx+3SSy9lXhSGWqfEuFm96GzGTRM3yxIyHIzO93BRA5q8w+FgTOdYJs4999y/YNx8mUIIIUSiOHr0qE2dOjXoy65Zs6Z16dLF7r77bnvvvfcieySWRx991C655JKkGjcmy+o9JIox2xJL/NFPzUpDv3QxNSM/f+ZiKlQywsMhYQz9YuIWJnRgTDcTsDAZS5knYJFxCyGESAYnT560nTt3Wt++fa1FixZBtP38889HXk08qTBu+qOZ8nS764CLdXFZ+J6l+uq76O/mJ3Mb/9AFjP9kytPRLhZJYJ1hpjxl1jRmVSvzlKcybiGEEMni2LFjtnr1aps8ebI9/PDDSYu2IRXGzaxpNI0zprp25CcLjjD+jNnQmAWNn2ST048dQpM5fdksLsKCBsymxuxr5ULGLYQQIpm89NJLdujQoSACTyapMO6MQMYthBAiF5BxCyGEEFmEjFsIIYTIImTcQgghRBYh4xZCCCGyCBm3EEIIkUXIuIUQQogsQsYthBBCZBEybiGEECKLkHELIYQQWYSMWwghhMgiZNxCCCFEFiHjFkIIIbIIGbcQQgiRRci4hRBCiCxCxi2EEEJkETJuIYQQIouQcQshhBBZhIxbCCGEyCJk3EIIIUQWkUrjPsf1Wdd3XBe6vun6pKuSqyR47fOub7m+6/q26wuus/1NTGTcQgghcoFUGTem/Q1Xvmuha71rnKuG68uuksDcm7tmu/i7OZHfv+4qEzJuIYQQuUCqjPtzrsYuDHiRa4FrmWum60pXZVdRMPp6rimuxZGf/P1oV3XXV11xI+MWQgiRC6TCuIm2f+pa4sJ4f+6iubuua42ru+trLvaL5gYXxt7f9TvXea6LXG1d413XuOKmcuXKf3DjflLGLYQQIptJhXF/zPV31+2uIa6wf/pnLqLnEa5LXewXTWvXJldTV/QHu9l1t6t98FucuHFXcfbPmzcvcupCCCFE9pEK46YPmybvWa5WrtC4SThr4hrlauQiCo+GfTe7Wrg+woYIzVwHXQNcJSWpnesiQv+l62+uqypVqlT4ox/96IWZM2dGTl0IIYTIPlJh3GSRY9ATXXmu0GxpHq/tGuOi+Rujjaaqi2S0oa7fuj7lIqucpLYXXUTvH3bF4kOuKq5uLvrHaZK/5/zzz39r8uTJkVMXQgghso9UGDdDv8gEx3CJvImG4Suum1xjXR1dRbPLL3DVd01y0Tc+0IURr3XxgXu5oiPxaEh24+9JfCMpjqh99IUXXvjy9OnTI6cuhBBCZB+pMG6axAtck10MB4uOuOu4iLjbuIpG3MCwL6J1Iu+5rt4uEtb2ubq44v7ASk4TQgiRC6TCuL/kokkc4yWhLDRuJlRp6RrpIrJmcpaikGnO35NN/mMXTeUkre10EaUXzUQvETfu31apUuVJJacJIYTIZlJh3DRnkyDGpCskooVjtn/lYmw2WeW/YUMRYo3tJoENw17hIlqPG43jFkIIkQukwriBiJl+aiZeudz1ExeR820u3pjJVL7oorn84y6i8k+4aGb/oetHLsZ/E6GHfeIMJ4sbGbcQQohcIFXGTUb4ja6prjtcjM9mXPetLrK/6e9mNjSazDF1onTmKGcb2egbXJj8KhdJaexTdNz3WZFxCyGEyAVSZdxARM0QL5LRSDDDgC9zYcCY9BWu611koTPMiwVILnGx33QXWemFrj+4yvxBZdxCCCFygVQaN/AGGPKnXTSJh/3YJJlh1oht/I4Yj02TOfsTtWPysfq+S0XGLYQQIhdItXGnDRm3EEKIXEDGLYQQQmQRMm5RjP/+97/29ttv21tvvRXo5MmTp/XOO+8Eit4WKtz/X//6V+RIQgghEo2MWxTjhRdesNmzZ9uAAQNs5MiRNmrUqEBjxowx5nqfNGmSjR49+vT2UEOGDLHhw4fbtm3b7L333oscTQghRCKRcYtiHDlyJDDmtm3bWteuXa179+6BOnXqZHXq1LG6detaly5dTm+Pfr2wsNDWr18fRO1CCCESj4xbFIOm8Oeee84OHDhgTz/99Gnt2rXLOnbsGJjzgw8+eMZr6ODBg8HPf/zjH5EjCSGESDQybhE39F/TfD506FD1YwshRJqQcYu4efnll+2WW26xgQMH2rFjxyJbhRBCpBIZt4ibl1566bRxqzlcCCHSg4xbxI2MWwgh0o+MW8SNjFsIIdKPjFvEjYxbCCHSj4xbxI2MWwgh0o+MW8SNjFsIIdKPjFvEjYxbCCHSj4xbxI2MWwgh0o+MW8SNjFsIIdKPjFvEjYxbCCHSj4xbxI2MWwgh0o+MW8SNjFsIIdJPKo37E64/ujq6+roauS52fdxVEp92/dXV2tXJVei60XWBq5IrbmTcFUfGLYQQ6SdVxv1R16Wuka6trp2u2139Xb9wneMqysdcf3KNct3pWufa5Jrvaur6tituZNwVR8YthBDpJ1XGjcmOdS105buucxF1r3Fhwp9yFaWKq5eLv2vrusJ1jWuEa5Wrlitu3Lj/LOOuGDJuIYRIP6kwbg76Z9d613gXkTT83jXXNdT1c9eHXNFUdxFdD3ZdyIYIzVwPuWg2j5vKlSv/qkqVKvvnzZsXOXVRVmTcQgiRflJh3J9z3eQi2u7iCvumMWP6rWk+v9n1WVc0NK3TTD7GVdX1Ndf3Xd1cS11ni7hpev+wiz7yL7rO84i76s9//vOn58yZEzl1UVZk3EIIkX5SYdznu0hEm+Jq7Ar7s7/uqusa7Wrl+pIrGgyXJvUZLvq4V7o2usLm9m+6SoIT+YmriQvzn+ha9e1vf/v4lClTIqcuyoqMWwgh0k8qjJsomebtca56rnNd8BVXTRd92B1cX3ZFQ8T8W9dk13YXyWn8XOEqcFEhKAlO5GeuFi6a56e71l5wwQVvyLjLj4xbCCHSTyqM+7suEtAmuBq4wqbyr7po7qYpnDc/zxUNETOR+C0uDJ6mdTLQ+7iIvqkExMpGB7aTyf4FF5H9NypVqnTjz372s0OzZ8+OnLooKzJuIcQHmf/85z/2zjvv2Ntvvx1T//znP+1f//pXzH3Yxt8nglQYN33TDV00eRN5h8ZNxJznoimb7TSNR1PbNc9Fczd91SH0h9/vIiv9I2yIByWnVRwZtxDigwyGOWnSJBs2bJiNHTv2DN16661Gi+6MGTNswoQJZ7zG/pMnT7bHH388cqSKkQrj/qTrehdDuIiewyj5x64BLpLTrnLRNB5Ne9fdLprFw+Z1qOZiHDh/G2aol4qGg1UcGbcQoqKcPHkyKEveeuutyJbsYdeuXda7d29r06aNde3a9QwVFhZaXl6e3Xzzzda6deszXmP/vn372p49eyJHqhipMG4ibMZkM2abqDtMKrvWRX81kfN3XNHmDDSr3+bC7H/o4jh8QJrPd7sYDlb0b0pEE7BUHBm3EKIi0FS8e/duoxy+//777d133428kh288cYb9vTTT9v+/fvtwIEDZ+jJJ5+0IUOGWNOmTW3t2rVnvMb+/N2JEyciR6oYqTBuIPEMoyUjnGS0Ia5ZrsUuonES1f7gYnpTTJwx3T9y8TeM9SZBjclYMPHZkd8vc8WNjLviyLiFSA3Hjx+3vXv3BgX+v//978jW7AbTPnz4cNBk3KpVKxs3bpw99dRTOXN+wHDjzp07B2adTFJl3JVdF7kYt32H6z7XAhfN4Jg6xk2iGsPGfukisQyYmKWfi8ibrHL+luFjf3NF93uXioy74si4hUg+RKEPPPCAjRgxwqZPn27PPfdcwpKa0gkJWrfffnvQjFyzZk1r0aKFLVu2LIhicwWuV8eOHe2RRx6JbEkOqTJu4ODfcjGL2uUums/JLKcJnCQzFg4hA50JW8ImcLaTTU40/hfXJa7/ddFvXiZk3BVHxi1E8iEqJcGJJldMYP369fb6669HXs1eKD/GjBlj1atXt+uvv96qVasWJG09++yzkT2ym//+9782bdq04Jo9/PDDka3JIZXGnVZk3BVHxi1E8tm6dat16NDBbrzxxiDRaejQoUlvek029O1u377dunTpYtdee61VrVo1+Nm+fXvbvHmzHTt2LLJn9iLjTgIy7ooj4xYiebz33nv22muv2axZs6x27dp2ww032HXXXRc0LWPm2ZbIFc0TTzwRRNv5+flBxE2lhJ8NGzYMou6HHnoosmf2IuNOAjLuiiPjFiJ5EJXec889wTN20003BU3JmDdDjBg7TNZytiZybdu2zVq2bBmcE/3boTDvgoIC27BhQ2TP7EXGnQRk3BVHxi1E8iAJjUzrcCww5o2IvsnCXrlyZZDglY3ccccdwXlcffXVVqtWreD8+HnNNddYjRo1bPny5ZE9sxcZdxKQcVccGbcQyYN+7F69egX9vxh2GJWGfd1kLGfjpCWwadOmoFmcpn/OJRRJahj6mjVrIntmLzLuJCDjrjgybiGSxzPPPGOjR4+2+vXrB4YdRtxEps2aNQuGTmVrxM3wtm7dugXnEp5XWCHB6Ehcy3Zk3ElAxl1xZNxCJA/GM991113BlJoYG/2/RN9EqjShP/bYY1nbx/3888/bokWLgn5u+u3DIWEMeWPSkiNHjkT2zF5k3ElAxl1xZNxCJA8K/pdffjloEicyDbPKMTuamll5iszzbIQKB5nl/fr1CwybCgnn1rNnz8DksjljPkTGnQRk3BVHxi1EcsGYMWkWpSBpi8ib542M8myHFgWWVa5bt26QXU7fNtOfMgQuF5BxJwEZd8WRcQuRfA4ePBgsD8kwqXbt2tltt92WE+bGOtUsLEIZ0qBBgyDapm87W/vtiyLjTgIy7ooj4xYi+dAkft9999mgQYOC8dtMgZoLc5XTmsAMaatWrQqWuFy6dGlQIcnW5v+iyLiTgIy74si4hUgNPF9EpyxWkQv9v9EwN/mOHTuCCkkuIeNOAjLuiiPjFiJ1EInmSjRalFw8Lxl3EpBxVxwZtxBCxEbGnQRk3BVHxp2dMMToqaeeyokVmITIVGTcSUDGXXFk3NnHm2++aevWrQsm8KBfMdf6S4XIFGTcSUDGXXFk3NkF2ckslzh48OBgysyJEycG82FTwAghEouMOwnIuCuOjDu74Bpxvzdu3DiYyIN1nW+//fbA0IUQiSWXjbuS6yOuj7o+FPm9JHiNfT7s4m8Q/0dsP9cVNzLuiiPjzi72798fXC+mlwxXnKLJ/MUXX4zsIYRIFLlq3J91/d012DXR1cX1J9enXbH4vqu+q7eLvxno6ucaFfn9j664kXFXHBl39kBC2urVq4Mom7mhmWIS82aFpq1btypRTYgEk4vG/QnXda4Jrjtdd7tud2HCv3XFirx/5urmmuNa7lrm2uB6JqJmrriRcVccGXf2wOQdzE7FEpEsn0i0jfLz823EiBHBgg8i/TB/N9di7969wWQroSiYGQlAq8m+fftOb8cQ2JfJS5hCVGQOuWjcF7qmuea7MPBfuzq4bnO1dX3OVZRPub7t+onr564qriauJS7+roYrbmTcFUfGnT3Ql41Js3wiazuz7jE/ibyJwplSU6QfCmBWzGrevHlQ4Hfq1Om0unTpYp07dz5jG3OXt2jRwqZOnapnMMPINeOmT/oy13rXGBf904B5T3cNi/yfPuzSuNE13lXowtDjRsZdcWTc2cPGjRutVatWgVlHCwMvLCy03bt3R/YU6YTIed68eTZ27NhgpSwWF0GMBGBpTxYamTBhwuntjAxgX4b4nThxInIUkQnkmnF/0VXLRbRNlB02i3/P1cY10lXXFSvqjoY+cprWV7uquj7jipvKlSv/rkqVKk/KuMuPjDt7YBlIjKBJkyZB1M0SkYjlIhcsWGDPPfdcZE+RTpj6kwVEiormcyLuUaNG2VtvvVXsdUxCZBa5ZtzfcjV2TXY1coXG/XVXHRdReGvXea6zQXP7CtdaF/3fZ8tIL0Zo3NRuRfmQcWcPLJV47733Bk2t11133enMcq7dY489piFhGQ4LcXTv3t3Gjx8f2SIynVwzbgy3uWucq54rHMb1FVdN11gXkfiXXSXxSddVrpUuKgBfc50N3uObrktdRPP555xzzpALL7zwpenTp0dOvWJQ8O3atStYmm7FihXBUnXRYg1dmis3bNgQZPeG29mXv6GP8eTJk5GjZQcy7uzihRdesDFjxpzu2yZRbc6cOWpizQJITOvatWvQLP7OO+9EtopMJteM+zsuksoYAtbQFUbKmC9N6ETcvPnZIu4fubq66BPnWKU1k9OPTjJbdxfJbGSw7/jmN7/5Fs2HiYDCb8aMGUEfFMkibdu2PUMtW7a0Ro0aBa/TPBm9nQkxWGc328xPxp1dMN3pHXfcESQ11atXL8gyJwrXtKeZj4w7+8g14yayZjz2TFdLV2jcYRM6/dYFri+4SuJK10LXcBeGXNoHJeL+qouhZte7alSqVKn3RRdddBSzTQQMxeDirF+/Poiqia6jRV96Xl5ecBHZJ9x+5513Br8zpIPmzGxCxp1d0BdKXzaFCSawbNkye+2113J2qchcQsadfeSacX/cdY2LIVyDXOe44KeuES6S02jSruyKBftj7Pe6yCYnSa3MVK5c+TdVqlTZn6o+bvqomOyCLNBcQcadfVCYPP7447ZlyxY7cuRIZKvIdGTc2UeuGTfG+wsXk6jMdl3kYow2/dtkiPdwne8KpzTFwENz5ydN6Le4MG4i9/C1MuHG/ftUZpUfOnQoePAYysEFzQVk3NkJ+Rh07fz73/+ObBGZjow7+8g14waGhNFMPs/FTGgzXPQ98//LXTSn/81FszbGzlzm8DHXFS76tmkqJzIvF6kex82Dx3hZ5obOlQxeGXd2wlhhEik1R3n2IOPOPnLRuOlzpk+baUqJvDe7prhITvu8i6iamdCIqInOMWxgqlSyyTu6yEhnJrVyIeOuODLu7IKChGtG9xCJacymxhSbIvORcWcfuWjcgHkTeZMhzjjs77ror6bpmzf+koshYQz9CoeM8ZOJWYjI2Tecda3MyLgrjow7u2DiDhYUIdeiYcOGNmjQoGDGNDWZZz4y7uwjV407rci4K46MO7vgepFjUbt27WAcN3OXL1q0KDD0XICRHUwmwwiNXBubLuPOPmTcSUDGXXFk3NkDpkZ0TbTNsp7MmoZ5Dx061A4cOJD1UTdD3UgAZT6EkSNH2kMPPZRT49Nl3NnJzJkzg3kTkr36now7Sci4RTrB1GbPnm3NmjULDJv5ylH79u2D2fuyPVGN8ehr1qwJVsviHDnXZ555JvJq9iPjzk6YJ4SIm5agZCLjThIybpFOGLeNSbPCFOtwh6uD0Wzes2fPoHk5m2Fs+oABA4JzYr1x5mS/5557Iq9mPzLu9MEERVR8N23adHq6an6WJvajzCefhPk7Yu0TrfC4mzdvLvMcCzLuJCHjFumEufKZuS/Wetws98nUp9kIhSrPE7MVsoY1C6jccMMNwZSurHp27NixnJgZTsadPuiGoVWqadOmwTPEz3jFdNZMdc2qfLFeLypMnvuY1qOy3Lcy7iQh4xbphOiT/u26desGEXeoBg0aBJHqvn37IntmF/RjE23zXHEumDaVESom3Jf3339/MEd7tiPjTh/cY1OnTg1ap7gGLNQzYsQIGz58eKm69dZbg4RQlmON9XoojsdxWbq1Tp06NmvWrCC5LV5k3ElCxi3SyfPPP29LliwJFrXB3Ii8MTialFl4hD7ibARTZnU9FvahYA0rJBg3kQ7JakePHo3snb3IuNMHxj1lypQgaibZ7O677w7WmKCVJ1HieByXCkL4PkT68SLjThIybpFOKASIqnv16hUYN1nlNWrUCCIB5tEvS+0+kzh+/HhgzmHfNj8R5k3lpF+/fsFMcdmOjDt9RBs3w7vog2ZhqHXr1iVMHI/jslqljPssyLgrjow7u3j11VeN9edpUsa06VOj7y6bjYCIm7HoZJKHiXdhxE1/5Pjx44N1yLMdGXf6CJvKMVQMnOiYWQfJG0mUOB7HJYmN96GpXMYdAxl3xZFxZxcsG7tz587gmpE0M3r06GCYSlkKiEyDQpWWBAyNCkk4Ph3j7t+/v+3YsUN93KJCyLgzCBl3xZFxZxdkqZJlzbATkmGY/jTb1oAvCueEkdFPT9QdZpWThDd//nx7/fXXs7YbIBoZd/qQcWcQMu6KI+POTrhuTz75ZGDiuQItB9yLNJPTDcCkF9u2bYu8mv3IuNOHjDuDkHFXHBl3dkKUjWkzDWquQP/9ypUrrU2bNkHBR3JPLiSlhci404eMO4OQcVccGXf2QSHEWtwkpTH+OVegkDt48GCQjDZs2DDbs2dPTlVMZNzpQ8adQci4K04uGDcLbCxevDiI0OgTDcWYZ6YfXL58+RnbQ7E/44eZCjFbYCERzpd7kDm9ufcZ45wLM4sBzxWrMD3wwAM5t864jDt9yLgzCBl3xckF42aqT2Yr4mHBzEIxoUf9+vWD7Ovo7aHYv3v37oFJZAuMeaY5uXXr1sFkJdyPzGGeS5Ep5EpFJBoZd/qQcWcQMu6KkwvGzTkwRIpEJkw8FKtLMW8w5xe9PRT70+T8yiuvRI6U+bBwAct4krzFsCnMmwklyLwWmY2MO33IuDMIGXfFyeU+bh4E1tFloYpcgKbjcIUwhkxh3Khv375Bf/DJkycje4pMRMadPmTcGYSMu+LksnGzzCVDilJ1fySbRx55JJjelPm7ibiZHhSxEhFRdzb11X8QkXGnDxl3BiHjrji5bNy7d++2Dh06BE3muQBzITPFafR83uH83pwn3QUic5Fxpw8Z95l8yPUD1zWuG12XuC5wsf1sfNT1Q9ffXdVcV7t+7/qyK25k3BVHxp09sJBBQUFBEG1j2OF63PxOsh3LX4rMRcadPmTc78OBf+rq4drkesC1zNXG9T1XSWDqv3L1cq1zbXOtdY12/c4VNzLuiiPjzh5o+md8c35+/hlN5UThFBaMgRaZi4w7fci43+erLsx3gWugq5trkgvzruX6iCsW33Hd4prn6uPq6OKD5rkucsWNjLviyLizB2ZKo2Agur7++uuDhThITmOZT6LtXFiII5eRcacPGfcpznX9xnW7a6orbOK+woVx93d938V+0XzGVdWFaWP6H3OF8EFLa2I/g8qVK/9flSpV9s+bNy9y6slFxp1d5JpxAwlogwcPDtapxrRpLqcgeu211yJ7iExFxp0+ZNyn+LQLA17u6u2q5IIfufq6Rrquc33KFU0VV0/XUBf92ue4yo0i7ooj484uiLqXLVsWTC7D2tUMd9u4cWPOTcCSi8i404eM+xRfd9G0Pd3V1BUa9zddDVz0Vzd3fdEVDWY+xTXAxd/RH97VRWIbf3s2I6/s+q7rBhcn1sU16Xvf+96rDIVJBTLu7CIXjZsCaP/+/cE63MyexrStzz33XE7ONJZryLjTh4z7FCSfYbzjXfVdYZM4/d43u8a42rvOc0VDBvlSF/3iE12LXLe5ZrqaueJJait08ferXNvOP//8NydPnhw59eQi484uctG4gUL/7rvvtjlz5gQJa7mwVvUHARl3+pBxn4L+a4x2nCvauL/iquka6+rgKjq8C+Ne77rLRWLaZa4/u+gTX+Nq7CKyjgVR/eddNMeTff6nSpUqtfnxj3/8HFFHKmBxh9C4c6VpUsadnZw4cSK4dizvKbIDGXf6kHGfgmbtRi4S0wpcYVP5N1z1XDSVt3R9yRUN/eIrXEtc17MhAtsx88Eu/iauvu/KlSv/KpXJac8//7x169bNUhXhpwIZtxCpQcadPmTcp/isq4YLA2YYWGjcTMZCnzXJadVdn3BF8zcXzeiDXH9gQwQmbsHQh7i+7SqajR4TN+4/XnzxxU+WNTmNL/Ott96yY6+/bq+/9o+4teeBB6xj+w42cthwe+noizH3Kapj/3g9GKZTlguYSmTcmQv91tw7L7/8ciAWQwnFoiLMXc41i94e7qd5yzMPGXf6kHGfgubsP7po9mbs9iddQLM3/c9EzjRpF4XZ0lq5RriIskNIWgsjbhLa4oq4y5tV/sqrr9ryFSts2NChNmzQYBs+aIiNGDy0VPXt0csa1q1nzQua2NCBg2LuE4pjcuxhQ4ba4iVL7OiLRyPvnlnIuDMX1t5mmlPGaaN+/fqd1pAhfs+OGGGDBg06Y3uPHj1swIABwepnIrOQcacPGff7MLUpBkyCWVsXTeQM8yJpjMxy+reZUIXZ1ej75oMwPIxIm4icfvA6LiZrGebi7xq6SurjLkZ5jfsgfdX+AF11Y1Wr3jzfbmxdYDe2LF03t2lq9Tu1sbodW9lNrWLvc1r+evUWjeyqm6pZ+44d7DG/KJkIfaUU9BhBriTcheSKcffu3TtQ//79T6tZs2bBrGlt27Y9Y3vPnj2DSth9990XOYrIFGTc6UPG/T7MjIYJ07xNtLzbRYY4U6CSHf41F8bcxMX4bSZbIZImwYz+cSLzja7trvkukt0Y7hU35TXupx5/wjp17GhV2zaxZgtutRYrJluLxeNLVcslE63N8inWehn7Tyj2+hlaPtmaLxpvVTs0s9Zt29i+vQ9F3j25kGFM4tzJt9+xt+LQoSPPWE83hb4erT33wtGY+5QkCp9///vdjB2KlCtN5WEz+KuvvnpaJGRi3hQY0dvD/TI9aY37lM/I+SG6rkKxnXsrehtiP7oAMrXbqTRk3OlDxn0mmPGvXSSoMfyLjPIfu4iaaT6/2PV/LpLZomdFw6CvdTGkjKZzmsqJ4OPq2w4pt3E/9rh17tTJbure1tpvnG+d7llqHTcvTKg6bV9qHbYstJq9O1jbdu3skQf3Rt49uRw+fMiWLV1qt06YZKMmTLbRrjETp5SoQSNHW73GTaxBQTMbMnpszH2K6tRxJ9mUadPsnm3bMtYkcjk5bfXq1cG63Nm6IhjdMkuWLAlaB2jyZ7lSxPj0SZMmBQmgY8aMOb195MiRQcsQczYcPnw4cpTsQsadPmTcGURFIu4unTvbTYWtre3tM63DpvnWft3shKqDVwja+c+aPdpZOy9gUxVx33X33dayaRPLr3GddWlY0zoHurlEdcmrZd0L6gXqnBd7n6LiuG3qVLe6NW6wUSNH2WsZ2jeey8a91CtnNJMznjsboWWAgpR51zGz7t27B2K4Zf369YNZ4bh24XZGc3C+LLKCAWYjzz77bHAu48ePj2wRqULGnUHIuItz+50brVleA5vU7EbbN7i5PTSoue0eWLL2DGphDw9rE2hPjNeLin0eG9rCtvbMtw61r7e+AwbZS6+8Gnn3zELGnblQkB49ejRY0Yz514mi0WOPPRb053Nu99xzz+nt7MO+zBKXKS089BAx90282r//KevSpauNHj3WTp58J+Y+MeXvo3nxKoaMO4OQcRdn9YaN1rog324rbGDvzSi0d6cX2smpXRKmt102u5u9MLat9Wt0k/UZONiOyrhTTrYb99mgKRnzpq8+Ezl+/Jht33aXzZ230KbNWOxaYtNnlq5hIydZ3frNrVmLzjZ52oKY+xTV1ODYi/x6L7N9+x4KEhZF2ZFxZxAy7uLcducma92kkS3vVN9OTOlsxyZ3tlcmdkqYXnW9Pa2LHRjZ2vrk32S3DBpiL8q4U06uGjfRNH3aDGt75plnIlszi0OHD1u/W/pYvdrXWutmN1i7FlWtbYtqpapdi+rWvtWNrhr+e/Vir8dSu5ZVrVmj6yyv/k02a/Ys/37UN14eZNwZhIy7OKFxL3PjfsNN+/VJne3lCZ0Spldcb3nU/dQIGXc6yVXjJnucRDSM+8iRI5GtmcXjTxz0+6qTFbb+o22c/xfbsfwS27Lo0lJ115K/2o6Vf7d7Vlzpv19W7PWi2rr4Urtv5SW2eMKfrFne5TZqzCR7801NcVseZNwZhIy7ODLu95FxZx/ZYNyPPva0depUaGP6XWr/2Ps3e/epy+34I1ckXG/su8L+e/Bye3TjZVbY5mobMWqKnZBxlwsZdwYh4y6OjPt9ZNzZRzYY92OPP22dO3e1kX0vs+fvv9zecJN98YErE66Xdl9pbz16he1Z+1fr3Poaj7inyrjLSWjcTZs2tenTp9vmzZuDyY3WrVuXMHE8jkvFgPeRcZeAjLs4Mu73kXFnH9lk3CP6XGbP3nu5vf7QFfbCzisTrqO7rgwqBQ/cJuOuKNHGPWPGDNu6datt2LDB7rjjjoSJ43Hc8H1k3CUg4y6OjPt9ZNzZh4z7fcm4EwfZ+Bg2cwQwJwAT/TDxz/DhwxMmjsdxmYugQYMGhi+VZa18GXcpyLjLLxl3ZpCrxs18+WSVM+c6Y7YzkQ+icRM5sq7BsWPH7Pjx48XEa1S6+Bm9nf1RumeK4/NTDtx0001Wu3ZtKygosMaNGydcHJfJg2rWrGkLFiwo03TQMu5SkHGXXzLuzCBXjRvCcdzMrpaJfBCN+/nnnw8i1r59+wYLEg0dOvQMEWkyIxw/o7czTS0r2NGEXJboM9GEEXe9evWCmfpo1WEWvkSL43bp0iWI7BVxl4CMuzgy7vfZt2+fderUKaj55hqZbtxEOEePvmAPP/yI7d6113bvfMh/lq57tt1v3Qt7W+sW7W3dbXfG3KeYIsfe++BDduTI4aSvcvdBNG7G1I8bNy6oCNMaEi41G6pFixZBNMvCN9HbaTamaZo+4HQat/q4MwgZd3Fy2bhpduJBoPbMqmSnfpasnTvvt/bt2tnMmTNivh5bp47L+2TqqmeQ6cbNKl5Lly3xe7+ttWrVwtq09WetbZtS1bpNK2uY18AjlnrWsmWLmPsUVZs2ra1161bW0t9nypRJ9tJLL0Y+RXL4IBo3Kw6ydj8GThdGUS1atOj0EKjo7czPjmg2T+fzVDSrfMuWLUnJKue4yiovBRl3cXLVuHno9+17NCggZkyfajOmTbGZ/nPmjJI1eFB/a1C/jnXs4OYd4/ViihyX4y9dssQef/zxyLtnHplu3G8cP2EjR4yy6rWutOY9r7bOI6paxyGuwaVoSDXrOba29bq1rnUeViP2PkXUeXhVa9v/Oqte769BhHfo6eQmtSk5rTjbt28PVqsj6sxENI47g5BxFydXjZsomCbvunXrW606edawUUtXC1fzEpXXuKU1btra8gs8iovxenFxvJZ2c+0G1qBBni1btixjo+6VK1cGK2vdd999kS2ZxRvHTtiIoWOsUZuqNm59XVu8r7HNfaCRzd1VuuY90DhQrNdiadHDjW3GPQ2tRY/rrWthd3v6gIw71WzatCmoSGJgmYiMO4OQcRcnV4373Xf/ZVOnTLKb3bTbdx9tA8assFtGLrK+IxaWqP6jFtvgcSts4JilMV8vKo7HcdsUDrdadRva7Fkz09ovdzaWeqWiTds2tm3btsiWzCI07sbtqtnEjfVs2RNNbMHeAlvwYOK19DEvJO/Lt1a9bpBxp4mNGzcGxr1mzZrIlsxCxp1ByLiLk9vGPSGIiAfdutJmrnrcpi7ZY1MW706Ypi55MDjuLSMXBxH47FnTk27czz7zTPCwL162xOYvW2QLly+OS9369LDaDerawOGDY75eVAv82Bx/yfKldvddd9krL78c+QTJAeMeOWysNW5bzcatq+dRcYHN2dnY5tyfeC30CsH0bXnWsscN1q1rDxl3GpBxy7jjRsZdnFw27mlTJwXN2UTSmOzE+ffahHk7EqaJ8+8Ljttn2LzAuOfMTn7EzYPeqlkLy6/dwFrmN7NWcaplXlNr4eJnrNeLKc//xn82rFXXunTqHAyVSyYy7oorm4ybbGq6bkjSykRk3BmEjLs4HwTj7jdyURAhT5h3j42fuz1hwrw5bu+hc1Nm3Is80sa0RzTpZWt7z7LVPabZyh5TS9XtfWfZ+gFzbU2fGTFfL6o1Pafbml4zrE/9Dta0UYFt2XZX5BMkBxl3xZVdxn2XjFvGHR8y7uLIuMuvdBg3zddEw+vctI/PeshemrbLXph6f8L1yvTd9uqMPTan4+ggwt9095bIJ0gOMu6KKx3G/dqrr9rOnTtt/R1ubOs2BFobh4aNGG116+fZgEFDY74erdvW3hEcd/PmLfbk/v3BULNkI+MuzsddX3Z9zfUF10dd57hica7rY67Pu/ibr0T0RdcnXZVdcSPjLo6Mu/xKh3EvWL7IWuc3s9t7zbTXZjxoL0y5z56dvCPhenHqLq8UPGCzO46y1s1b2qZtMu7yksvGvWvnLv8OC61RXgNr2bxJoFZxqJmXOY3zG1izgvyYrxcV+xc0zncznWKvv/565N2Th4z7TM5z3eya6lrmGuK62oWBxwKD/rtrqGuea1pE/V3XuzDxuJFxF0fGXX6lzbj9vYi4j818yA12pz3v5p1oveymTdQ9t9NoaxMY99bIJ0gOMu6KKx3GvWHDRmvcqKF1b9vAFo7vYfPHdbc5Y7uVqoUTe9vyaQNs0aQ+MV+P1uKJPW3SkA7WuF4Nu+WWfvZSkhMlQcb9Pp921XFNd612rYn8nOy61EV0XZTvujq77nPtdS1wzXFh5NVcX3XFjYy7ODLu8isdxr105TIraJBvw1r0ttW3zLBlfabakt6TE64VfabZir7TrHejjtaiWXO7a3tyh5HJuCuudBj32vV3BlH2/HE97JUHF9hLu+fZc/fPSaj+8fBCe3TTJOvVscD63NLfXnxJxg2pMu4fu+a75rr+4PqWq7HrNhfmTDRelAtdbVyzXJ1c33Fh1uxLRaBMH7Zy5cp/dON+Usb9PjLu8isdxr1q9WqrW7uO1alR61Tmd5At3iThCo7bsInddEONoFDZsWNH5BMkh9PG3a6ajb+jni3ZV2Bzg0lVEi8qBTPuybNWPWXcFWXt+o3WqkVTm3drd3vRTfuFXXPs8L2zEioqBA9vmGg93bj7yrhPkwrjph/7Ctda13BXGF3/wjXeNcL1Jxf7RfMDV3PXMBdN5hXCjftXVapU2T9v3rzIqceHjLv8knEnlmUrl1uj+nnWu6CTzew2xqYVjrQphSMSruldRwXqVL+lNW/azO6+JwUR99Cx1qRDNZu8pb6tONDEFj1SEJhsorV8fxOvFORbmz4y7oqy7o5Txj17TDd71qPjI260B7bNSKhe2DXX9qwbbz06FNgt/QbIuCOkwriJkOu6aOYmgq7kAiLoZq6RrjwXSWjREHG3dy11jXL91XWx6+uu8Bglweufc13k+q3rD5UqVWr94x//+LmZM2dGTj0+ZNzll4w7sTA5Suv85sFQLfqgn518rx2etD3hemHK/XZ06k6b1WFkkJy2Ocl93CeOn7BRI8Za/YKq1ndybRuzIs9GLGpoIxYmXqOX5dngOfUsr/V11r1bD81VXgFk3OVXNhj3t10FrkkuDDo0XTLLa7vGuNq6ijaX05zOh9rmesK13kWSWksX/d9n40OuX7m6uOgbX+nadv755785efLkyKnHh4y7/MoE4z41AcsemzifiVPuSZiY0IXjpnICltC4b3PjZrgWiWTPTN6RcGHaL07bdTqrPNnG/eaJN23s2FutavXrrW5+DStoWdsat0iS/NgNm9S066tdbT179LQjR56JfIrkEBr3yL6X2fP3XW7HH77CXnSTTbReeuBKe3PfFbb7dhl3RZFxn4LImSbvca56rrCpnKzwm1xjXR1dDPmKhqxyEtf4YP1cfV00rU9xYfRE0yXBULHvuUhi49jdXFO/+93vvjZt2rTIqceHjLv8Sq9xT7S8xq2SPuVpv1FLggVK5syekRLjZmazlT2mBuOtD03cZgcm3JVwHZl0T2Dg09sPT03E/cabNmb0rVaz7g3WukdN6zasnnUZlBx1HVrPOvSrbTfXv8Z6dO9phw8n17gfjRj32P6X2ut7/2bvPnV5EBknWifctN87eLk9tvEy69r2Ghs5WsZdXmTcpyhvxP0RF+O1w75vPhz94mSV3+lq6CoNxogHOvfccy9RVvmZ5LJxT582xeo1KLCufSfY8Em325BxK2zwuOUJE8fjuJ16jbX6DQts7pzZMu5yckZW+dp6tuihglNZ4PclXgsfLLDpd6cuq/zxJ04Zd+9Of7UdK6+yveuvtvvXJEcPb7ja1sy8wlo3vdbG3DrV3nxLxl0eZNyniLePmz7p0iCSbuJ6xEUUHTeVK1f+jZLTziRXjZtlPWfNmmk33ljTatfNs4JmbYMlOxMtjsuynjVvrmULFsxP+rKeoXGvcuOmOfvwxO12cMLdCdczk5iI5d6UG3dB+2o2aVP9IIEsaauDPd7EZt+fb617p8a4Dxw4GKz7XbPGVda+VXXr3PZG69gm8erk6tLuRmve+DqredP1bgiT7eRJGXd5kHGfgoj5Stc6V0lZ5b93FZ1BraQEtHIZt8ZxFyd3jftdmzlzhhtqbcsraG1tOvax1u17WqsEqnX7XsFxGzRqabVq17X58+cl3bjnL1sYGPe63rPt+KyH7eUkTXn66vQ9wcxsczXlaYV56qmD1qVLoTWse6UN7FnVhvWtZoN7V0+4hriG31LNune41urVvt4mTJgi4y4nMu73+V8XSWIkl2HS0eO4GaNNpjhjsz/rookcEycC/76LyPx81wWuS1wMD1vhqumKGxl3cXI9Oa1BfnPrM2xukEh266wtNnbm5oTp1llbg+P2HDTT36dZapLTli22pvUb2az2I+2hkets17DVdv/QlaVq14g1tnvU7bZr+JqYrxfV7uG32Z7ht9voZn2seZOmtvnuFDaV5+gELEN7XmYH7roiyP4+tP2qhOvwPVfZy7uvtB0r/mYdW15jo1OYnDbv1h5JHMc9PxjH3atjExl3FKkybgy5vmuma5WLWdMQiWZMyMLEKte5mBKVpLMPu37o6uBidjUMf7ZruYtpT2lax8jjRsZdnA9CctrAsSts5spHbcriB2zyol0JEwlqHJf1uPMat0hJctrqNWssr14DK7ixgXXNa2eFeW2sSxzq2aSj9WlRaN0LOsR8vag4bmFeW2tYrba1bNbc7r333sgnSA4fBOMe2/8ye+3Bv9k/919uxx6+IuE6/sgV9p+nLrd9d6YuOW2tG3drN+4F43vaK3sX2Et7Ej9z2usPL7JHN0223p2ayrijSJVxE0GTRR5Oe4oBEzlf4yIBjQzya11kmWPYGDdJbTSLk3XO7Gn83QRXvusbrjIh4y5OrkfcuTaO+9F9jxqjIgYPG2IDhw22wcOHuIaWqpZtW1nNurWsQ2GnmK8X1SA/7kDXEH+f+fPm25FDhyOfIDlg3COGjLGCdlVt0ub6tuKpJrbQzXvhQ4kX/edzdp3q4+5a2N0OPpUa487Fcdx3btxszZoWBKa6ZGp/Wzylny2YeEtCtWzaAJs2qrs1a1THBgwYZC+/8krk3ZOHjPtMMO9Yq4MB/d6fcH3KxRhs9uXDfMZFclu4Mhj/x+h5vUxU2Li7tgnMteOWhdbhjrkJVcfNC629/6zZs72MOwHkqnFToJw4ccJeP/a6vXbsH/YP/xmPZs2Zbc1btrDb162N+XpJev34MXvrrbeCZL9kEhj30NHWsMX1NmJ5LZt1X0Obcpdr69k11TX97nyPoBsF/4+1T1HN3NHQJmyoZ006X2OFXbqlLOLORePeunWrNWrUyGreWM1aNs23FqhJXkLFcRvn1bNqVa+3wYMH26uvvhZ59+QRbdxUlDdt2hSsHb527dqEieNx3EmTJmW8caeVihp3ze7trP3GedbpnqVutAsSqk7blloHN++b+3SUcSeAXDXu8rJ69Wpr7/cVaydnIifeOGFjxoy1ajX/bg1b/92ad7vBmhW6upSiwqrWrk8t69C3trXoVi32PkXUvOsN1rjjtVa15t+sR/fuduSwjLu8bNy02Zo2KbBu7RrbnHF9bPatvW3GmF4J1bzxfW38kC5W0LCWDRiYuoibSBtDZabNu+++2zZu3BhEyIkSx+O4VAzC95Fxx6Dcxr1/f2Dc1ZrlW9MJg63FtOHWfNLQhKrF1OHWbOIQq96ycWDcjz78SOTdk4uMu/zKJuNeunSptW3bNigoMpF33nnHNtx5hw0cNMh69+prfXr1s769+5eqXj36Wn7DAqtfN8+6dukRc5+i4tjB8fveYkuWLLbXXkvu/ZjLxh0mp7E62Et75tvRB+baM/fNTqhe3bvAHrlzkvXqlPrktDp16ljPnj1twoQJNnbsWK9cjilVNH1j+uPGjYv5eiiOx3G7e+Wxbt26irhLorzGfeCpp6xLly52TdXrrXbjPKvbtJHVdbNLqPyYHPuaqjdYu3bt7DG/KKlAxl1+ybgTB8PoTrx5wl568SV74bkX7XkXP0vTgacOWf9bBlrHDl1s1849MfcpqvDYR4++aMeOHfPCMrndAKFxB1Oe3n95kET24gNXJlwv7b7S3nz0CtuThilP52Hcu+cHQ7eO3Ds7oUqHcWOgy5Yts8aNG1uDBg2CiDheFRQUBIr1WiyFx1+1alWZhpPKuEvhwJNPBsZ9ff3altenizUe0N0a3dI1oeKY+X0L7YaGdQLjfvSRfZF3Ty4y7vJLxp0ZELn07t3bXn01+fdVeXj0saetU6dCG9MvdVOeFra52kaMmpIy4861cdwY6FMesNEXvXjxYlu0aFHwszSxX6dOnQIzJqqOtU+0wuPS333w4MHIu8eHjLsUzsgqXzvLOmxeYO3Xz0moOmxaYO38p7LKE4OM+0xy1bhPnjxpI0eOtB49etgzzyR3zvHy8vgTB61jh07Wre2fbOviS2zn6ktt27LLStU9y/9mO9dcZfevvtK2x3i9qNhn922X2rLJf7bm+Vd4xD3J3pRxpxz6rDt27GiPPJLc7k4ZdymcTk7r1tbabZhrHe9eHAzfSqQ63rXY2vvPm3t3kHEngDONe7FNWbLHJszfYeMx7wRpwvx7g+P2Hpq61cHKS64aNxnvoXEfOZLcJLPycujQIevbp5fVq3W1tWl2nXVoeb21b3lDqerQqqp1alPDVT3m6zHV6npr3vgaa1CvepDs9Pbb70Q+RXKQcReHvmqi7ieeeCKyJTnIuEtB47jLr3Qa99QpE9xQWyZ9dTAmYMG4Z8+aLuNOMdlg3MeOvW5bt2yyGTPm2MTJ8wJNmjK/VA0aOs7q1GtmTZp1tPETZ8fcp6gmBMeeawsWLLCHHtqT9GF8Mu4z4fkPI+6HH344sjU5yLhLQcZdfqXXuCdZ7XqNrEufiTZs0nobPG5VYOIlacj41cFqX8Mm3hbz9aIaPG51cNwOPcd6AZvvxp25EfeKFSuC3IkdO3ZEtuQG2WDcwH3x7//8x+/L+PX44/utc5euNmrUGDvx5smY+8TUv/9j//nPf5M+bz7IuM9Exp0EZNzFyVXjJtLgOt98cx27uU6+NSxoYw0bt3a1KlH5Tdpa05adrKB5h5ivF5cfz49bs3ae1alTL0gySUVhWR5WrlwZGHeypy5NNdli3OXh2WefDYYKMWQoU5Fxn4mMOwnIuIuTq8bNA/TA7t0edU+10aNGuIbbmNEjz6revbpbvbq1rU3rljFfjyWOy/GnT59ue/fuTatxM4SFhzmcUpFM1VB9+/a12rVrByYXvZ2JWdavXx/0w2YjuWzcZDV37do1yJpnnHsmIuM+Exl3EpBxFydXjRuYRIGs4zdPnLATJ97wn2fX9u3brG2bNm72U2K+HkvBcd88EbwP75dOeH/6sps1axaojZ9LqObNmwdjS1u0aHHGdsaPEolv3rw5cpTsQsadXmTcZyLjTgIy7uLksnGXlcceeyzIBiWxJxsh4uYcWLwAEUmH2rJli23bti2YGzl6O5H5HXfcoYg7A5Fxn5KMOzYy7lKQcZdf2WTcu3fvtg4dOtjs2bMjW0SmI+NOL2vX32mtmjcJlvV8de9Ce3nPfHt+59yE6vVHFtljmyYHM6f1vaW/jDuCjLsUTht3VzfudbOsw5YF1v6OOQkVk7q08581e8q404WMO/uQcaeXdW7cLZoV2LThne3gtun21F1TA5MtTY9vmWpPbJ0W/Iz1erQO3zPD7ls92grb5Mu4o5Bxl8JTjz1unTt1spu6t7X2Hm0Hq4NtWZhQddq+1CsEC61m7w7Wtl07e+TBvZF3Ty4y7veRcWcfMu70smnTFmvcKM+aNbzJBvVoYQO7N7cB3UrX0N5tbMyAzjasT9uYr0drSM8W1rNDI6tT8wYbOHCgvZKC1cHKi4w7CVQk4qZAv6ZpfcubONAaTR9mjSYPKVUFU4dZi1mjrdnMkTFfP0N+zLxJg+3a5nnWqnVrRdxpQMadfci40wuLITEnd5cuhVZY2M0Ku3bzz9y9VDVv0dJq1a5jTZs1j/l6tDgux+/Zs4etXLE8WI8+U5FxJ4HyGncwZWHfvlat1k12c+M8q9U032q72ZWmOqwi1rzA6jZrHPP1aNVqkm83F+RZ1Ztvsm49utv+J/ZH3j25yLjfR8adfci408vbb79tR48etYNPH7KnDjx9SgdL19x5C6xxk6Y2dfqMmK+fochxD/v1/cc//hEkYWYqMu4kUF7jPnb8eDBV5MJ5823BrDmBFs6eW6rGjxpjBQ3yrEPrNjZ3xsyY+4QKj7tg7jzbsnWLveY3aCqQcb+PjDv7kHFnJ9u3b7f27dvbhg0bIltyAxl3EiivcZ/mvfeCCTbe+2/kZyl68sknrbBLFxt3663Bgxdrn9OKHNP/ibxZaljjxt3GjXtVlwb2zrQugckecwNPlI67/j2j0I6MamO3NMps4+ZB44GbN29eZIvIdGTc2QnDEpk7n+GIuYSMOwlU2LjLCFMWduvWzSZNmhTZknmEEfdp457ixu1Rd6J03PWuG/fhLDDuhx56KIi4U3V/iIoj485ONm7cGBj3mjVrIltyg1w17o+6fuVq5GrrutH1IxfbS6OS63xXdRd/963ItrhJtXHz4BUWFtq4cePsn//8Z2RrZrFh02Zr2jjfeufdaIu7N7WF3Zra/K6J1dIezWxq+zxrenNVGzhkqL38anqN+/Dhw8EEJcwytmrVqtOigKxTp05wzaK3h2J/pgmlQiYyAxl3diLjrjipMu4Pu37nGuTa6trtWuPq4fpfV2l8ydXE9ZBrm+tq14dccSPjLs7mLVutUX6e1ap6nbXOq2utUMPEiuMW1Klp1a+/1oYOHWavvvZa5N3TAytkde7c2Ro3bhwUHqFatWoVTBXKtKDR2xHTg7I/BemuXbsiRxLp5l//+peNHj3aevbsac8//3xka24g484+ctG4iZaHuRa6iLbruYa6VrnyXZ9wnQ1Mf6nrmGuL61rXx1xxI+Muzh0ecTfziHtg45p2e+/mdptrVa/Eal3fFja/cyNrWataRkTcFPB33XVXMNUnc3SHYtt9990XJM5Eb0f0ybE/SYovvvhi5Egi3ZAXwnCkXr162csvZ+7EHOVBxp195JpxV3b9wbXeNdH1KRf82bXANdhF1B3rzc91YfqY+2IXkfp012Wuj7vipnLlylWc/alKPsoG4w6T09YUNrB/Ty+0d6YV2okpXRKmN13vzexqz45pa/0a1bS+GdzHLTIXFnF58MEHgyxkKlLMvY6Yb51FUmgNYVnVcDtiX5YxZQhRNiLjzj5yzbg/66rhWuLq5gr7pn/g6uoa6eL1z7iK8nkXfeKFrqau2a5Zrr+5SjNuKgz0nxPNf9Ij7r//4he/ODhnzpzIqSeXp59+Onjwxo8fH6wPnYmEyWkrOzewt6eeMlqGhCVKJKj9yysEh7IgOU1kLkTTGBgGTZdG0S6M/Pz8YtsbNWoUzL/w+OOPR46SXci4s49cM+5vujDfqa4C1zku+IaLJvPRrpYu+rGLQiQ+1oXBX+y6xTXXdaXrbMbNiVzkqu/q7wqa6b/zne+8PnXq1MipJxeaZMkqnzx5cmRL5qFx3CIbYLasYC6FhQtt2bJltmLFitMi6qYbgwTCcNvy5cuDfXntpZdeihwlu5BxZx+5ZtzfdzVzjXNhpDR/w1dcNV0YcwfXl13RkDmOsWPWf3F90tXRRcTN70TUJUHi2i9c7V0zXDTJb7zgggtOJMpIWf+YqJpkJSbv2LNnzxlavXp1sN4xGa/333//6e3su3PnTjtw4ECQXJNOZNxCZCYy7uwj14z7ey6auce7oo37q66bXWNcGOx5rmh4baaLv/1cRJg4JkxW+dkS2ojqMXqieprkL6pUqVKDn/zkJ0cSNTMWUcCsWbOsefPmQdMcY4CjRdNdvXr1LC8vL5glKNzODUv2MpF/uvvfZNxCZCYy7uwj14z76648F0llmHDYx00TegMXTeXNXV90hRBN93I971rn6u6iuXuH64AL867m+oIrbHo/K5UrV744kclpzNO7detWmzJlik2fPj0w8WiRvc7YX5JmqCyE22fMmBE0n3Pzvvnmm5GjpQcZtxCZiYw7+8g14/60q6pruau3KzRaJl/p6yI5jeFd0ROxYNwNXXe57nfdEfn/EddxF9nlDCujUhCvcf8plcPBsgEZtxCZSS4bN0MvGQ3AhEa5RK4ZN03j/+da65rmCpvEr3Atc5E8RnN6tAHz/6+5fu36o4vhZDSPz3cxgUsnF4lr8cy6FpDqcdzZgIxbiMwkl42bIX1E3MxgmEvkmnEDJkx0vciFUTO8a5KLKJwpTElMYzrU37sucDHTWlGoAAxxMREL47gzesrTbEDGLURmks3G/dprrwXj6OmWXLJkSdBlGK3+/fvbzTffbL179z5jOyMBFi1aFJgeJpht5KJxk+X9cxf91ptdD7iIttu4SCAjUa2Oi+FiVVyxEs/Y1tlFMtufXB9xxY2MuzgybpHtYGpM0JKNBf3ZyGbjPnTokA0ePDgYS0/iLtF1tFq3bm0tW7YMfkZvJ9GX7YzIyeR1t0siF40biKLJ8L7GRZR9iYvomsiZ6UsvdP3YRVN6rA/CNv6eCgBjvsPs9LiQcRdHxi2yGZI7Gd9NdPfKK69EtuYG2Wzcb7zxRjD0lSbxbdu2FRNTCzMslp/R20n2pf8b4w+WOc4yctW404qMuzgybpGtMI3wI488YkOGDAnmKqfgZ7WwXCGX+7hzFRl3EpBxF0fGLbKVF154IRhy2bRp02CuBAxu//79kVezHxl39iHjTgIy7uLIuEW2snfv3mBK4erVq1u1atWCvlHGB2djE2ssZNzZh4w7Cci4iyPjFtkGheOxY8ds5cqVwQIj1113nd1www1Wu3btoNAkEs/URX3Kgow7+5BxJwEZd3Fk3CLboG+buf8HDRpk9evXD6LtGjVqBMOLunfvHiw4grFnOwcPHgyM+9Zbb037mgYiPmTcSUDGXRwZt8g2yFhmCuGGDRtazZo17aabbgp+IqLuESNG2LPPPhvZO3uh5YAFiiZOnBjZIjIdGXcSkHEXR8Ytso3jx48Hc/0TYd94442nTRsReQ8YMMCOHDkS2TvzYbGiJ598MsiQf+yxx06LJUkZ10zG/IMPPnh6OwU2+z7zzDOKxDMMGXcSkHEXR8Ytsg0mW1m7dq116tTJ6tatG5g3qlWrVpCgxvP98ssvR/bOfCiAmUmsRYsWwTl17tw5EBOX1KlTxxo0aBAYQbidFQY5Twwi3asLijORcScBGXdxZNwi2yDxjIiaVfZoLr/++uutatWqQcQ9cuRI27dvX7ByX7bAZCNz5syxUaNGBc3ioVh1kO2sKDhp0qTT28ePH2+jR48O5vmm20BkDjLuJCDjLo6MW2QjFJBMuEJUinGTVc5Y7hUrVmSVaQPD16iMvPvuu2eIbUz7iYq+htieK0PfcgUZdxKQcRdHxi2yFbKuiVLr1asXNJP36dPHHnjggcirQqQeGXcSkHEXR8b9PmGS0NGjRyNbRCZDM/GWLVuCIVNE3kTb2dS3LXIPGXcSkHEXR8Z9Cpoed+3aFYyZXbVqVTAOWM2QmQ3X58UXXwyWgpw+fXowYYmumUg35F6QZIixJhMZ9wcYGfcpAzhw4EAwxIh5r1kj+N577w2yl0VmQz/vc889Z4cPHw4mZhEi3ZBMSPY/rXfJRMb9AUbGfSpLmeFFrVq1CoYV0WdK9i7RnBBCREO5sGPHjqCbJnpJUsQSsz179gxGOzAiIPo19icgeOmllyJHqhgy7g8wMm4L1nGeMGFCMHkH2cnMfV1YWGgPPfSQml6FEGeA+Xbp0sUKCgqsbdu2xcT8+Rg34/Kjt7M/+Rh0ySUCGfcHmA+6cTMLFwv380Bh2sx7jXHz8NF3SjOsEEKEMO6eBW7mz59vS5cuLabbbrvN1q1bF+wTvZ39yZ9J1Kx+Mu4PMB9046ZvmyFF1JBpJmfeayJv5rwm6t66dauibiFExiHj/gDzQTfu3bt3n57Eg5m3mP+an0TejA0m6iYBSgghMolUGvcnXX9xdXUNcjVzVXF9whWLL7rYv4Wrp6ubq5PratcXXGVCxl2cD7px01+Vn59vV1xxxWnjxrAx8muvvTYY2iHjFumAMel04zCpjNbjFkVJlXF/zPU312jXFtd9rrUuDPxi1zmuonzL1cg1y7XBxf78HOe6xvV5V9zIuIujiPtUxE2/dmjcSBG3SCdMLkM/afv27a1fv37BZB5aCUxEkyrj/o5rvGuBq67rchdR9BoXEfWnXUX5rOvHrt+7iLwvcdV3jXDd6vqrK25k3MX5oBs3k3awMAUrMBXt4yZzlD5uZkMSIpUQZbOcJ/ckK6CxyEgurDEuEkcqjPtDLox3vYto+SMu+K1rtmuo65euD7uiqRT5GQ1mjuFvcjVmQ7zIuIvzQTduZkjDnMkqZ4Wp6KxyskCVVS5SDfMKLFu2LFjSM+yyadeune3ZsyeyhxCpMW6atGu6Fro6u0JD/r6rg2ukq5YLU44Fxs9r33Bd6Rrumum61hU3lStX/n2VKlWelHG/z5qIca/sXN/edoN9c0qXwLwTpWOuf00vtEOj2lhfN+6+AzPLuMkYpy+RcdxEN+E4bqJtjeMWqYZumaefftrGjh17+n7EuKlIMryI9bd1TwpIhXFf4CI6nuKizzo07q+7aDan37u160uuomDav3Jh+Itc97rmu6gInOeKGzfu37hx7583b17k1MWaDRutVUG+re5S3951g31nWqGdmNK5FHWJKNZrZ+pN139ndrVnR7exW9y4+wwcbEczyLiBecpZ27hly5ZBMzlNkxi5Zk4TqYbJgBYsWHB6Fj/uxzDfghm5SFbT1K4CUmHcF7rIIKeZvJ7rXBd8xYUBj3UReX/ZVRSaz0le6+iif3yna66LaPszrpLgPTj+/7muc1WrVKlSr4suuugomcLiFOvu3GgFDepZv3rX2W2FDdzAG9iKziVrVWGere/dLNDKLg1j7hOtla61XRva3Da1rGn1q+2WAQPtpQwzbiIY+rqZ5rRJkyZB3yJTGr711luRPYRIDdyH3bt3DyJt8i1ImETVq1cPjHzKlCm6L0VAKoz7u66mrgmuBq4w4v6qiybyMS7evKQImj5xmtvPd13lusU1ynW25DQidYaadXctcd3u2vHNb37zLRaTEKe4//77rWuXzta4fl1rXZDn0Xee/8wvUa0a51nTBnWtacN6wf9j7RNLzfMbWEFeQ5s2ZWrQr5xpkLG7c+fOoImS5SG1OphIB48//njQn33VVVcFxh09yoEmc+7PN998M7K3+CCTCuP+mgvDnuFq7gqNGyPOd2HCGDvjtkuDSDrPtc3FBy4J9vum61IXzfH555xzzpALL7zwJZYAFKd45ZWX3bzvs7UbNtrqO06J5vOSNG/pcito1daatWlvC1esirlPUQXHvONO27h5i+1/4omMHdbCEJz9+/fbCy+8ENkiRGphRSlm7CPPIoy4MW4ibkR2uYxbQCqMm4lXaK5e7ervCsds/69rsIvktCtcRMnRYL6xxndj3I+5egW/xUnlypV/R3Ka+rjLz+uvH7N+/fvboMGD7U012QmRUFg5imUhmzVrdrqPG8OmjxtD37hxo/q4RUAqjJsImwQzjJts8G+7KrtucK109XEx2Qrb2Dc068+5iJo/5eI1PhzN7r1dd7mI0uMmNG5llZef119/3fq7cQ/GuFXzFyKhMBSMVh/mz48e5dCoUaNgoQqS19SFIyAVxg30XzNdKQlm9HUTZZNkxhAxZkEjkexPLiJvTJwP8iNXSxd92v1cfV0kuE139XD9whU3GsddcYgIbrnlFhs4cGAwNEUIkVgY5bB48eJgEqBwHDez+zEpixAhqTJuIuYfuNq7mLp0hwvjpo8bU8e4b478/hMX2eTMmsZkKySXrXMRsS9zMWc5+3DMuJFxVxwZtxDJhzn0mRQonMWPpLTDhw9HXhUidcYNGC2TqDBE68+un7swbZrGMWpeY8w305/SZE7fOEPJyA7/nYu/4/9E5EX7w0tFxl1xZNxCJB+eLdZuZm4Bxm9roRFRlFQad1qRcVccGbcQqYHRDSw0sm3btpwbu81shY888ogmOaoAMm4RNzJuIVIHC9zk2iI3J0+etDvvvNOGDx9ua9euDZJclXBXdmTcIm5k3EKI8kLW/L59+2zEiBHB/OuDBg2yBx98UEPcyoGMW8SNjFsIUV6IrhnWxtTCDHfLz8835tVgmKkoGzJuETcybiFEeaDJ/9ChQzZs2LBgCleW0UUDBgwIxq5r3fuyIeMWcSPjFkKUh1dffTXo0+7QocPpte+ZYKZt27bBkqVKVCsbMm4RNzJuIUR5YH17Zl2sX79+MAc7c7EjfmdFPhb5EfEj4xZxI+MWQpSHu+++21q0aBFE2uHiKeGSpSSq3XHHHZE9RTzIuEXcyLiFEOVh165dwWxwLJiCYYdRN7/TfM54dRE/Mm4RNzJuIUR5eP75523RokXWunXr08uUEn0Thc+ZM0dTupYRGbeIGxm3EKI8sHjKY489FvRzk5RGgho/6d/eu3dvxq7Tn6nIuEXcyLiFEOXl+PHjNnv27CAhjWi7Tp06NnXq1CDjXJQNGbeIGxm3EKK8EFXff//9QRnSoEGDYAGV7du329tvvx3ZQ8SLjFvEjYxbCFFemJOcWdJWrFgRNJHT5020rclXyo6MW8SNjFsIUVGYQW3Lli124MCByBZRVmTcIm5k3EKIikKETbKaIu3yI+MWcSPjFkKI9CPjFnEj4xZCiPQj4xZxI+MWQoj0I+MWcSPjFkKI9JNK467sOt/1R9dfXb9yfcXF9lh83PUt169df3H9yfV/rm+7yvxBZdwVR8YthBDpJ1XGfa7rB66OrvWu+1zzXQWuC1yx+K6ruWuua6NrrWuFq9B1oatMyLgrjoxbCCHST6qM+zxXFxdmPdY1xDXLtdhVw/VhV1H+14Vx3+Lq6+rjmuqa7mrpKpN5y7grjoxbCCHSTyqMu5Krimu1C9OluRyudRFBY8o0fxOVR/MN189cXw1+O9WkTvP6YNdCF4YfN5UrV/5tlSpVnpw3b17k1EVZkXELIUT6SYVxf9J1vWuVi+gZI4cfuwa4Rrr+7mK/aIjCP3rqv6f5gquDi2bzfDbEixv37zFuRdzlR8YthBDpJxXG/TVXQ9cMF03foXETeee5Rrmaur7oKg3MniZzmtyrs6EEiN45/uUu3qPpOeecM+LCCy98efr06ZFTF2VFxi2EEOknFcZNkhnGPMHVwBUaN03gtVxjXLw5/eBn43MujJ++8W4umtFL4kMumufZj37021w7zj///LcmT54cOXVRVmTcQgiRflJh3N93NXONc9VzhX3ZDAWr6SJZjebvL7tKgqFhl7no2yba/oOraNN6NLwHx6NP/CrXtZUqVep20UUXvTBz5szIqYuyIuMWQoj0kwrjpsm6kWuKq7ErjLi/7qrrGu1q5fqSKxYkpV3iGu8ieuZYn3aVicqVK/+6SpUq+5WcVn5y2bjffPNNe/rpp+3ll1+ObBFCiMwkFcZNE/dNrkUuhoSFxs1wrk4uktOIvD/lKgqm/RPXQBdZ6Zj2x1xlxo37D0pOqxi5atz//ve/bc+ePTZx4kS77bbb7I033oi8IoQQmUcqjJuDMvPZHS6i5jBT/PcuJlcZ6vopG2LwQ1c/F/th2p91lQuN4644uWrcR44cMbpQmjdvbv3797fdu3fbO++8E3lVCCEyi1QYN3zHRR83UTcZ5te4yA5f42L2NPqjGctNFI4500f9TRfJZQddzLTG8C+mS6Wvm6lPz9YnXgwZd8XJReMm2t64caN17NjRatasafn5+YGJv/LKK5E9hBAis0iVcdO8zfzk9Gdvde10MRa7v+tHLoaMkWFOHzgzpjGG+8+ula4XXU+52H+5iwzxiS5ejxsZd8XJReN+7bXXbOrUqVarVi2rWrVqoF69egUPhhBCZCKpMm4gC5yFQujXZrY0TPpiF0O3SDb7nYsmdWZMo2+buc0Zg80Ha+1q42rvYr5zonaa0eNGxl1xcs24T5w4Yffee6/17t3bqlWrFuj666+3Fi1a2PLly+3FF1+M7CmEEJlDKo07rci4K06uGTdZ5OPHj7eCgoKgmfzGG28MVL9+/SDq3r59u/33v/+N7C2EEJmBjFvEDUOlQuN+/fXXI1uzlwcffNA6deoURNoYd6gaNWpYgwYNbNmyZfaf//wnsrcQQmQGMm4RN2+99ZYNGDDAhg4dav/6178iW7OXRx55xHr27HmGad90003BzyZNmtjq1asVcQshMg4ZtyjGP//5z6BZ/JlnnrHnnnvutPbu3WudO3e2bt26BTdO9Gvo2WefDX4eP348cqTM5ujRo7ZkyRJr165d0EROpE303ahRIxs7dmxg7O+9915kbyGEyAxk3KIYGPatt95qHTp0CCJS+ntRYWGh1a5d2+rWrWtdu3Y9vT369e7du9uGDRuyIlKl1WD//v1BC0L16tWDjPLrrrsuMPKtW7cGLQxCCJFpyLhFMZ5//nljFbW+ffvakCFDAmNDw4cPt3HjxgWmzv/D7aFoRh88eLDdddddWROpnjx50hYtWmQNGzYMom0ib8758OHDkT2EECKzkHGLYpCQxdzdNHkz/We0iEJR0e0o3D+bZh2jZeCBBx4IKh1kk7dt2zbo2z527FhkDyGEyCxk3OIDDxnyzFFO8/+ECRPs0KFDwYxqQgiRici4hXBoGr/99tuD6FumLYTIZGTcQjh0D9AFQEa9EEJkMjJuIYQQIouQcQshhBBZhIxbCCGEyCJk3EIIIUQWIeMWQgghsggZtxBCCJFFyLiFEEKILELGLYQQQmQRMm4hhBAii5BxCyGEEFlEqo2bN/ik69Ouj7squ0riHBevf8z1KdcnXB92VXKVGRm3EEKIXCCVxv151w2u0a6Zrl6uy1yfccUCw/6Fq7WL/Se56rq+4Sqzecu4hRBC5AKpMm6i7Oquya71rk2u21y3uv7oimXEn3Vd7hrjOuR60YV5/8pV5g8q4xZCCJELpMq4f+ia5ZrnusL1ExeRNObd3vUFV1FoHv+B6y+uvq5VrsGu37hoMi8TlStX/pOMWwghRLaTCuP+iOtvLiLtUa7wTYicp7iGu37rYr9oPuSiuZztNKmPdPV0/dpVHuO+uEqVKvvnzZsXOXUhhBAi+0iFcX/RVdtFtE10HTaLf9fVyoUh13d9zlUSf3KNdfVxxWPcvAcR+wWuH7t+WqlSpfyf/OQnz8yaNSty6kIIIUT2kQrj/parwEX/dr4rNO6vueq46MNu4zrPVRIYN/3h8Ro30fovXR1cNNEvdm0+//zzT0yePDly6kIIIUT2kQrjvtDV3DXOVc91rgu+4rrJRSTd0fVlV0nQz10W4+ZE6FenYsDfDHLN+853vvOPqVOnRk5dCCGEyD5SYdzfcTVxTXQ1dEVH3DShE3G3dZ0t4i6rcQMVBCJv+sg/eu65517+y1/+8sCcOXMipy6EEEJkH6kwbiJpIm2arOnTDo2bJnQMnYS1Ri7GeZfEn12hcVdxYchlonLlyr9WcpoQQohsJxXGTWb43123u4a4QuP+mYvJWEhOI6IOm9BjQX812eddXDSBlxmN4xZCCJELpMK4mboUk17qmhP5P+O2mQVtjaub65suDB7xIfgbILJmetSqLmZPG+FiHDhRfNHhY2dFxi2EECIXSIVxA83gNItj3ItcC1zLXZjxpa6vuq5yMbvaRS5MmcicSJvm8XtdL7iect3lmuAi0zxuZNxCCCFygVQZNyZMVE1fNsbNZCzjXTVcTG1KYlo1F1ngP3V91MXf/J+LKHuza4NrnWuja66LSV3iRsYthBAiF0iVcQNGjEmTZc4QMYycOcyBVcCYgIUmdJrL2ZfmclYEYz/2Z8IWxP85Bk3ocSPjFkIIkQuk0rjTioxbCCFELiDjFkIIIbIIGbcQQgiRRci4hRBCiCxCxi2EEEJkETJuIYQQIouQcQshhBBZhIxbCCGEyCJk3EIIIUQWIeMWQgghsggZtxBCCJFFyLiFEEKILELGLYQQQmQRMm4hhBAii5BxCyGEEFmEjFsIIYTIImTcQgghRBYh4xZCCCGyCBm3EEIIkUXIuIUQQogsQsYthBBCZBEybiGEECKLkHELIYQQWcQHyrh//etfH1i+fHnk1IUQQojs45lnnrHLL7/8kFtbW1dOG/clv/zlL5+eM2eOvffee5IkSZKUldq3b5/95S9/edatrYMrd43b+et55533zDXXXGM9e/Z8u1evXm/5z5PJUC8/NurTp88bvXv3PhFuK7pfNqlXkXMKf4+1b7ap16lzeTOXrhfqFblGruDc+Blui7V/NqlX5Dy4XpFzy4nzQr0i56L7MXvUK3IOqbgfe/n31qhRI/va1772rvvaENeHA4fLUX7hmuO627XANdc1L0ni2KtcD7vudy10xdovm8Q5LXM96NrjWhLZFmvfbBPnsda1z7U9si2XdJfrUdeGqG25oEWuXa6HXCtduXQ/huXHTlculB/R2ujiftwStS0XNN+1w0U5crsrWfcjPrbGxXNNU/mHXDnLJ10/dP3c9QPXhZGfyRDHvsZFYTLO9VNXrP2ySZzTn11Uema7fhvZFmvfbBPnUduFeQ+MbMsl9XCtdxVEbcsF/dI1xbXUdbkrl+7HsPwY7/qZK9Z+2aqWrjtcnaK25YLwl2EuTPsmV7LuR477YxfB6DddlVwiQXzLRc2oZ/BbbvApFwXJSFeuNc9gAotdLYLfcot6LsztL8FvucUA1zTXl4PfcgfKDyrIvYPfcosrXLTe1Qh+yy3I8qaF5H+D30TWQY2IpjwKllxpyviai0JyguvzbMgh/ugiwiHZI9do4lrt+nvwW+7wcddwF02S32VDDkH5gQEMcuVaJbmq6zZX/eC33KKba7nrN8FvIuugeZwoZ7Dro2zIAWiWmema5DqPDTkE0Sj9Rp2D33KL5i6a764NfssdaAEa5aL7hubDXILygzySoa6PsSGHINKmWyov+C13oMmaFlbyE37HBpF9UJDQpEzTSa7UmL/i6u+i+S7XIu4qLvIRcq0wgZouWklyran8E64uLsyNpuVcgvJjhIsWoFyp+IeQjzDRdUPwW+6AcTd1jXWRSyWyECLSaq5LXJXZkAMQ4ZA0c5WLZspc4gLXja7/C37LLS52Yd7fD37LHagQ/82FAeRaRZLygyblS125Nk73Ihf3I60KucQ5rj+4aFH4OhtE9kG/Ng8fBQoXNBegAvIl1xdd57IhhyCqIcHpM8FvucWnXbSW5FpliwjnCy6es1wzt1wsP0JoKeF+ZKRPrvFZF+XIR4LfhBBCCCGEEEIIIYQQQgghUgt9FGSqfs8VazgGfWoMj2L8KH2IwDb6SMvSl0gfHYP1Gff3excTgdD/k8w+O5LMSFQ63xWrr5o+KM6L18O+GvqA6b+JJ0Oev/+2i3NhhjXOjazt8P8kbiRjth+OSR88swvRPxgL+gw5d75jzp2/oa+N61aWJEL6ILk/SGbjujH840euZPXbcT98w0W2MdevKJwH4+y5Xz/HBofz4d7kM5XWT8rr3Odct1+7uFacG/9nTDHfa6LzGjge14HrVVJyGdeR68X7c478DefPeZXnHuJ43JckSMXzvZQXnpOw/IhVHlS0/OB74DpzHlyrUD9x8Zwmk+jyI9Yzw+f/jovXw4z4sPyIp++X7477ghnjeK7CcoNjJnOEDvcT+Tvxlh+cO/cP5V285QfXjfcgMY+5I3i+uE9ybchf2qCQZKpIJnjgQhWFh62uq5WLgg0oOMlwxaTigRu8uotJTRj7d6eLMamMu6WATlahwucb42LKQW66ovCAMC0hEyRwgwKVC7Lkea00+L6YgYwx30y0sMLFTEn3uu5zMfVmMiomPNRk4k52MeVgLCgIGGJztYvCBANmKley5UPDKw3+hgevu4vzY/pGphRlwn8e+mRABa+NiyFrse4vPhPnzvBDCgOgkOE8/+QqzXR5nXuOcajM57/ZxaQtjCVmLoLLXGEhnCi4/xu6mBeA7PBYMHSI6xWOzuB+ZV+2l7Ww45nl3mOubGYAxMD53pIBlVPuD4Z08b0Whc9Sx0X5Ec6y9VUX5Ud4/c4G3x2G1s/F/AOM02dsNFPAJjvLnlEKo13MeRCr/KDyF5YfnBNQRlJ+xDNRDn/D88t9wXPFeXGOfVwMs0pWUMO9wHd3tvKD7zwsP7j/+Cw8X/GWH1y3v7o4N+bY5zkrdDFdqkgAmA+TxnPjxPpSqTkSkTBcA8MGbqoZrvzgt7ND7ZOhA8yMhFkzxy3zZFOgYHStXbEeikTAlINMUM9Yyli1RGqEnBc3aRjdcSMzBSPRZWlQaHEjc4Pf4urlogL0gOtVF7MLxVM7LSsYCwUhC09QcMSCCIhCH+Olhs3noIJ2q6ukWnZRiKw5L64158XseIwl5polazwxhRmmvc1FQVEUzgUjwtQoOIEhbozfjmdSGQqtX7k4p/0uFjOgoMR8GNvOvZ3oaAfz6utiIZ6Spr+kwOd6hc8gkQ0VJJ6bsmbuXunC4F50MbtVMiojIdxnfIdU6oiKixKr/CDCnO5qFPx2djAN9qes4TvkfgzLD64532dZv5944R7b6sJ8Ypko5QcVLSrJYfnB56H8oMwrDYIDgiLOi3Ni7gjOiXuTiiVzdCcDvi/KDcoPypFYUPEIyw8qu4hnhGeztGl3CcT4PphPgfKe92HBJv5WE7YkCG4ejI2ICqPjd2rONP9Qa6KgpFZLRIrBhhH44y5uMPalEMegY0XOHI+VXYi2KfCJqACzZIUZpjukeTAZ8FARTU11UTBSyPB5MQceRMRNyAPIufLZiLqecmECVGpo5uO1WHC+oSkiHgiiRI5B5M146WTA+1CQUYvlYcK4OC/Oj3PgM1HgcZ5cF64b50JrBw8QtW325ZrGisQ4Lwr6Wi4iAFoswu+A/bkHkhXBcT0wK1plGAOLOYf3GIUBnw1T49xoAmYbRsV5ca0p7Ljnwu+hKJgyxk+Bwn2BiUcT6x6uKHxGvkOuF61MnAvnxOcMnxvOhXPiu+X/3EeYBhUYCkAKUipcZ6sIUrhyDCpotPpscvFd0tJS0j1cUbg+mA0VhXjLDyLwx1y0VIXXtqTyg/PlXo42Z45JhZlVt3hv/jYZ8L3xzFB20VoQXX5w/xctPzhPDJjyg+iytPKD74Qmf76r8Hg8yzzTXDtaTZIBzwCVVO5H7pXo8oNziVV+cP8xVTKrJtLiVVr5wd/z3WD8jV20yDChFRWaZDxjHzh4aJhOkQedmiU1WRahIDLjxsVUKUApcCjwKERoYjnmesZFtM5FoXYWq6DkgmOCLERCLS+MZihgaaqkth6aeaLhJsFAKQD5jDyAnBsRFpEN5855YVA8QNyQRA5vu7hBZ7mo+XLzxQvHYEYhom++r2TAd0jhR8FFwYIJhUvrMaMRDxSG1N5FYUrEwnfPEoNvuWhCxbQ4dx7OolBY8jcUPlTqOEaqwJz47uhq4Punq4PKHU2jFNYULDTfUQmkP5AKIJHpS65XXEy/y/dPc2WsKJPvjnuPyhX3OIVrssGIiWy2u5jXn3uR54bIjOvIM8azxvXiJ020XV1Pu467qFRzHRq4zmZSRLTXuSiMudfDxTs4ZrJatSj0OZ/o8oNzJLoKyw9ascLyg23sV7T84B4rrZsjGipr97iI3OPt+ikrRIfcT7TaMTtkWH4QIdO6QPnRzEX5gbFTIablkvJjr4vvn3uZZykW3IsYXFGolFMR5flLBrwvqwRSflDZjS4/wjKBezC6/GA7y3hGlx90E4atKEUJo3SMnZYLWkooS2XcCYIaMxfhoIsCkpuSh4EbkMKD2cN4nWZuHhYKSy70865HXJg++3FBYhk3DxWRL02sFMTcyNyQPKwUxtxAyWrqopDgJqN2T82c2jAPHjVH+hypkPB/Pgv9bVQ+lrho5qbGy2fG8OLtz6VQpU+M6IM+/WT1v/Ew8HCzjjGtFhgX50B0TBTDXN30Aa+L/KRQoR8OM8TguM58F3z3sZrNuR4UQpw/zXcUTqy8xXdGxS1ZLSTA58FUD7g4Hx54TIsKFdEj9yDnSjcLLRqYMBEK9y9/g2Fwj1HgxLqv+O4olKh80qVBgcx5URkg3yMZYJpE3E+4uK/4TqmQ0KeJ0fGM8Zm5b7iuXC/uO67vcy5atvgeqIwQsZYEzxnnQ4SDWfJ/3iuZxo158Rzz/WPYlB8YHOUH14Vz43XuOf7Pc8Z9VbT8IIHpbMbNeXPdqOjwXfG9UQHgPJPVDcBnouWH1kXuQZ4ZzpHKMhEr5Qf3Id8z5SIGRflC+UE0G5YfsboQSoIyhEoppopZJgOeAe557i8qXNHlB2U0lT9aSSk/MG+CGlpZ2fdlV1h+cC3i6Xb7q4tnl0okXZAy7gRARExUyoNHDYpmPZq7iJJ5qOjXpFaGIdDnyEXnwhKRUviwP4VCrD4gwMwp6LkBaPajJkoBS6HJsanNxTL8RMCDtNvFDcf/iXx4wLiJuFk5PwoYbkK+B2qi9EsTmVL4cW5hc19pcDNyDB5kTIa+0mTdoHzXPNyHXFSoqFjwWTFbKg4k8lD5wgi4plwfonD25bvg4eG7KKnAw/B4KKmwcRweZs6L41FYUmDF88CWB47Lexxx8aDTGkMEwHlwv3FuREEUoFRQ+C7CbhfOj305N+7TWNCagDFS+aTgot8ZA+UcKcyIIBN9P/L9Y7xEmET5NJ9SqaMw5Jx4jWiHSiTbOCeuKZ9rgyvM4i+pgst9xvfE6mgYGpEif893xTNGpTpZ5kZZwfWgdQCTwmAJBqiocC+G5QffLxUIrgvXjfKDlpHSyo8Q8kmoPHLdKat2uiijeP9kPWfkBlBOUeGlIhhdfmDKYfnB7zQdU35QCaH84FqUpfwArhFlK9eQ74a8gGTAM8C1ovzg+6T1saTyg/04b5q9aR3hu+B+Olv5EQ3XhrJXxp1gMBsuHgU6NcwQTJraMxEohSK15jCxgKiLhAMucGlQ2NC/TO2bY1CTwxQxSworCuSzRREVgRuGz875ceMBDxLRMLVkapQ0g3GeFKZARjOFCjdxWeDGJ2Kn8CXiSFb0BhR+NL0SsfDZQzgHmsqJJjkvCn76yXhQeciI3KjJc83PBsfHQChwiRApfPk+MGzMnAeYc+W4iYbrROsI1yA6kYtmVgpF7hmuKT+J4ABjozuE+6s0KER5D+51zoeIjdYIIlOMv6Mr0X2mFHJ0z3C9KAhD6FfkeeC6bHdRObrZBXxG7iVU2ufh+aG5lueRc+L6cf9xb1ApwGxKqshUFIyTCIwCnXIhhO83uvzgvgkTPjFwyg++83jhO+Q6h61JPL8Y5/WuZJ0bkSLN8ZwDFUIIyw8i1LD84DumnxqoUHPv0jpSFjAzIlvuYe4DnrdkdSFSSeI+5H6MLsMpP6hwUHHmvDg/fmd/ynHMnOeMSkq88LxRVsi4EwyFONE0zSQ8GCE8kNyERI+k89NUFBo3tU8iWWqdIRhXmBlL4cGayNzM9CHS1IpRczNTKwX6jWlyom+FpqSy9G/FCzVmIhainDBa4f1pcsOMiLaosND0RqQFRApEYjQjh9BiQJ8xfaycGzXhsCIQwnlS6PNdYqqJLvyj4RwwaAp7Kj4hJG3RlEzFgWtGNEDmLufO5yHPgFaPsM8e4+UaUYOmb56mZ74bol7Ok4xkCpHoZTLDe4Kf7Jfoh5DvlUKZCgMFfAh9aUTEGBkFDvcN5wqYOudFVBf2GVLAEnVyD3BeFPDcZ3wXnHfRz829zb3C8RPd782zQcWVzxidsEjBjAlQEaL/kO+a7x24H3kmiXrChRy47jyXGCR/x/PEM0sFAGPk+LQYUehzH9M3TuWNlcVoAeI7STR8HioefE5aMkKIunkOwvIDMwiNmzKC8oNWj5Ci5QddFxhESeUC9ywthZh3srpu6Hrg89P9Et5XYflBpYPKCuUHhkSXAVAGUH5Q8Q0Jyw/OqaTyg2eSyh33H/dKWFFIBlR0MGTKj+iscsoPynYqD1wzzp0gi0o/r9Fnz9+Effaxyg8qidGBmIw7SWDcFOhcJB7uEB6iDi4efhIlePBC46bApFZJc3MIFxCToPCkhk2US8RL4UvTD/2W0cMbqN1Rg+O9aeoMDT2RUGhjAESg1NiBm5BogBuJgo4aNTdUaNw0v2EMYeQDfG765TEyHlYqMUXHGFM7x7SpiXP8ZJxPCMemMsRnIfoIwQh4gHjwiGioMfPghcZNlMo5hxU0tvO5qYBx/UkWpMDH8HjYMFCGgYXXHTAMrjFmgBEmulmZAo3mOj4L908IRkBlhcKaey/auClIuY58/2GTK5UKriHXnnPGwEjuwiBiQcWAyIrvrKRkovLCe4aZ3nRBhPCe/M4zwDNW1LgxQxQW8hSINKXSjErLCfc258T9SSsFzdXcE7zG8Y66/uGin5b96C5JNBg39wOVnuhkTO4xusfC8oPrEBo35sA1jK74Ux7Qvx+WH1xnKiZhhbsoVFao2HBPh6aZaDBucmR4nkIzovzAqCg/uEe57zDc8DPw/FB+RFf8KVcpPzgnrg9lafQYdkyacod7lFalsKKWLDBuniU+C2V8COUHlT6uFeUHFX9a7ELj5pnDuMMKGteGMhYfoPzgOSMIKno9qKgQKJGchrGLBIBxc0NRwyJKDiFC4YJQmybRgps3fPDYj/2JokPop2K8JjcszX8UFBgANzkRIDcDD0IIDzxGSGFJwZOMZlfMhxuQwo/3A/oWuRmpqVO5oPCjSS807rCPKrqpi4KTG5SCBaOkZhk2jYVQaaFgJuIhIS/RhhYNDx5N+k+6MNewqRAjpYCghYECE1Gz5gHjM9GkycMV3VROVENETUWAKJqHjMxtok4eagoZvscQmpVpKeE1voNkRNy8J4lc0WuGhw8/9yGFaXRTOdEMhRAVwRC+E+4rmsI5L74HKltETuH3FQ3fA/cJBVBZkonigUojTZIME+L+CuHzUNBhurwvz0NYYaTwo+DkGlJohmCI3Js0ddLaggHwnfFscQ3ZRhRFhYvmTq43zynPbkmVlorAc8UzTHlAi1QIFYzo8oMWAcoCoMLF/lTmQ2gNoFAPyw+uPVEo1yusdEfDd4eJ8N7JMjoqtfSlY6hh8zDPEZXh6PKDpvLQrHj+KD+iW1bC8oNzKlp+UHnjfDFF7g0qqMmGyi33COUH5xEGGdz3VMgpP6gUce9h8KFx0zLEdx7dIlW0/KBSVjQpF1/gPqdyEt0qIyoAXzwFMdmC1CL5kikYaB6iKYsLTKYkhX5ovESU1OK52bgheeBKqs1zQ1PIUKjyIFOjoxAmY5Lohlp3MiIB4Cai9stEG9yARI6YNp+FCIiHjM/AzRs+mDyUGDBNYTRJUluOLjiLQlMeNVUKR6KIeCaVqCgYDwUAE2xgYhSYXBMqDVSSKAi4dpgBUQ+VKgptTJ6CnO+AHAYqViW1DPCwUnkjAqJiwzXj+pNMhcFwj7BPouFeoJB/zUVlj8Ieg6Ylg0gTY+Izcc/SukDFATMjWmUb3wXXuWjFKoTPTAHF90VrEOdExYTvk7/nHk104h3GQ6WDbGMSuXhm+D4xcyopPB+0SnEvUjmkEksUxn3K9cXM+R6ocMXbpcR9y/fF98Z5JuNaAZ+J5l3KD747yg+uS9HyA5PjnIFKBBE6la+w/CipaZiWIl6n9YXnEXG9eHYxFp7jWMaeCHhPmr0pPzAm7iueb56x6PKDFqLQzLh+tBhwvUsrPzA4zJwyiooMlXGuFX/Hd1TSd1JRMG5MlvKDigeVrKLlR9gKRwWd7xdRGcS4KUtLKz+ACgv7UbHh2eI+oHLCvUxwICoANTweMoZMEXnT3Igpc9G4SYlaqBnTnMcNBZgxhTkPH1EBBUzYbFkUTIasRfptOCbHpgbOQ8eDzTFjRUCJgJuR9+Gh4POTfERyBYUIn5f35ny5IcMHj2Z7msIpMHkoKYzONo6baJbCigKSgii6eTdZ8LAQ+dJHz4OE0WFcmDLGShRGEyzRCA8hzXz8DdEnDw/XgAcJs+LhKgkKZZr+OA4POH/Hd8cxibSS0VeFafKg0+dLBExBwnWg+Zf+Q5qxefj5HFQCMTL+hgoKkRH3GJEB5xrrvqICQ18jlZgwwkZ8fxTGRO9hc3uioNDjO6Nix/fI9SLxj6ZWKog8YxgDpk4/PvcUf4MJcJ14zng2qVRG9x+eDbq6uHc5PoZTUpNzRaEsoIJA+UGFjgib+4TPzOfl3AgIqOSHFX/+hu4pvnfKD/4murUvGipyZJOH9wHXmL/hPuZ+IKErWa1bmCeRZ1h+cF9RfvDeVCYpP/jsPPs03QNlAS0oYfmBAZbU9cK9RlnDkD+Gx/F98Kzx3XF/hy1KiYbngj54yg+a+vluuXaUH1xLyg+SHfkslBFUPCg/SBbl3Dk37l+eubMFXVTKuG8ZTcE58jPMZI/ufhPlgItCTRiTxgyIaCgYeei4GWmq4gYm+gqbg6i9U5OkYMGQw8kVSnqAKFzph6SmxrHpE6Imzk2erNoy0IRG4c650HTPTUgtmaYqCntqvDwcmG2YwUkNn1ovn49z4wY/W/MVDwGmT3TPcZLdPwVEZESZNCtyDRDNUBRkPCxE2HxmIh+iFQptTJbPRrMW+9EkRnRatFkrGh5WCkbuCwpamruI/rgvEm1uITSZUnkiEuGacc9wzbgvuee497jXODcqhNxzYeWQygpRAybJPRsrGuDvqYhxXdmXfjeuM03pbE9Glw2fDwPje8SYuR/5/sPPyTNGKwCtGBTyfLc8M1xDCkv2pQJF0228zwsFKvvzbNMNFKsSkwioSGDIscoPIjLOjUK6aPnBeXKN+e75G8qHWOUHFS3KCY7HvojrxvfI8ZPZJUUzNp87LD+4XtyLVArPVn4QZcZTflAx5nkiquUa85PrzHOGKXLPJAPuce63sPzgOvC+lAucC+UH1yosP7hefM/R5QffA/8/W/lB2cG+BGh9IuL/nBvXTgghhBBCCCGEEEIIIYQQQgghhBBCCCGEEEIIIYQQQgghhBBCCCGEEEIIIYQQQgghhBBCCCGEEEIIIRLA//zP/wdizJyrUDuArQAAAABJRU5ErkJggg==;" parent="1" vertex="1">
          <mxGeometry x="572.5" y="259.5" width="182.25" height="152" as="geometry" />
        </mxCell>
        <mxCell id="744nSJvXdaSqL4zcJOoP-22" value="" style="shape=image;verticalLabelPosition=bottom;labelBackgroundColor=default;verticalAlign=top;aspect=fixed;imageAspect=0;image=data:image/png,iVBORw0KGgoAAAANSUhEUgAAAe4AAAGdCAYAAADUoZA5AAAAAXNSR0IArs4c6QAAAARnQU1BAACxjwv8YQUAAAAJcEhZcwAAFxEAABcRAcom8z8AAHaNSURBVHhe7Z0HmFTl2f7/4n7pvZmqJiYxMX6phuRLjxoxxQbSOyxLWXoH6UV67yC9o6CCgAiIggUEBIMoCBbsICpgSdTE5//8jnNwXGZ3Z3fnDDPj/buu+9rdM2fPzJnznvd+n+ct5/8JIYQQQgghhBBCCCGEEEIIIYQQQgghhBBCCCGEEEIIIYQQQgghhBBCCCGEEEIIIYQQQgghhBBCCCGEEEKUkU+6/uEqdP2IDUnwKdcfXW1dg12jXMNcvVxNXL92fc4FZ7i+4rrS1dj1PZcQQgghygmmOsN10FWLDaXwDVcN12TXJtdO127X9tjfN7q6uyq7Puqq5LrQNcd1n+vvLiGEEEKUk7NcC1yHXfXZUAJE0e1cm13rXNe7+J+/uS53YejdXH1dNAIweYz7f11LXf90XeUSQgghMpZPu37vaubq6iIaJWX8Zxep6V+4qrgucWFqGCPmV9V1tiueH7iquX7rClPRQLqbqPYy1/+5Pu9KlmQjbs6D49/m2u8a6OI9i3K+61LX71w0Cs50KeIWQgiRFXzWRTRKWvke10Muos6Vrv6uhq5+rtWuRa7ZrvtdGOMqF/3O57lCiG6Jdoe74vuKv+5q4SJyJgrGPJMlWePm/Ua4trqmuX7iov+6NPJc7CvjFkIIkdH8j6u6a7ELo8Zsm7owa34SdTdwzXWRpr7X1cPFa11cS1z0Gbd3YX6AOT/qwjh/yIYY33J1dq1xTXIlioSLI1njps+a49OwIHtAoyQZ+Ow/dcm4hRBCZCxEot90YYiPuIiuv+8KYdAWkTQpciLtF10Y2wUuwPTzXXtd9A2f66KvGKPf5hrjij8efcmtXctcRMXxpl4ayRo3o8h3uO5ykTL/uAv4XET8vF7P1ch1jetXri+6lCoXQgiR8WC89PESod4d+x2Di+djLrYvdO1xtXJhciH0fS93Ea0z8Auzr+si4j0dxn2xi89JFuAPro+4gIia6V9DXTQqnnLtck11sR1I3cu4hRBCZCykkRlEdruLlPd3XEXBpBlkNsuFGTIYLZ5vu8a6VrhIr3PM2q7QuIv2cWP8ROdRGfefXBgyEfdfXPER9zkuDLmji/Nlatgtrr+6gM8q4xZCCJGxMKqb/u21LiLqRMZNpIpx3+Da6Epk3KNdRN30hzOKHGPF/Fjw5LuukK+5iLiZQx2VcZP6vsNFw4FFVorr48bUp7gwagbm0W1AdkDGLYQQImMhGmVKFBE3YnBWUUinY9zzXSxiQt9wPPQLz3Pd6qLP+BMuGgOk3se54lc5ow+8j4uGAsZd3lHlzMMuDo453vVA7GdxjQP6vxk8x6A7GbcQQoisgPQxETEDzx52tXExpzkeomTMnVHnz7kwQwa0hWDSD7pIOWPipNavcGHON7no9w6hzxmDZyAcxh0fjZcGxj3TxRQ0jl8cLHN6tYuom0FzPV2J3ocBavTLk+LneBi3UuVCCCEyHqJu+p1ZYYy+Z1LZLMTCgC0Mm7W7MWei3add611MBWN0NgZJuplR3INcLLACP3ONdG1wTXDRh/xLF9PI6H/mOETj8f3fpUGDgn72V1xDXGQB+JwMRkP0bRMxcz6YPO9FHzaZBMwbc2bRF86LUfKsWc4iLTRE2IZxE53T983SqFo5TQghRMbCymf0T9PPzTxtFi8h6iRiZuEVXsPoWJyFKJUFWO50sUgL/d6sToYxhxD10odM9Mp8boydiJyFV+gLx/zpF2eFtWT5sotBcP91PevCXMOFYhANApYwpZ8eE2YgGg0MPgNpe0aSI86BRsrNLkaYY+L0g5N9YMlTvgM+b0lRvRBCCHHaIaIlsiaaJbpmMBpGWNN1rQvjJs2NkbPACpEqqWsWXsHwwsVXQjBDnubF/3E8frIgClE6g8t4rWhaviSI5umLZqQ6n40+93hh0Bh1fBqfwXdE+71drApHxD7dxSIzrPb2GxdLpAJmz6h3RsSznGs4V10IIYTIWOifZh426WbE7xgmfdMYH8ubMn2MAWvM72Yffi8OotjweOzPvmxD8XPBk4X/Y142x2IQHAo/K+I19okn/n/C/cLPglnHw998LhohRY8jhBBCZA30JzMCmz5hpZCFEMXCusZM2WD5RPrY6DNj0ElpkKJjLicpPlJzzDtNND9VCFE6RMwM/mLKF33FJc2hLgtEtqS1ucdJvbd1tYwTA+ZIZ/OTFPkXXEKIDIfHCdIfxUCZJ10MimEUaUmQ3mIfRqwyHYS5nEQJ3PzMIS2aGhNClAzGzWhsFlNhxHWqIm6OSwOb0ecMNGN+NkuVhmIqF9PGmKY20RX/9DEhRIbCU346uBgss8XFiFCmphQH/VKMJOVZwoxcHeBq7uLxgQxmoRUf/2xgIUTp0Bgm04XJ0pgu+uzt8hJG3IzqpmHNIDci7FBMS2NeOT+ZU62IW4gsgOkfRMksqchqS8zHLGluJaaMsfO4QEaNhg83YMQrDzVgKkpZ5o0KIYQQogzQIqe1jyH3cpVm3EQCRNss+FDHFbbQv+Ri3inzNuPnmhYH78mIU0aiks7jJ38T0UvSh1HxI6zpbkq0T3kUf9zSCEd7S5JUMeFn3E+RgnEnE3GzRjGLOtC/zfSVcBWnz7jYTtTNSlAYcXFwUiwKgfEz95PVoAb/z//8z4jPfOYzI7/85S+PPOuss0Z+6UtfkiRJkqQSFXqGewhjOUrUmWeemXA7+uhHPxoch+Mlep/SxP997WtfG/m5z32Oz8Jyw3Q/RWrePOSehSBKM24WTGAQCwtD0D9OtAyMMmdlJ0bFsugDqzoVB6Z+kauzi4cPYPZ3feELX3jr97//vTVq1MgaN25sDRs2lCRJkqQSFXrGtddea5dddpldfPHFdumll56in/zkJ3b++efbb37zmw9sZ3/+r3r16sFxOF6i9ylN/F+TJk3sqquusq985Stvu68NdpUUxFaY8hg3A2nKY9yk7tif6WM/cf28UqVKLS+44IKjI0eOtAMHDkiSJElSmbRv3z7bs2dPQj300EM2cODAwFhXrFiRcB/+P9Fxy6KDBw/amjVr7Je//OUx97brXKTMIyNZ4yZVzpSVklLll7jK1MrIy8u76Ne//vU+vlAhhBAi1SxevNh69eplhw4dim2JhqefftqqVKnyuFsby/pGatwsa8jTfVa74h8RWBQGp3VxEXXzyD4MH8LBaTzkgDR4mXDj/uNFF1302MKFC2OnLoQQQqSOWbNmWZcuXezhhx+ObYmGRx55xC655BLWRWGqdVqMe42rJOMmxc3iEEwHo/M9fPIQKe9wOlhZnv8bcOaZZ/4Z454/f37s1IUQQojU8N///tduuOEG69y5c5A2jxIaBhdffHGkxo3J8kADBord5XreRT81TzD6hetHsZ8/dbFABCPCwylhTP1i4RYWcGBONwuwsBhLmRdgkXELIYSIilwzbvqjWfJ0i+uAi2fw7nPxaL6GLvq7+clj+HgAPjDHlCVPeW4vz/zlQfosecqqaayqVuYlT2XcQohs4d1337V//etf9tZbb8W2iEwn14ybVdNIjTOnum7sJw8cYf4Zq6GxCho/GU1OP3YIKXP6snm4SCMXq6mx+lq5kHELIbKFF1980TZs2GBbt24NDFxkPrlm3BmBjFsIkQ28/vrrtmnTJuvbt6+NGTMmmEL09ttvx14VmYqMOwJk3EKIbIARw+PGjQvmAxcWFtqyZcuCCFxkNjLuCJBxCyEynf/85z+2du1aa9WqlVWrVi1Yqatfv362d+/e2B4iU5FxR4CMWwiRybzzzjv2zDPP2NSpU6127dp2zTXXBEtbtmzZ0lavXh2k0Bm0JjITGXcEyLiFEJnMK6+8EkTbPXr0sFq1agXRNlE3a1uPGjXKdu7cqb7uDEbGHQEybiFEJvPkk0/a8OHDrW7duoFxo5o1awbRd35+vi1atMjeeOON2N4i05BxR4CMWwiRyfDwCEaSE2Vj2KF516hRw+rUqWMzZ84M0uUiM5FxR4CMWwiRyTz33HNBxd+8efMgysa8Me369esHZkA/t+Z0Zy4y7giQcQshMhnS4Dt27LAhQ4YEpl21alW7+uqrrWnTpjZ79mx76qmnglHnIjORcUeAjFsIkekcP3486Mtu0KBBMKoc4+7QoYPde++9GlGe4ci4I0DGLYTIBu65556TI8tJk7MYyxNPPBF7VWQqMu4IkHELIbIB+rqJulu3bh0Y+F133RVE4iKzkXFHgIxbCJENYAB79uyxKVOm2OLFi+3w4cNKk2cBMu4IkHELIbIFpn099thjdujQocAQROYj444AGbcQQoiokHFHgIxbCCFEVMi4I0DGLYQQIipk3BEg4xZCCBEVMu4IkHELIYSIChl3BMi4hRBCREWuGvcZrs+7znOd7zrb9WlXJVdx8NoXXd92fdf1HdeXXCX9T0Jk3EIIIaIiF40b0/6Wq6lrsWuta6KruuurruLA3Fu55rr4v3mxv7/pKhMybiGEEFGRi8b9BVczFwa8xLXIdZNrtuuvrjxXUTD6Bq7prqWxn/z/WNe1rq+7kkbGLYQQIipyzbiJtn/iWubCeH/mIt1d37XSdZ3rGy72i+caF8Y+yPVb11muC1ztXZNcV7iSJi8v7/du3Ptl3EIIIVJNrhn3J1x/d93mGuYK+6d/6iJ6HuW6xMV+8bR1bXC1cMV/sNquu10dg7+SxI27srNvwYIFsVMXQgghUkOuGTd92KS857jauELjZsBZc9cYV76LKDwe9t3oKnR9jA0xWroOuga7ihukdqaLCP0Xrstcf6tUqVL3H/3oR8/xQHohhBAileSacTOKHIOe4mriCs2W9Hhd1zgX6W+MNp6qLgajDXf9xvUZF6PKGdT2govo/aOuRHzEVdnV00X/OCn5e84555zXp02bFjt1IYQQIjXkmnEz9YuR4BgukTfRMHzNVdM13tXZVXR0+bmuhq6pLvrGr3dhxKtdfOA+rvhIPB4Gu/H/DHxjUBxR+9jzzz//8MyZM2OnLoQQQqSGXDNuUuIFrmkupoPFR9z1XETc7VxFI25g2hfROpH3fFdfFwPW9ri6uZL+wBqcJoQQIipyzbi/4iIljvEyoCw0bhZUae0a7SKyZnGWojDSnP9nNPmFLlLlDFrb5iJKLzoSvVjcuH9TuXLl/RqcJoQQItXkmnGTzmaAGIuuMBAtnLP9SxdzsxlV/ms2FCHR3G4GsGHYK1xE60mjedxCCCGiIteMG4iY6adm4ZUqrh+7iJxXuXhjFlP5sot0+SddROWfcpFm/6HrRy7mfxOhh33iTCdLGhm3EEKIqMhF42ZEeA3XDNftLuZnM697govR3/R3sxoaKXNMnSidNcrZxmj0dS5M/hYXg9LYp+i87xKRcQshhIiKXDRuIKJmiheD0RhghgFf6sKAMenLXVe7GIXONC8eQHKxi/1muhiV3t31e1eZP6iMWwghRFTkqnEDb4Ahf9ZFSjzsx2aQGWaN2MbfiPnYpMzZn6gdk0/U910qMm4hhBBRkcvGfdqQcQshhIgKGXcEyLiFEEJEhYw7AmTcQgghokLGHQEybiGEEFEh444AGbcQQoiokHFHgIxbCCFEVMi4I0DGLYQQIipk3BEg4xZCCBEVMu4IkHELIYSIChl3BMi4hRBCRIWMOwJk3EIIIaJCxh0BMm4hhBBRIeOOABm3EEKIqJBxR4CMWwghRFTIuCNAxi2EECIqZNwRIOMWQggRFTLuCJBxCyGEiAoZdwTIuIUQQkSFjDsCZNxCCCGiQsYdATJuIYQQUZGrxv0p1x9cnV39Xfmui1yfdBXHZ11/cbV1dXF1d9Vwneuq5EoaGXfyHDlyxFatWhUUQr6vBQsWBFq0aJGtWLEiEL+H20PNmTPH5s2bZw8++KC9++67saMJIUTuk4vG/XHXJa7Rrk2uba7bXINcP3ed4SrKJ1x/dI1x3eFa49rgWuhq4fqOK2lk3MnzxBNP2LBhw6ygoMDat29vHTt2DNSuXTtr1KiRNW7cOPg93B6qsLDQ2rZtaytXrgwKsRBCfFjIRePGZMe7Fruauq5yEXWvdGHCn3EVpbKrj4v/a++63HWFa5TrFlcdV9K4cf9Jxp0cJ06cCAreli1b7P7777etW7cGWrt2rbVu3Tow7fXr15/cHuree++1++67zw4dOqSIWwjxoSLXjJuD/sm11jXJRSQNv3PNdw13/cz1EVc817qIroe6zmdDjJau3S7S5kmTl5f3y8qVK+8jpSvKx2uvvWaDBw8OovF///vfsa1CCCFyzbi/4KrpItru5gr7pjFj+q1Jn9d2fd4VD6l10uTjXFVd33B939XTdaOrpIib1PtHXfSRf9l1lkfcVX/2s589Th+sKB8vvfSSDRw40IYMGWLHjx+PbRVCCJFrxn2Oi4Fo013NXGF/9jdd9V1jXW1cX3HFg+GSUp/loo/7Ztd6V5huP9tVHJzIj13NXZj/FNct3/nOd45Nnz49duqirLz44os2YMAAu/766+3ll1+ObRVCCJFrxk2UTHp7oquB60wXfM1Vy0UfdifXV13xEDH/xjXNtcXF4DR+rnAVuGgQFAcn8lNXoYv0/EzX6nPPPfe4jLv8yLiFECIxuWbc33UxAG2yq5ErTJV/3UW6m1Q4b36WKx4iZiLxAS4MntQ6I9D7uYi+aQQkGo0ObGck+5dcRPbfqlSpUo2f/vSnT8ydOzd26qKsyLiFECIxuWbc9E03dpHyJvIOjZuIuYmLVDbbSY3HU9e1wEW6m77qEPrDt7oYlf4xNiSDBqdVHBm3EEIkJteM+9Ouq11M4SJ6DqPkC12DXQxO+5uL1Hg8HV13u0iLh+l1qOZiHjj/G45QLxVNB6s4Mm4hhEhMrhk3ETZzspmzTdQdDiq70kV/NZHzea54cwbS6qtcmP0PXRyHD0j6fIeL6WBF/6dYtABLxZFxCyFEYnLNuIGBZxgtI8IZjDbMNce11EU0zkC137tY3hQTZ073j1z8D3O9GaDGYiyY+NzY35e6kkbGXXFk3EIIkZhcNO481wUu5m3f7rrftchFGhxTx7gZqMa0sV+4GFgGLMwy0EXkzahy/pfpY5e54vu9S0XGXXFk3EIIkZhcNG7g4N92sYpaFRfpc0aWkwJnkBkPDmEEOgu2hClwtjOanGj8z66LXf/rot+8TMi4K46MWwghEpOrxn1akXFXHBm3EEIkRsYdATLuiiPjFkKIxMi4I0DGXXFk3EIIkRgZdwTIuCuOjFsIIRIj444AGXfFkXELIURiZNwRIOOuODJuIYRIjIw7AmTcFUfGLYQQiZFxR4CMu+LIuIUQIjEy7giQcVccGbcQQiRGxh0BMu6KI+MWQojEyLgjQMZdcWTcQgiRGBl3BMi4K46MWwghEiPjjgAZd8WRcQshRGJk3BEg4644Mm4hhEiMjDsCZNwVR8YthBCJkXFHgIy74si4hRAiMTLuCJBxVxwZtxBCJEbGHQEy7ooj4xZCiMTksnFXcn3M9XHXR2J/Fwevsc9HXfwP4nfE9jNdSSPjrjgybiGESEyuGvfnXX93DXVNcXVz/dH1WVcivu9q6Orr4n+udw10jYn9/QdX0si4K46MWwghEpOLxv0p11Wuya47XHe7bnNhwr9xJYq8f+rq6ZrnWu66ybXOdSimlq6kkXFXHBm3EEIkJheN+3zXDa6FLgz8V65OrlWu9q4vuIryGdd3XD92/cxV2dXctczF/1V3JY2Mu+LIuIUQIjG5Ztz0SV/qWusa56J/GjDvma4Rsd/pwy6NGq5Jru4uDD1pZNwVR8YthBCJyTXj/rKrjotomyg7TIt/z9XONdpV35Uo6o6HPnJS67e6qro+50qavLy831auXHm/jLv8yLizk3/96192/Phxe+utt2JbRKbzn//8x06cOGFvvPFGbIvIdHLNuL/tauaa5sp3hcb9TVc9F1F4W9dZrpIg3b7CtdpF/3dJI9JPITTuBQsWxE5dlBUZd/bxzjvv2Pbt2+3mm2+2Rx99NLZVZDrPPPOMrVq1yu666y57/fXXY1tFJpNrxo3htnJNdDVwhdO4vuaq5RrvIhL/qqs4Pu36m+tmFw2Ab7hKgvc423WJi2i+6RlnnDHs/PPPf3HmzJmxUxdlRcadXRC1PfnkkzZ16lTr0qWLLVmyxA4fPmzvvvtubA+RiZAdWbdunfXo0cOGDRtme/bssX//+9+xV0WmkmvGfZ6LQWVMAWvsCiNlzJcUOhE3b15SxP0jVw8XfeIcq7Q0Of3oDGa7zsVgNkaw33v22We/Pm3atNipi7Ii484uMIDbbrvNOnToYPXr17devXrZ5s2b7e23347tITIRKv0RI0ZYo0aNrHnz5kb33vPPPx97VWQquWbcRNbMx57tau0KjTtModNvXeD6kqs4/upa7BrpwpBL+6BE3F93MdXsalf1SpUq9b3ggguenzVrVuzURVmRcWcXpFtHjRplNWvWtKpVqwbmPXv2bDt27FhsD5Fp0KgiRY5hc82qVasWNLiiNgJRcXLNuD/pusLFFK4hrjNc8BPXKBeD00hp57kSwf4Y+30uRpMzSK3M5OXl/bpy5cr71MddfmTc2QP9okTXVCJXXXVVYAJo4MCBQaXCgDWRWWDaTzzxhE2cONFq1apl11xzTXDtMPFbbrnFXn31VXVzZDC5ZtwY789dLKIy13WBizna9G8zQryX6xxXuKQpBh6aOz9JoQ9wYdxE7uFrZcKN+3caVV4xZNzZw969ewMDaNasmV177bVWvXr1QK1bt7a5c+faoUOHYnuKTOHo0aN26623BuMRMG6uF9eOlPmQIUNs69atmhmQweSacQNTwkiTL3CxEtosF33P/F7FRTr9MhdpbYydtczhE67LXfRtkyonMi8XmsddcWTc2QODm1q1ahWkyTGBUPyNMTzwwAOxPUWmQLTNvVX0evET86bu0vSwzCUXjZs+Z/q0WaaUyHuja7qLwWlfdBFVsxIaETXROYYNLJXKaPLOLkaks5JauZBxVxwZd/awevXqk9E2FX/t2rWDn/zdvn17u//++2N7ikzh4MGD1r9//5PXLBTmXbdu3WB8gqaGZS65aNyAeRN5M0KcedjfddFfTeqbN/6KiylhTP0Kp4zxk4VZiMjZN1x1rczIuCuOjDt72LFjR3CdGjdubDVq1AiEARQUFNj48eNt//79sT1FpsD9Rf1EdwYNLa4Z6fIGDRpYz549bf369ZoWluEw3Rjj/uc//xnbEg3pNO7Tioy74si4swf6S9esWWPt2rWzq6++OhidzOA0Rijfc889wVQxkVm8+eabQYXPVDAaWVwvrl1+fr4tXLjQnnvuuSCqE5nLvHnzrGvXrnbgwIHYlmiQcYukkXFnF1QegwcPPmnapF2nTJkSLMIiMhP6sJctWxb0aTOqHBHBbdu2LbaHSAcsN/vss88GCxgx9oCfpenxxx+3kSNHWmFhod1+++0J94lXeFwaZK+99lrsnZNDxi2SRsadXbzyyiu2ePFia9GiRZB6ZSGWtWvXKt2a4TB6vG/fvkG/NgY+efJkzQJII2Q17r777mAkP6vXXXfddUGmqjSxH+NK6tWrF9xrifaJF/tz/KFDhwZZsLJM9ZNxi6SRcWcXTB3iBg+jgBkzZgQtfKVbMxsyIjfddFMwiLBPnz523333lTkiE+WH9f0ZCEiGCiMm49GxY8ekxFiE3r17B+nyRK/Hi+M2bdo0aFSzvkhZ7ksZt0gaGXf2Qep1w4YNgWkzBYz1y0XmQxqVfm2WrJVppxcWwpk+fXowtmDSpEnBNVixYoUtX768VPEwHxbLKW1/Xue4DBTlfWgolOXelHGLpJFxZydcq6eeeirotxPZAwMMdc3ST2jcrFiHoZI2v+OOO4K1EVIljsdxmT4Wvo+MOwEy7ooj4xYitZAWpwJn3j2VeSge58njWOnvJmMSbmfQE/vu3LkzGIUuUg/GTYYKQ8XA+d6JjllDPlXieByXwaK8z5w5c2TciZBxVxwZtxCphelf9GOTLmXqHv3aiN8Zl8Cc7nAb4m/6XanwicgzEQyIhWKYckjGoKhI/dOFwz7x29kfne7BkzLuDELGXXFk3EKklhdeeCFYWIV+z/iKnRQqI8oxa/pDw+2sZc7fROKZuvwp05tI/VJXDB8+PBgcGa9x48YFI+X5Gb+deoUR1mQbTucAShl3BiHjrjgybiHSA2MSGKHMg2Ky7YlgTF2bMGFCMHKaaU+Mso4XmQQWmGnZsuUHtnfr1i2YHkV3gIy7ZGTcImlk3EKkB6bthcadbdP3SHWTSaDx8fTTT58i1hZg6V3MKn47ho9O9+NLZdwZhIy74si4hUgPjz32WBB9Ml0o156dvmXLliAaZ3R1JiLjziBk3BVHxi1Eeshl42aUPH33GFgmIuPOIGTcFUfGLUR6yGXjZjAexr1y5crYlsxCxp1BpNq4uZlI+fCFc0xWOYrXkiVLTo4AXbRo0cnt7MuIy02bNmXds3Vzwbh58MbSpUuDaxB/vXiwA9eL0b3x20Ox/4033hisaCVE1Mi4Tx8y7gwi1cbNvEMqcx7g0KZNm2BR+Xgx37Jhw4bBWrTx29u2bXuyQGSb+eWCcbPuM6NXuQbx14WRrlwv5sjGbw/F/jwUgEUxhIgaGffpQ8adQaTauLm4+/fvD6Lue++9NzCEePGQAEyAm4+VkcLt7Lt582Z75JFHsu4pTblg3JwDj0jkGsRfr7lz51rjxo2D84vfHor9Wev7yJEjsSMJER0y7tOHjDuDSHcf9zPPPBNM55g6dWpsS/aTy33c3AhdunQJujWEON3IuE8fMu4MIt3GzUPVufF4ukxZLkgmk8vGvWvXruAxe+kqH0KUhIz79CHjziDSbdzceN27dw8WUMi2lHhx5LJx79ixwzp16hSkzIU43ci4Tx8y7g/yEdcPXFe4argudp3rYntJfNz1Q9ffXdVc/3D9zvVVV9LIuCuOjFuI9CDjPn3IuN+HA//E1cu1wbXddZOrnet7ruLA1H/p6uNa49rsWu0a6/qtK2lk3BVHxi1EepBxnz5k3O/zdRfmu8h1vauna6oL867j+pgrEee5BrgWuPq5Orv4oE1cF7iSRsZdcWTcQqQHGffpQ8b9Hme6fu26zTXDFaa4L3dh3INc33exXzyfc1V1YdqY/idcIXzQ0lLsHyAvL+//KleuvG/BggWxU48WGXd2IePOXLh/Dh48aDt37rTdu3fbQw89FIhnWT/66KO2b98+27Nnz8ntiH15jfUWshEZ9+lDxv0en3VhwMtdfV2VXPAjV3/XaNdVrs+44qns6u0a7qJf+wxXuVHEXXFk3OJ0cPjw4eD5zTwGkodTMPo/VNeuXQMxlS/cxnVk38GDBwemno3IuE8fMu73+KaL1PZMVwtXaNxnuxq56K9u5fqyKx7MfLprsIv/oz+8h4uBbfxvSUae5/qu6xoXJ9bNNfV73/veSzygPh3IuLMLGXfmcuzYsaCi416iIuUeRlR6LHJUr149GzVq1MntiH1Zdpj1FLIRGffpQ8b9Hgw+w3gnuRq6wpQ4/d61XeNcHV1nueJhBPmNLvrFp7iWuFa5ZrtaupIZ1Nbdxf/f4tp8zjnnvDZt2rTYqUeLjDu7kHFnNjyfmedSx4s0+MiRI4OFjlhDvujrp/OZzhVFxn36kHG/B/3XGO1EV7xxf81VyzXe1clVdHoXxr3WdZeLgWmXuv7kok98pauZi8g6EUT1X3SRjmf0+R8rVarU7sILL3yG9cXTQS4aNynL0LhfeeWV2NbcQMadfWDO48aNsz59+gSNylxCxn36kHG/B2ntfBcD0wpcYar8W64GLlLlrV1fccVDv/gK1zLX1WyIwXbMfKiL/0mq7zsvL++XGpxWMV577bWg33D48OH21ltvxbbmBjLu7IOn640ePdp69eplTz31VGxrbiDjPn3IuN/j867qLgyYaWChcbMYC33WDE671vUpVzyXuUijD3H9ng0xWLgFQx/m+o6r6Gj0hLhx/+Giiy7ar8Fp70MBJd141KPnIy+/p5dK0CP79lvPXr2td7/+9tjjTyTcp6jCY77y6qv25ptvZGz6Usadfci4sxMZd3YYN+nsP7hIezN3+9MuIO1N/zORMyntorBaWhvXKBdRdgiD1sKImwFtSUXcGlV+Ko89tt/mzJ5t1w8bboOGjQw0eHjx6j1wsNVvkm8NmhZY30FDEu5TVAOHjfDjjrBRXsGuX7fO3sjQZ5DLuLMPGXd2IuPODuMGljbFgBlg1t5FipxpXgwaY2Q5/dssqMLqavR980GYHkakTUROP3g9F4u1jHDxf41dxfVxn4KM+1Q2btpkLfKbWkG1f1jfJjWtj6t3CeqbX9sGt2oYqE/TWgn3Kap+TWta1/rVrF7VK2zEiJH20tHMHNQm484+ZNzZiYw7e4ybldEwYdLbRMs7XIwQZwlURod/w4UxN3cxf5vFVoikGWBG/ziR+XrXFtdCF4PdmO6VNDLuU1m1br21ym9ss9vUtidGt7UDo9raoyPaFKt9I32fMR0CPeq/J9onXvtch8a2s20Dm1v3+lWt/+Ah9sKRl2LvnlnIuLMPGXd2IuPOHuMGzPhXLgaoMf2LEeUXuoiaSZ9f5Po/F4PZ4ldFw6CvdDGljNQ5qXIi+KT6tkNk3Kdyqxt324Kmtqp7I/vvrO729szu9vqMbinTGy6b08OeHdfeBuZ79H39UHtexi1ShIw7O5FxZ5dxn1Zk3Key6o4N1rZ5vt3UpaGdmNbVXp3a1Y5M7pIyveTCvInkSZkPGDJMEXdEMDXq0KFD9sADDwTifEKxBCg3Os8cj9++bdu24Ge2TqWScWcnMm4Zd9LIuE8l3riPu3G/4sZ92M02VcK8ibwfk3FHDpXN8uXLrU2bNoE4l1AsExoqfnurVq2CJUI3bdoUO0p2IePOTmTcMu6kkXGfioz7fbLduLnpt27dajNnzgzEeYRiLe+aNWta//79P7CdpUG5H6gEshEZd3Yi45ZxJ42M+1Rk3O+T7cZdEjfeeKO1a9fO7r777tiW3EDGnZ3IuGXcSSPjPhUZ9/vksnHffPPN1qFDB7v//vtjW3KDXDbuAwcOnDTuTK0/youMW8adNDLuU5Fxv0+uR9xUlIq4s4dnn302OC8q9lxDxi3jThoZ96nIuN9Hxp19ZINx/+c/79iJE8ftsJf75184mrTuu3+7te/Q1a4fMtKefOq5hPsk0gsvHrWjR4/aG2+8nrHLC8u4ZdxJI+M+FRn3+8i4s49sMO4jRw7bTTcuscGDh1i/AcNcw63/wNLVrXtfq1OvqTVpWmh9+w9NuE9R9fVj9xswxEaNGunX+k43oMx8EJCMW8adNDLuU5Fxv4+MO/vIBuM+cOBx69G9mzWofbH17vQXG9DtMuvbpUqpGtD9bzas7zU2pPdV1q/r5Qn3KaoB3S+zzoWXWL3af7cpU6d71P1m7FNkFjJuGXfSpNu4H3/cb9gePWzy5MlluiDpRMb9PjLu7CMbjHvvIwetc+duNrjHn+3hOy61J7f8xR7deFmp2ndnFXvsrr8GSvR6Ue278zJ7+t6/2J1LLrb2Lf9mo8dOsxOvZaZx33nnncFgScwrE5FxZxDpNm4Gl/Ts2dOmTp0a25J5yLjfR8adfWSDcT+893Hr0qW7jRt4ib384GX21v4qduyfl6dcx/dcbv89UCVoHHRv9w8bNWZ6xhr35s2bg8WA1q1bF9uSWci4M4jyGjdzKJ948knb/eCDtuuBHe9pe+lafctKa9uy0Ab06WsP3Hd/wn1OKjzuzgftoEfqb7zxRuzdo0XG/T4y7uyDwVfjxo2zPn362OHDh2NbM4u9jzxuXbv2sFH9LrWn76tir+6+3J7b9teU6/kH/mon3MC3r/qLdW17hY0ZNyNy4z5+/Ljt37/ftu/YaVu9/kLbHthZqqZOm2GNmzazcRMmJXw9Xlu3cUyvG3fvtmefecbeeeed2LtHh4w7gyivcRM5T5w0yQpbF1qbtm2tbbt21s4rwdLUqrDQ6jdsYI2bNCn1f3idY7fy9xgzbqw96Q2FdCDjfh8Z9+kFE6bieucd19vJ6dix4zZyxCjr2fM6e/zgEwn3KU68F+u7R01R434lQuM+nmbj3r1rlw0ePMhae13X3usw1MHLWWlq4UbVoEF9a15QkPD1eHHMtm3a+O/tbOGC+X7Nj8XePTpk3BlEeY37sX37ggr98rrVrWavDla7fxer3bdTqao3oKvlD+9jTYb0sjp9Oyfc56T8mLX6dLTL69cIDHzPQw/F3j1aZNzvI+M+fbz11lv+/W+3BQsW2szpc+2GafNs1vT5pWra5FlW2KK9NW3UwsaOmpRwn6Ka6ceeOX2ezZk9z7+PTXb8RLRGkMvGfcf6DZbftLF1aFHXJg/tZJOGdLQJgzuUqmkjutnscb1t2sjuCV+P19RhnW1470JrVKeaDRw4yA4fPhJ79+iQcWcQ5TbuvY9a1y5drEb3NtZu9RzrdOci67B2XqnqeDua/54SvB6vThsXWXv/ScOgfYcOtufBXbF3jxYZ9/vIuE8fr732mk2bNs1q16tuDZpVtfw2NSy/dU3LLyxFvk/zdnVcdf33Won3KarWNaxxy+pWo85VNmjQQHvm6adjnyIactm4V6+9w1q3am7zxvW05x6Yb89snWuP3zO7VD2B7p0T/Ez0erxe3LHAdq2dbL06NrP+AwbZCy9G3yUi484gym3cj7xn3DV7trMO6+Zb57uXWqf1C1OqzncttY7+k6j7PePeHXv3aJFxv8/OnTsD4543b15sS+6Q6cZ9/NUTNnL4GKub/w/rN+NaG7eyro28qY6NvLE01bXxtzSy8bc2tlE31Uvw+qkae0tdG7KwljVs81fr1q2HPX4w2m6pXDfuNoUtbOHEXnb4wUX2wvYFduj+uSnV0d2Lbc/6qdanc3MZdxwy7lLAuLvxdKXuba39bbOt04aF1nHN3JQK8+7gP2t5xN2hY0fbs0vGnW4eeeQR6+INtMWLF8e25A7ZYNyjho2zgo5VbdqdDe3mA81tyT8LbMlDqdeK/c1t/vam1rbvNdaj+3V28LFoR6PnsnGvuX19YNxzPeJ+eus8e+q+OXZg86yUikh+55pJ1qtTgQ0YOFjGHUPGXQoy7vLrdBo3U4UYafzcc8/ac88+4z9L1rp1t1ub1oU2ceKEhK8nVHDcZ+2Iv0+6ZgKUh2ww7tEjxluz9tVs0toGtnRPgZtrM5v/QOqFec+6p4m17n2N9ezRyx4/IOMuL7lu3C1atAgekcu889tvv93Wrl2bMnE8jkvDgPeRcReDjPtU4o37hBv3q27cmG2q9JLrDTfuA2k2bkYLb9lyj40YPsL69u1j/fv1sQH9+5aozp07Wv16da1li+YJX08kjtvPjz969KjgyVuZujZ0Nhn3xDUNAnOdt62Zzduaei3eVWAzN7tx95JxVxQZd/kl404SGfeprHTjbufGvap7I/vvrO729szuQYScKmHaNqeHPTuuvQ1qVsv6p8m4mes5e/Zsq16jttVp0MKaFXa3/JZdXV2KVfM2Paxt535W2L53wtdPVdfguLXqF1it2nVt0aKFGWvct956a7DgxbZt22JbMgsZd8Ul404d1B+zZs2yBg0aBMtWjxo1yoYPH27Dhg1LmTgex+3q3tKwYUPDl8oyPTHdxv1J11dd33B9yfVx1xmuRJzp+oTriy7+52sxfdn1aVeeK2lk3Kdy2/oN1qYg3+a2r29Pje9kj4/rZPvGdEyZ9ruentDZtl9faD0b1bCBbtwvpsG4ebjCjOlTrH6j5tZ7yBybMHezjblhvY2ecUexGjNzvY2bvdHGztqQ8PWiGnPDhuC4PQbOsAaNC2zunFmRzwsmEjhx4oS98uordvTVl+1l/5mM5sybG6wRcNua1QlfL06vHHs16HKIetGLD4NxjxlwqT2/rYqdeLiKHd7x15TryM6/2huPVLFda/5i3drJuCsCkS+zS2rWrGl169a1goICa9asWcrFcevUqWO1atXyhv+iMjX802ncZ7lqu2a4bnINc/3DhYEnAoP+u2u4a4HrhpgGua52YeJJI+M+lQ133mnNmja15rWq2sBWjW2Aq18K1d81sLCx9civa3WrXW3DvJX50ktHY+8eHe8Z92RrnN/arh+/wmbf/LBNX7rDpi3ZnjJNX7ozOO6A0Uv9fVqlxbgf3vOwzZo504aNHG5DRnnLffSIpNS6Q1urVb+Ode7eJeHrRTV0FMcfbsNHjrBFCxfZU09Ga24fBuMeN+hSe+nBy+zf+6rYqw9dnnKx7Ok7j1WxPXdcaj3aX2Gjx8q4y0sYcRMJs5zu+PHjg6V1Uy2Oy/MsGjVqlLER92dd9VwzXbe6VsZ+TnNd4iK6Lsp3XV1d97t2uRa55rkw8mqur7uSRsZ9Ku8ZdxPLr3mN9WnZyHq3aGS9Uqy+ftwuTepY7apXuXGPsJeOpse4b5gx1Q210AaOXhKY9uQF99ik+VtSpskL7g2O23f4/MC4582dHblx37pqpTVt0NgKajSy7k3aW7cm7axb47alqlfzTta3VTfr2axjwtdPlR/Xj924Wl1r3bLQ7rv/vtgniIZcNu59+x4Ppp11bl3FVtxwha2Zf6XdOvuq1GvOVXb7witt1pi/WYumV9qEidPttddl3OUhvo8bA7/rrruCddXpl06VOB7HDd8nU/u4L3QtdM13/d71bVcz1yoX5kw0XpTzXe1cc1xdXOe5MGv2pSFQpg+bl5f3Bzfu/TLu91m9foO1Lsi32e3q2cGx76W2947qkDI94npifCe7f3Ar60GqfGj6UuW5aNyLb1pqLRrm25yOo2336DX2wIhbbevwm0vVA6NW2o4xt9kDI1cmfL2odoxcZTtH3mZjW/azVs1b2Ma7N8U+QTTksnEfOHAw6Ce9turf/Lusbm1b1bQ2LaMRx27a6GqrUf1qmzp1mr3xpoy7PMQb9w033GAbN24MBpStWbMmZeJ4HJeFhzLVuOnHvty12jXSFUbXP3dNco1y/dHFfvH8wNXKNcJFyrxCuHH/snLlyvsWLFgQO/Xk+DAMTrstbnAaA8pSpTddDE57bnx6B6flqnEvvGmxtWna0tb0nWvH5jxkh294wJ6bsTXlemnmTjs660Gb33msG0Khbbj7ztgniIacjrj3vxdxty6oYjPHXGULJl1ts8ddk3LNGX+NLZx8tY0Z+HfLb3SVTZw03V5XxF0uQuP+sM/jJkKu7yLNTQRdyQVE0C1do11NXAxCi4eIu6PrRtcY119cF7m+6QqPURy8/gXXBa7fuH5fqVKlthdeeOEzjDYuC7ls3OF0sOU5Nh3sPeOeYk2a0ce93Gat2GPTlzxgUxdvS5mmL9keHHfAqCX+PoXpibiXLw2M+5ZeM+z5GdvsySlb7ODku1OuQ1Pvtaen3WczO470KK61bdysiLu8xA9Oe+GBy+y1h6vYkZ2Xp1wvPXi5vZnmwWmr3bjbunEvmtTbjjy4KFieFANPpV5+aLE9vGGa9e3SXMYdRzqM+zuuAtdUFwYdmi4jy+u6xrnau4qmy0mn86E2ux51rXUxSK21i/7vkviI65eubi76xm92bT7nnHNeIzVRFj4Mxp1rC7B8MOJe7JHxdo+QiZQ3p0xE8Bw3ranymHHf7MZNZPzElM12YPJdKddTU++xQ9PuPS3GHSzA8s+C9xZMcfNOtZbsLrBZW9y407wAy1g37he3X2Zv7K0SmGyqdXTX5fbvR6vY7rU8jzv9o8oP3T/Pnrx3jj1296yU6tlt823HakXcRUmHcRM5k/Ke6GrgClPljAqv6Rrv6uxiylc8jCpn4BofbKCrv4vU+nQXRk80XRxMFfuei0FsHLuna8Z3v/vdo/RZlAUZd/l1uoz7nXfettmzZlrtOvWtoLCrdb5umHXqcb117J46cTyOm9+ik9Wt18AWLlgQ+TzunDbu4eOteadqkS95ujy25Gm7fuk17lycx71h453WvKCZtW/VyCYM7W7jh3SzsYO7plQTh3W3IX3aW+P6tez664fYkbQ0/GXcUN6I+2Mu5muHfd98OPrFGVV+h6uxqzSYIx7ozDPPvFijyj9I7hr3O8GNUL1GTatdt6E1LSi0ps1apV5+3Jq161utWrXLPA+zPOSscR87YWNGjbdGLava9XPr2ZTbm9qElU1swq2p15Q1TW30jQ2tWcer7bqeveyJgzLu8nLnpk3WLD/f6tS61toVNvOykp9ycdwW+Q3t2mrX2NChQ9M0nVTGDcn2cdMnXRpE0s1d/3QRRSdNXl7erys8OG21G/dGN+61brgpFI2BDv5Txp0auPFmzpxh9RvmW+deY2zI+GU2aPRCGzhqQcrE8Thuhx4jrEGjfJs/f676uMvJaydes/HjJli16ldbo4Lq1qJDveBRnVGoRft6ll9Yy66p/g/r1au3PfXUodiniIZcNu51Xn+0atnchvZuY3csHmW3Lxphq+cPT6k2LB1ly6YPsLYtGtqgwdfbi3oed0A6jJuI+a+uNa7iRpX/zlV0BbXiBqCVy7grOo8bU+XRm13uudE6b1ycUnXZcqN1unOx1e7XWcadAt4fnNbGhky42WbfvNdmLNsZ9EmnSjOWPRgcd+CYZcEguHlzo1+AZdHyJdYuv5Wt7ZeeUeULuoyzdm7cGzZHO6r8hBv3uLETrEadq61ll5rWeUB969g3GnXqX9/aXlfHatS74j3jflLGXV5Wr11vbVu3sCWT+9jLDy2xl3YtCkaBp1LH9iy1R++cbv26trD+6uM+STqMG/7XxSAxBpdh0vHzuJmjzUhx5mZ/3kWKHBMnAv++i8j8HNe5rotdTA9b4arlSppyG/ej+wLjrt6xpbVePMnarZhubZdOSanaLZ9ubfxnjS6t3zPu3Q/F3j1aPgyD0wa5sc648UGbsvC+YApXqjRl4f3BcfuNWJi2wWlLVyyzVk2a27yuY+2h8bfb9tGrbNuolSnXzjGr7cGxa2x8m4HBdLA7t9wV+wTREA5Oy29bzcbdWt8WbG9ms7bk26zNqRcD1KZtaGyteqiPu6KEg9Pmj78uMNlnts61x++ZnVIxUn3X7ZOtd2cNTosnXcaNITd0zXbd4mLVNMRAMxZkYWGVq1wsicqgs4+6fujq5GJ1NQx/rmu5i2VPSa1j5ElTXuM+8Nhj1q1bN7uyxrVWv21La9ixtTVsX5hadWht9du1tCtrXmsdOnSwvX5R0sGHwbhzaR73zbfeYg3rNbDmdZpYr5ZdrGeLTtYjAl3XsnNw7EbV61kLr1Tuufee2CeIhpOD0zpWs2kbGwYDyBY/VGCLd6deNz3qDZ9t7z2PW8ZdMTSPu/zKFuMmgmYUebjsKQZM5HyFiwFojCC/0sUocwwb42ZQG2lxRp2zehr/N9nV1PUtV5mosHG7qTZo38oadWpjjdy8Uyo/ZgM38CtrVQ+M++E9Mu6KkOvG3bJuU+tT2M16t+oSGHiq1btVV+vtP5vUqO/G3SI9xp3j87hl3OWTjDsx6TJuwLwTPR0M6Pf+lOszLuZgsy8f5nMuBreFTwbjd4y+aH94qZQ/Vf5eH3eNTq2CdHb7W2+wdjdOS6na33KDtfWfNbu2Uao8BeSqcS9ZscwKmzS3Bd3G294J623X2DXBUqap1u5xtwep+IltB1ubVoV25+b0pMpz2bhH97/UDbaKHd9zub24468p1+Gdf7XX915uD65+z7hHy7jLjYw7g8j4wWn+U4PTUkOuGjeD09r6e62JDU57MbLBaTvs6KydNj9Ng9Ny2bgf3vu4denS3cYNvMRefvAye2t/FTvG07xKk0fPJ5Xo9SKiQfDfA1Xs4TtYgOUfNmrMdBl3OZFxZxAVNW7N4y67ZNypJX4e9/NusE9O2WwHJ9+Vch2aeo89fZpWTss1437k0YPWqVNn69zqD7Zq1p9tw6KLbc3cS0rV7Qv+Yncu+7ttXPI3WzMv8T7xWuv73LnkYps39o9W0KiKjR03RU8HKycy7gxCxn0qMu7y63QbN5FxLi55mmvG/dRTT9mQ6wdZo/rVrHWLGtauFU/xqpWU3n/qV+LXT1FhTWvR7Fpr1rSuLVgw3978179inyIaZNzll4w7SWTcpyLjLr9k3Kkjl437xInjtnXrfXbjTbfYgkW3Blq4eGWpGjdxljVoXGiFbbvb3PkrEu5TVPODY99iK1euskcffdiN4J3Yp4gGGXf5JeNOEhn3qci4yy8Zd+rIZeMuLwcOPG7de/S08eMn2FtvvR3bmlmsXntHYNwLJ/ayww8ushe2L7BD989NqY7uXmx71k+1Pp2bW/8Bg2TcMWTcpSDjLr9k3KnlQ2Hc6Xo6WIYb96FDh+y6666zSZMmxbZkHhh361bNbZ5H3ETGyS7A8gS6d07wM9Hr8QoWYFk72Xp1bCbjjkPGXQoy7vJLxp1actm4Rw0bZwUdq6bt6WAswNKj+3V28LHMNO7HHnvMevTo4RH3ePtXxH3V5eWO9Rssv2lj69Cirk0e2skmDeloEwZ3KFXTRnSz2eN627SR3RO+Hq+pwzrb8N6F1qhONRs4cJAd1lrlATLuUpBxl18y7tSy6KYlgXGv7DPLjszaYc9Muy8w2VTruelbg4eYzOk0OjDudEwHGzV8rDVofqVdP7+GTVnfwMbfVt/GrypZE25rYFNub+xqYhNW+/8k2KeoJq9rYKNX1LGmHf5u3bv18Ij7ydinyCyywbh379plgwcPstaFhda+XbtAHdq3L1WsxtegQX1rXlCQ8PV4ccy2bdr47+1s4YL5duzYsdi7R4eMO4OQcZ+KjLv8Om3G3aSFrXLjZp71c9PvDyLj0sTUrlCJXi+qF9y0mSOOcbNW+Ya7ozVung5GSpiHjDRocaU161DN8tuVrmbtrrVWXWpbYdc6VtChesJ9iop0fOPW11i1Wn+3fv36BinpTCQbjPv48eO2f/9+275jp219YEegbQ/sLFVTp82wxk2b2bgJkxK+Hq+t2zjmDtu1e7c9+8wzwSN7o0bGnUHIuE8ll417xvTJbqit7frxK2JPB9vhRpv4SV/lEU8b47gDRi8NjHvunOifDrZs+Y3WuE4D69+oiy3oOsHmdh5js91cS9PCnhNtWZ9ptqD7hISvF9W8zmNtXpdx1rVOoTXPb2abNt8d+wTR8O9//9u23LM5qMR4LveYkRNt7KhJpWrksHH++QqtUYNmNnjAsIT7FBXHHjNyQjDoa+3a1fbqq6/EPkVmkQ3GXV42b95sHb2eu/3222NbMgsZdwYh4z6V3DbuKVa/UYFdN3iWjZu9yUZNv91GTltbrEbPWGdjZ663MTfckfD1oho1fV1w3O4DpgXvkw7j3rRpk3Xt1Nmae7TSukWhR8Otg4i4NLF/04aNrWV+84SvnyI/NscvaJJv/fr0td0e7UTJu+++a2+99Za9/vrrduKE63hyevGFIzZs6PAg5b334UcT7lOcXnvt9aDB8O670V6z8pLLxn3nnXcGz2TAvDIRGXcGIeM+lVw1btJp3Ag1atax2vULLL9lF2vaopM1aV68Cgq7WZuOva1l254JXy+qpi06B8etVa+Z1apTzxYvWhQYUJQcfvFFe+CBB2zDpo12+53r7Y5NG5LSoGHXW4OmjWz8lIkJXy+qdZvW2zo//sa77rRdu3bZq6+8GvsEmQfG1rdvXztyJPpBS+kkl417/fr11r59e1u5cmVsS2Yh484gZNynkqvGTeR777332ZgxY2zQwAE2eNAAu37wwBLVrWtnq1+vjhW2apHw9UTiuByfynXbtgciN+7ycvMtNwcRzv333x/bkhsQoY8ePdp69eoVrFCWS8i4Tx8y7gxCxn0quWrc8Oabb9rRo0ft8OEXPVJ94b2fJWjDhvXWtk1rmzx5UsLXE8qPe8R/vvzyyxldua5YsSIw7nvvvTe2JTeQcWcnMm4Zd9LIuE8ll427rOzdu9e6dOliixcvjm3JHW688cagorz77mgHmaUbGXd2IuOWcSeNjPtUZNzvs3PnTuvUqZPNmzcvtiV3kHFnHzLu04eMO4OQcZ+KjPt9duzYERj33LlzY1tyBxl39pHLxr1hw4agPGJgmYiMO4OQcZ+KjPt9ZNzZh4w7O9myZUswj3vdunWxLZmFjDuDkHGfioz7fR566CHr3LmzLViwILYld5BxZx/ZbNzMj3/22Wft4MGD9sQTT9iTTz75AS1cuNCaNWtmM2fO/MD2xx9/PNifwZ6nc4YGxo1hY6h8Ruads1jM2rVrUyaOx3HD95k9e7aMOxEy7lOJN+4TbtyvunFjtqnSS6433LgPZIFxs8gIEXdZy0c2IOPOPrLZuFlGdty4cUGZ4xx4ylm8WrVqZTVr1rQWLVp8YDuDQ7t16xYYW9SLGZVEaNwFBQV2ww03BAbLZ1qzZk2pCo050WvxYh+OO23atOB9Mtm4P+76pSvf1d5Vw/UjF9tLo5LrHNe1Lv7v27FtSVNu4977iHX1AlXzuvbW0Q22yz03WueNi1OqLltutE7+s1bfTta+Qwf754O7Yu8eLbeuW29tC5raqu6N7L+zutvbM7sHEXKqhGnbnB727Lj2NjC/pvW7fqg9f5qNm5Y9aSrM7JZbbjkpKsh69epZ9+7dP7A9FPtzwz399NOxI2UPMu7sI5uN+7nnngu6nAYNGmQjR44MrlG8JkyYEBjWxIkTP7B96NChNnz48KCcnk7jZgEnDLt27drBNMrrr7/eBg4caAMGDChR7MPnHzVqVPA/ifYJxb7sw31Zp06d4Psqyzmny7g/6vqta4hrk2uHa6Wrl+t/XaXxFVdz127XZtc/XB9xJU1FIu4unTtb1fbNreWiCVa4YpoVLp1Uqlovm2Ltlk+3tjex/+RTXv+Alk+zVksmWdVOLa1t+3bpi7jduFvlN7bZbWrbE6PbBpHxoyPaFKt9I32fMR0CPeq/J9onXvtch8a2s20Dm1v3+lWt/+Ahpz3iZi5z165dg1QdN02oNm3aWMuWLa2QJx3FbUft2rUL9qciZeWybEPGnX1ks3ETObKOwmuvvRZco6J64403gnPiZ/x29kcsf3s64fPTuMe0yQq0bt06aTVt2tQaNWqU9P+RJifTR+q8LN0D6TJuouURrsUuou0GruGuW1xNXZ9ylQSmf6PrVdedritdn3AlTXmN++CBA9bdb6C/1ahq17ZqajXaFliN1qWrdrsW1rBLO6vfuY3VbJN4n5Py168tzLe/1axmHTt3sr1+UdLBxk2brEV+Uyuo9g/r26Sm9XH1LkF982vb4FYNA/VpWivhPkVFirxr/WpWr+oVNmLESHvp6Muxdz890Pd21113BTfKxo0bT4ptrCzGwJn47YhRsOyP8b3wwguxI2UPMu7sI5cHp2U6GOjzzz8fDFjlgSjcN/wsTezXr1+/oJGPzyTaJ17sT33D+5S1XkmHcee5fu9a65ri+owL/uRa5BrqIupO9OZnujB9zH2pi0h9putS1yddSZOXl1fZ2VfWwUdHXnrJlq9YYSOGD7cRQ4bayCHDbNTQ4aWqf68+1rh+A2tV0NyGXz8k4T6hOCbHHjFsuC1dtsyef+H52LtHy2OP7bc5s2fb9f6+g4aNDDR4ePHqPXCw1W+Sbw2aFljfQUMS7lNUA4eN8OOOsFFewa5ft87e8MpWpBcZd/Yh485OGB1ORo/HnUZJOoz7867qrmWunq6wb/oHrh6u0S5e/5yrKF900Sfe3dXCNdc1x3WZqzTjpsFA/znR/Kc94v77z3/+84NlXWCDtAkVxKuvvGKveLSYrHZu326dO3ay0R5lvvj8Cwn3KapXX34lSBWVZZBCRWAQxokTJ+yon9sRf2/0Ugl6ZN9+69mrt/Xu198ee/yJhPsUVXjMV1591d58842MXc87l5FxZx8y7uxk1qxZwSA7VmKMknQY99kuzHeGq8B1hgu+5SJlPtbV2kU/dlGIxMe7MPiLXANc811/dZVk3JzIBa6GrkGuIE1/3nnnvcL8vHRASrZnz57BIIxcgUbF4MGDgwEYp7sfSiSPjDv7kHFnHwwuY1Ab00qZXhol6TDu77tauia6MFLS3/A1Vy0XxtzJ9VVXPIwcx9gx6z+7Pu3q7CLi5m8i6uJg4NrPXR1ds1yk5Nefe+65J9JlpAfoG+/ePRg5mSsmd/jw4WBEJKMhX/EoXWQHMu7sQ8adfeSacX/PRZp7kiveuL/uqu0a58Jgz3LFw2uzXfzvF2LCxDFhRpWXNKCNqB6jJ6onJX9BpUqVGv34xz9+Kl0rY3HjhcbNggS5wIsvvnjSuFkkQWQHMu7sQ8adfeSacX/T1cTFoDJMOOzjJoXeyEWqvJXry64Qouk+rmdda1zXuUh33+s64MK8q7m+5ApT7yWSl5d3UXkGp5UXGbfIFGTc2YeMO/vINeP+rKuqa7mrrys0WhZf6e9icBrTu+IXYsG4G7vucm113R77/SnXMRejy5lWRqMgWeP+Y3mmg5UXGbfIFHLVuFkogxW6+vTpE0zfySVk3NlHrhk3qfH/c6123eAKU+KXu25yMXiMdHq8AfP7N1y/cv3BxXQy0uMLXSzg0sXFwLVkVl0LKO887vIi4xaZwk033RQYN3NHcwnuqzFjxgQR9zPPPBPbmhvIuLOPXDNuwISJrpe4MGqmd011EYWzhCkD01gO9Xeuc12stFYUGgDDXCzEwjzutCx5Wl5k3CJT4LnHPI1p27ZtsS3ZBVMWN23aFDwAZunSpUEGAfGwCta9ZqUqBp2G25ctWxbsu3r16qxcMAdk3NlHLho3o7x/5qLfeqNru4tou52LAWQMVKvnYrpYZVeigWds6+piMNsfXR9zJY2Mu+LIuDMX5scfP348SBkjDCsUlQlLMLLmevx21pTmJ33FmQyzGVjfmhWp2rZtG2QPQrFULWJZ2vjt+fn5QVl99NFHY0fJLmTc2UcuGjcQRTPC+woXUfbFLqJrImeWLz3fdaGLVHqiD8I2/p8GAHO+w9HpSSHjrjgy7syFxXSIMMMnLfXv3/+kMO0aNWoEphe/HWPgerJ+eybDmtZUhDxNiX76cMlIlotk7fjt27fbPffcc3I7YqlaXsvWaYsy7uwjV437tCLjrjgy7syFgVrr1q0Lrg8aMmTISfG0IgZx8aSm+O2sqzxs2DDbunVr7CgiU5BxZx8y7giQcVccGXfmQqqcyJTrgog0Qx07dizoJ+Zn/PZwPxlD5iHjzj5k3BEg4644Mm4h0oOMO/uQcUeAjLviyLiFSA8y7uxDxh0BMu6KI+MWIj3IuLMPGXcEyLgrjoxbiPQg484+ZNwRIOOuODJuIdLDoUOHgml9kyZNim0RmY6MOwJk3BVHxi1EeggfC0zErWffZwcy7giQcVccGbcQqYU11m+++WabNWtWsIRrKObd169fP1jSlUcRh9upv2bPnh0sRvPaa6/FjiIyARl3BMi4K46MW4jUsmfPnmAhnIKCAuvQocMHFC7fGr+N1e+aN28erM1+9OjR2FFEJiDjjgAZd8WRcQuRWlgAZ+fOncHyrffff3+wih1iudbdu3fbrl27Tm5D9913X7C8K2uw50q9kivIuCNAxl1xZNxCCJEYGXcEyLgrjoxbCCESI+OOABl3xZFxCyFEYmTcESDjrjgybiGESIyMOwJk3BVHxi2EEImRcUeAjLviyLiFECIxMu4IkHFXHBm3EEIkRsYdATLuiiPjFkKIxOSqcX/a9WdXD9cQV0tXZdenXIn4sov9C129XT1dXVz/cH3JVSZk3BVHxi2EEInJReP+hOsy11jXna77XatdGPhFrjNcRfm2K981x7XOxf78nOi6wvVFV9LIuCtOLhv322+/bceOHbM33ngjtkUIIZInF437PNck1yJXfVcVF1H0ShcR9WddRfm860LX71xE3he7GrpGuSa4/uJKGhl3xcll4z548KCtWLEiWFJST2MSQpSVXDPuj7gw3rUuouWPueA3rrmu4a5fuD7qiqdS7Gc8mDmGv8HVjA3JIuOuOLlq3DysAdPu0qVL8BhFrh0RuBBCJEuuGTcp7Vquxa6urtCQv+/q5BrtquPClBOB8fPat1x/dY10zXZd6UqavLy831WuXHm/jLv85KJx/+c//wke7tC/f//gMYpt2rSx5cuXBw9/EEKIZMk14z7XRXQ83UWfdWjc33SRNqffu63rK66iYNq/dGH4S1z3uRa6aAic5UoaN+5fu3HvW7BgQezUo0XGnR3wTGOec9ywYUOrWrWqVa9e3YYMGWKPP/54bA8hhCidXDPu812MICdN3sB1pgu+5sKAx7uIvL/qKgrpcwavdXbRP77NNd9FtP05V3HwHhz//1xXuapVqlSpzwUXXPA8D6xPBzLuzOdf//pXcAMMHTrUqlWrFhj3VVddFTwDef369Xb8+PHYnkKklzfffNOeeuope/755+3dd9+NbRWZTK4Z93ddLVyTXY1cYcT9dRcp8nEu3ry4CJo+cdLt57j+5hrgGuMqaXAakTpTza5zLXPd5rr37LPPfp0H0KcDGXfm8+yzzwbRdrt27axGjRpBtH3ttdda06ZNbfTo0cGzkFVpinRDmeN52zNnzrSbbropGIMhMp9cM+5vuDDsWa5WrtC4MeKmLkwYY2fedmkQSTdxbXbxgYuD/c52XeIiHd/0jDPOGHb++ee/yM2QDmTcmQ8313XXXWc1a9a0WrVqBeJ31KxZM7vllluCm1GIdPLCCy/YsmXLrG3bttarVy+75557gi4dkdnkmnGz8Arp6ltdg1zhnO3/dQ11MTjtchdRcjyYb6L53Rj3Xlef4K8kycvL+y2D09THXX5yzbiJqLt27RpE2aFxIyLvxo0bB9EOg9eESCcMluzdu7fVqVMnGHtBHULaXGQ+c+bMCeqUffv2xbZEQzqMmwibAWYYN6PBv+PKc13jutnVz8ViK2xj39Csv+Aiav6Mi9f4cKTd+7ruchGlJ01o3BpVXn5yzbiffPJJmz59urVs2TKIssN0eaNGjWzgwIHBnG6lykU6IbJesmRJYNjXXHONXX311dapU6fAzMXph/qAxnwiMYWUrtiOHTvagw8+mHCfVNUn6TBuoP+a5UoZYEZfN1E2g8yYIsYqaAwk+6OLyBsT54P8yNXaRZ/2QFd/FwPcZrp6uX7uShrN4644uWbcVJIPPPBAcE4MTkNUlK1bt7Zbb73Vjhw5EttTiOhhQBop1uHDhwcNSQZLUh7z8/ONeosxGVT+4vTB2AOiaur1GTNmfEAEAYWFhUHWbvDgwR94jf3nzp0b+EIqSJdxEzH/wNXRxdKl97owbvq4MXWMu3bs7x+7GE3OqmkstsLgsjUuIvabXKxZzj4cM2lk3BUn14wbmK/NTIO6desGFSXq16+fPfLII7E9hEgP9G1jCq1atbLatWsHGSDE+gLUJevWrcuZuiRb2bp1azAuBoNmwaaiIk3erVu3U7azP90f27dvjx2pYqTLuAGjZREVpmj9yfUzF6ZNahyj5jXmfLP8KSlz+saZSsbo8N+6+D9+JyIv2h9eKjLuipOLxk0Es2nTpuBmo0+RQWnz5s2zl156KbaHEOmBZXdpNDLmIn7AJOZNw5IG5uuvvx7bW5wOqPcwTcbH/POf/zxF9G1T9+/du/cD29mfbala2Cmdxn1akXFXnFw0biAFSblg1TTmdO/evVuRjUg7TzzxRLD4D9F2aNqhgTNYkoG1egiOABl3RMi4swemcdAqJqIhHamoRpwOuKdWrVoVZH8wawZKMu6CwZLDhg0LxmNoDX0BMu6IkHFnF0QyzzzzTM6dl8geMGWmfU2aNCkwbkaVs5JfixYtbOXKlcFKfprlIEDGHREybiFEWXnnnXfstttuC8yagZJE3AxqIiMkRIiMOyJk3EKI8rBnzx4bNWpUkCJnjYFFixYFI86FCJFxR4SMWwhRHk6cOBE85IZpRyNGjAhGI7/11luxV4WQcUeGjFsIUV6ee+45W7NmjW3ZsiVYmEWIeGTcESHjFkKUF9YXYHaDTFskQsYdETJuIYQQUSDjjggZtxBCiCiQcUeEjFsIIUQUyLgjQsYthBAiCmTcESHjFkIIEQUy7og4cODASePOlTmYhw8fPmncqXrKjRBCiLIh444InjjVs2dPmzZtWmxL9vPaa68FD4jnQf+5tiAE60DzSD7mzwohRCYj4y4nPFGKFY54bjM6evToB8STfNq3bx+Y3PPPP39ye7g/RsExMhHWS3711VftyJEjHzinRx99NGiMsHYyGYX411B4btn26EEe7sD1mjBhgt18883BuethDkKITEXGXU5YHGH58uWBiZE+JhKNV48ePYIn/DRp0sQGDhx4cjv78j9LliyxY8eOxY6WWTz99NNBpoAlFwcNGnTys/fp0yd4oH/9+vWtb9++J7eHYhvnt3HjxqwxPj4nz0G+4YYbgnWh+/fvb9u2bdPCF0KIjEXGXU4w7htvvDGIQEPDihdGxjrDPEcX4w63sy+mzoMDiOwyEYx7ypQpQR89RhZ+dkycDALi93B7qF69egXnxzrLmZpNKArZBZ7B3aFDB6tZs6Y1btzYZsyYEQzEE0KITETGXU4wJiJmntpDJc/ArXiRZmbkNSnk+O3sy/9g2ixrmImQOuZz8znjP3t4Tih+eyjODdEXng0QbfO5yS6QHeExijwDmQbIQw89pHS5ECIjkXGLDy2MM9i8eXPQdXHttdcGzz6++uqrg5T50qVLNVBNCJGRpNO481znuP7g+ovrl66vudieiE+6vu36levPrj+6/s/1HVeZP6iMWxTl4MGDNn78eMvPzw8iblLlNWrUCPrw6d+/++67syblL4T48JAu4z7T9QNXZ9da1/2uha4C17muRHzX1co137Xetdq1wtXddb6rTMi4RVF27dplXbp0CSJtjDtU9erVrVGjRnbTTTdlbHeGEOLDS7qM+yxXNxdmPd41zDXHtdRV3fVRV1H+14VxD3D1d/VzzXDNdLV2lcm8ZdyiKHv37g0G1dWpUyeItsOIG/Nu06aNrV69WhG3ECLjSIdxV3JVdt3qwnRJl8OVLiJoTJn0N1F5PN9y/dT19eCv91LqpNeHuha7MPykycvL+03lypX3L1iwIHbq4sMOo+dnz55trVq1Cgwb0dfdsGFDGzp0qG3fvl0D1IQQGUc6jPvTrqtdt7iInjFyuNA12DXa9XcX+8VDFP7x9349yZdcnVykzZuyIVncuH+HcSviFiHPPPOMzZ071woLCz9g3KTJmfK2c+dOGbcQIuNIh3F/w9XYNctF6js0biLvJq4xrhauL7tKA7MnZU7K/Vo2FAPRO8ev4uI9Wpxxxhmjzj///MMzZ86Mnbr4sPPII48E667Xq1fvA6ny2rVrB6veMb9bqXIhRKaRDuNmkBnGPNnVyBUaNynwOq5xLt6cfvCS+IIL46dvvKeLNHpxfMRFep796Edf5br3nHPOeT2X1g4XFePBBx9MODgtTJdrcJoQIhNJh3F/39XSNdHVwBX2ZTMVrJaLwWqkv7/qKg6mhl3qom+baPv3rqKp9Xh4D45Hn/jfXFdWqlSp5wUXXPAcfZpCAI9eHTlyZLBaGoYdRtxE4F27dg2WblXELYTINNJh3KSs813TXc1cYcT9TVd911hXG9dXXIlgUNrFrkkuomeO9VlXmcjLy/tV5cqV92lwmghh9TrMmWVribIRK6e1aNHCKCeHDh1SH7cQIuNIh3GT4q7pWuJiSlho3Ezn6uJicBqR92dcRcG0f+y63sWodEz7E64y48b9ew1OE/Fgyjy5bdKkSUG0HS55ylryDExTmlwIkYmkw7g5KCuf3e4iag5Hiv/OxeIqw10/YUMCfuga6GI/TPvzrnKhedwiEazLznxt5m2TJm/QoEHwgBXWaRdCiEwkHcYN57no4ybqZoT5FS5Gh690sXoa/dHM5SYKx5zpoz7bxeCygy5WWmP6F8ul0tfN0qcl9YmfgoxbJIKoe//+/TZ58mQrKCgI1i3fsmVL8PQ3IYTIRNJl3KS3WZ+c/uxNrm0u5mIPcv3IxZQxRpjTB86Kaczh/pPrZtcLrsdc7L/cxQjxKS5eTxoZtyiOf//733bPPfcEj2Hl4SI8GU1920KITCVdxg2MAudBIfRrs1oaJn2Ri6lbDDb7rYuUOium0bfN2ubMweaDtXW1c3V0dXYRtZNGTxoZtygJHlW6e/due+qpp2JbhBAiM0mncZ9WZNxCCCFyARm3EEIIkUXIuIUQQogsQsYthBBCZBEybiGEECKLkHELIYQQWYSMWwghhMgiZNxCCCFEFiHjFkIIIbIIGbcQQgiRRci4hRBCiCxCxi2EEEJkETJuIYQQIouQcQshhBBZhIxbCCGEyCJk3EIIIUQWIeMWQgghsggZtxBCCJFFyLiFEEKILELGLYQQQmQR6TZu3uDTrs+6PunKcxXHGS5e/4TrM65PuT7qquQqMzJuIYQQuUA6jfuLrmtcY12zXX1cl7o+50oEhv1zV1sX+0911Xd9y1Vm85ZxCyGEyAXSZdxE2de6prnWuja4VrkmuP7gSmTEn3dVcY1zPeF6wYV5/9JV5g8q4xZCCJELpMu4f+ia41rgutz1YxeRNObd0fUlV1FIj//A9WdXf9ctrqGuX7tImZeJvLy8P8q4hRBCZDvpMO6PuS5zEWmPcYVvQuQ83TXS9RsX+8XzERfpcraTUh/t6u36las8xn1R5cqV9y1YsCB26kIIIUT2kQ7j/rKrrotom+g6TIt/19XGhSE3dH3BVRx/dI139XMlY9y8BxH7ua4LXT+pVKlS0x//+MeH5syZEzt1IYQQIvtIh3F/21Xgon+7qSs07m+46rnow27nOstVHBg3/eHJGjfR+i9cnVyk6Je6Np5zzjknpk2bFjt1IYQQIvtIh3Gf72rlmuhq4DrTBV9z1XQRSXd2fdVVHPRzl8W4ORH61WkY8D9DXAvOO++8l2fMmBE7dSGEECL7SIdxn+dq7priauyKj7hJoRNxt3eVFHGX1biBBgKRN33kHz/zzDOr/OIXvzgwb9682KkLIYQQ2Uc6jJtImkiblDV92qFxk0LH0Bmwlu9inndx/MkVGndlF4ZcJvLy8n6lwWlCCCGynXQYNyPD/+66zTXMFRr3T10sxsLgNCLqMIWeCPqrGX3ezUUKvMxoHrcQQohcIB3GzdKlmPSNrnmx35m3zSpoK109XWe7MHjEh+B/gMia5VGrulg9bZSLeeBE8UWnj5WIjFsIIUQukA7jBtLgpMUx7iWuRa7lLsz4EtfXXX9zsbraBS5MmcicSJv0+H2u51yPue5yTXYx0jxpZNxCCCFygXQZNyZMVE1fNsbNYiyTXNVdLG3KwLRqLkaB/8T1cRf/838uouyNrnWuNa71rvkuFnVJGhm3EEKIXCBdxg0YMSbNKHOmiGHkrGEOPAWMBVhIoZMuZ1/S5TwRjP3YnwVbEL9zDFLoSSPjFkIIkQuk07hPKzJuIYQQuYCMWwghhMgiZNxCCCFEFiHjFkIIIbIIGbcQQgiRRci4hRBCiCxCxi2EEEJkETJuIYQQIouQcQshhBBZhIxbCCGEyCJk3EIIIUQWIeMWQgghsggZtxBCCJFFyLiFEEKILELGLYQQQmQRMm4hhBAii5BxCyGEEFmEjFsIIYTIImTcQgghRBYh4xZCCCGyCBm3EEIIkUXIuIUQQogsQsYthBBCZBEfKuP+1a9+dWD58uWxUxdCCCGyj0OHDlmVKlWecGtr78pp4774F7/4xePz5s2zd999V5IkSZKyUnv27LE///nPT7u1dXLlrnE7fznrrLMOXXHFFda7d+83+/Tp87r/fCMK9fFjo379+h3v27fviXBb0f2ySX2KnFP4d6J9s0193juX13LpeqE+sWvkCs6Nn+G2RPtnk/rEzoPrFTu3nDgv1Cd2LiqP2aM+sXNIR3ns499bfn6+feMb33jbfW2Y66OBw+UoP3fNc93tWuSa71oQkTj2La6HXFtdi12J9ssmcU43uR507XQti21LtG+2ifNY7drj2hLblku6y/Wwa13ctlzQEtcDrt2um125VB7D+mObKxfqj3itd1Ee74zblgta6LrXRT1ymyuq8oiPrXRxX5Mq/4grZ/m064eun7l+4Do/9jMKcewrXFQmE10/cSXaL5vEOf3JRaNnrus3sW2J9s02cR51XZj39bFtuaRerrWugrhtuaBfuKa7bnRVceVSeQzrj0mun7oS7Zetau263dUlblsuCH8Z4cK0a7qiKo8c90IXwejZrkoukSK+7aJl1Dv4Kzf4jIuKZLQr19IzmMBSV2HwV27RwIW5/Tn4K7cY7LrB9dXgr9yB+oMGct/gr9zichfZu+rBX7kFo7zJkPxv8JfIOmgRkcqjYsmVVMY3XFSSk11fZEMO8QcXEQ6DPXKN5q5bXX8P/sodPuka6SIl+V025BDUHxjAEFeuNZKrula5GgZ/5RY9Xctdvw7+ElkH6XGinKGuj7MhByAtM9s11XUWG3IIolH6jboGf+UWrVyk764M/sodyACNcdF9Q/owl6D+YBzJcNcn2JBDEGnTLdUk+Ct3IGVNhpXxCb9lg8g+qEhIKZM6yZUW89dcg1yk73It4q7sYjxCrlUmUMtFliTXUuWfcnVzYW6klnMJ6o9RLjJAudLwD2E8whTXNcFfuQPG3cI13sVYKpGFEJFWc13symNDDkCEw6CZv7lIU+YS57pquP4v+Cu3uMiFeX8/+Ct3oEF8mQsDyLWGJPUHKeVLXLk2T/cCF+WRrEIucYbr9y4yCt9kg8g+6Nfm5qNC4YLmAjRAvuL6sutMNuQQRDUMcPpc8Fdu8VkX2ZJca2wR4XzJxX2Wa+aWi/VHCJkSyiMzfXKNz7uoRz4W/CWEEEIIIYQQQgghhBBCCJFe6KNgpOr3XImmY9CnxvQo5o/Shwhso4+0LH2J9NExWZ95f79zsRAI/T9R9tkxyIyBSue4EvVV0wfFefF62FdDHzD9N8mMkOf/v+PiXFhhjXNj1Hb4OwM3oljth2PSB8/qQvQPJoI+Q86d75hz53/oa+O6lWUQIX2QlA8Gs3HdmP7xI1dU/XaUh2+5GG3M9SsK58E8e8rrF9jgcD6UTT5Taf2kvE4557r9ysW14tz4nTnFfK+pHtfA8bgOXK/iBpdxHblevD/nyP9w/pxXecoQx6NcMkAqme+lvHCfhPVHovqgovUH3wPXmfPgWoX6sYv7NEri649E9wyf/zwXr4cj4sP6I5m+X747ygUrxnFfhfUGx4xyhg7lifE7ydYfnDvlh/ou2fqD68Z7MDCPtSO4vygnuTbl77RBJclSkSzwwIUqCjdbfVcbFxUbUHEywhWTSgYK+LUuFjVh7t8dLuakMu+WCjqqSoXPN87FkoMUuqJwg7AsIQskUECBxgWj5HmtNPi+WIGMOd8stLDCxUpJ97nud7H0ZhQNE25qRuJOc7HkYCKoCJhi8w8XlQkGzFKujJYPDa80+B9uvOtcnB/LN7KkKAv+c9NHAQ28di6mrCUqX3wmzp3ph1QGQCXDef7RVZrp8jpljnmorOe/0cWiLcwlZi2CS11hJZwqKP+NXawLwOjwRDB1iOsVzs6gvLIv28ta2XHPUvZYK5sVADFwvrcooHFK+WBKF99rUfgs9VzUH+EqW193UX+E168k+O4wtIEu1h9gnj5zo1kCNupR9sxSGOtizYNE9QeNv7D+4JyAOpL6I5mFcvgf7l/KBfcV58U59nMxzSqqoIaywHdXUv3Bdx7WH5Q/Pgv3V7L1B9ftLy7OjTX2uc+6u1guVaQAzIdF4yk4ib5UWo5EJEzXwLCBQjXL1TT4q2RofTJ1gJWRMGvWuGWdbCoUjK6tK9FNkQpYcpAF6plLmaiVSIuQ86KQhtEdBZklGIkuS4NKi4JMAR/g6uOiAbTd9ZKL1YWSaZ2WFYyFipAHT1BxJIIIiEof46WFzeeggTbBVVwruyhE1pwX15rzYnU85hJzzaKaT0xlhmlvdlFRFIVzwYgwNSpOYIob87eTWVSGSuuXLs5pn4uHGVBRYj7Mbadspzrawbz6u3gQT3HLX1Lhc73Ce5DIhgYS901ZR+7+1YXBveBidasoGiMhlDO+Qxp1RMVFSVR/EGHOdOUHf5UMpsH+1DV8h5THsP7gmvN9lvX7SRbK2CYX5pPIRKk/aGjRSA7rDz4P9Qd1XmkQHBAUcV6cE2tHcE6UTRqWrNEdBXxf1BvUH9QjiaDhEdYfNHYR9wj3ZmnL7hKI8X2wngL1Pe/DA5v4Xy3YkiIoPBgbERVGx9+0nEn/0GqioqRVS0SKwYYR+CMuChj7Uolj0IkiZ47Hk12ItqnwiagAs+QJMyx3SHowCripiKZmuKgYqWT4vJgDNyKiEHIDcq58NqKux1yYAI0a0ny8lgjONzRFxA1BlMgxiLyZLx0FvA8VGa1YbiaMi/Pi/DgHPhMVHufJdeG6cS5kO7iBaG2zL9c0USTGeVHR13ERAZCxCL8D9qcMRBXBcT0wK7IyzIHFnMMyRmXAZ8PUODdSwGzDqDgvrjWVHWUu/B6Kgilj/FQolAtMPJ5EZbii8Bn5DrleZJk4F86JzxneN5wL58R3y++UI0yDBgwVIBUpDa6SGoJUrhyDBhpZnw0uvksyLcWV4YrC9cFsaCgkW38Qge91kakKr21x9QfnS1mON2eOSYOZp27x3vxvFPC9cc9Qd5EtiK8/KP9F6w/OEwOm/iC6LK3+4Dsh5c93FR6Pe5l7mmtH1iQKuAdopFIeKSvx9Qfnkqj+oPyxVDJPTSTjVVr9wf/z3WD8zVxkZFjQigZNFPfYhw5uGpZT5EanZUlLlodQEJlRcDFVKlAqHCo8KhFSLK+6DrmI1rkotM4SVZRccEyQB5HQygujGSpYUpW01kMzTzUUEgyUCpDPyA3IuRFhEdlw7pwXBsUNRIEkcnjTRQGd46LlS+FLFo7BikJE33xfUcB3SOVHxUXFggmFj9ZjRSNuKAypo4vKlIiF755HDL7uIoWKaXHu3JxFobLkf6h8aNRxjHSBOfHd0dXA909XB407UqNU1lQspO9oBNIfSAOQyPRF1xEXy+/y/ZOuTBRl8t1R9mhcUcapXKMGIyay2eJiXX/KIvcNkRnXkXuMe43rxU9StD1cj7uOuWhUcx0auUoyKSLaq1xUxpT18OEdHDOqrBaVPucTX39wjkRXYf1BFiusP9jGfkXrD8pYad0c8dBYu8dF5J5s109ZITqkPJG1Y3XIsP4gQia7QP3R0kX9gbHTICZzSf2xy8X3T1nmXkoEZRGDKwqNchqi3H9RwPvylEDqDxq78fVHWCdQBuPrD7bzGM/4+oNuwjCLUpQwSsfYyVyQKaEulXGnCFrMXISDLipICiU3AwWQyoPVw3idNDc3C5UlF/pZ1z9dmD77cUESGTc3FZEvKVYqYgoyBZKblcqYAhRVqotKgkJG656WOa1hbjxajvQ50iDhdz4L/W00Ppa5SHPT4uUzY3jJ9udSqdInRvRBn35U/W/cDNzcPMeYrAXGxTkQHRPFsFY3fcBrYj+pVOiHwwwxOK4z3wXffaK0OdeDSojzJ31H5cSTt/jOaLhFlSEBPg+mesDF+XDDY1o0qIgeKYOcK90sZDQwYSIUyi//g2FQxqhwEpUrvjsqJRqfdGlQIXNeNAYY7xEFmCYR96MuyhXfKQ0S+jQxOu4xPjPlhuvK9aLccX2fcZHZ4nugMULEWhzcZ5wPEQ5mye+8V5TGjXlxH/P9Y9jUHxgc9QfXhXPjdcocv3OfUa6K1h8MYCrJuDlvrhsNHb4rvjcaAJxnVN0AfCYyP2QXKYPcM5wjjWUiVuoPyiHfM/UiBkX9Qv1BNBvWH4m6EIqDOoRGKaaKWUYB9wBlnvJFgyu+/qCOpvFHlpT6A/MmqCHLyr6HXWH9wbVIptvtLy7uXRqRdEHKuFMAETFRKTceLSjSeqS7iJK5qejXpFWGIdDnyEXnwhKRUvmwP5VCoj4gwMyp6CkApP1oiVLBUmlybFpziQw/FXAj7XBR4PidyIcbjEJEYeX8qGAohHwPtETplyYypfLj3MJ0X2lQGDkGNzImQ19pVAWU75qb+wkXDSoaFnxWzJaGAwN5aHxhBFxTrg9ROPvyXXDz8F0UV+FheNyUNNg4Djcz58XxqCypsJK5YcsDx+U9nnJxo5ONIQLgPChvnBtREBUoDRS+i7DbhfNjX86NcpoIsgkYI41PKi76nTFQzpHKjAgy1eWR7x/jJcIkyid9SqOOypBz4jWiHRqRbOOcuKZ8rnWucBR/cQ1cyhnfE09Hw9CIFPl/vivuMRrVUZkbdQXXg+wAJoXBEgzQUKEshvUH3y8NCK4L1436g8xIafVHCONJaDxy3amrtrmoo3j/qO4zxgZQT9HgpSEYX39gymH9wd+kjqk/aIRQf3AtylJ/ANeIupVryHfDuIAo4B7gWlF/8H2SfSyu/mA/zpu0N9kRvgvKU0n1RzxcG+peGXeKwWy4eFTotDBDMGlaz0SgVIq0msOBBURdDDjgApcGlQ39y7S+OQYtOUwRs6SyokIuKYqoCBQYPjvnR8EDbiSiYVrJtChJg3GeVKbAiGYqFQpxWaDgE7FT+RJxRBW9AZUfqVciFj57COdAqpxokvOi4qefjBuVm4zIjZY817wkOD4GQoVLhEjly/eBYWPm3MCcK8dNNVwnsiNcg/iBXKRZqRQpM1xTfhLBAcZGdwjlqzSoRHkPyjrnQ8RGNoLIFOPv7Ep1nymVHN0zXC8qwhD6FbkfuC5bXDSOaruAz0hZQqV9Hu4f0rXcj5wT14/yR9mgUYDZFNeQqSgYJxEYFTr1Qgjfb3z9QbkJB3xi4NQffOfJwnfIdQ6zSdy/GOfVrqjOjUiRdDznQIMQwvqDCDWsP/iO6acGGtSUXbIjZQEzI7KlDFMOuN+i6kKkkUQ5pDzG1+HUHzQ4aDhzXpwff7M/9Thmzn1GIyVZuN+oK2TcKYZKnGiaNAk3Rgg3JIWQ6JHh/KSKQuOm9UkkS6szBOMKR8ZSefBMZAozfYikWjFqCjOtUqDfmJQTfSukksrSv5UstJiJWIhywmiF9yflhhkRbdFgIfVGpAVECkRipJFDyBjQZ0wfK+dGSzhsCIRwnlT6fJeYaqor/3g4Bwyayp6GTwiDtkgl03DgmhENMHKXc+fzMM6ArEfYZ4/xco1oQdM3T+qZ74aol/NkRDKVSPxjMsMywU/2S/VNyPdKpUyDgQo+hL40ImKMjAqHcsO5AqbOeRHVhX2GVLBEnZQBzosKnnLGd8F5F/3clG3KCsdPdb839wYNVz5j/IBFKmZMgIYQ/Yd813zvQHnkniTqCR/kwHXnvsQg+T/uJ+5ZGgAYI8cnY0SlTzmmb5zGG08WIwPEd5Jq+Dw0PPicZDJCiLq5D8L6AzMIjZs6gvqDrEdI0fqDrgsMorh6gTJLphDzjqrrhq4HPj/dL2G5CusPGh00Vqg/MCS6DIA6gPqDhm9IWH9wTsXVH9yTNO4of5SVsKEQBTR0MGTqj/hR5dQf1O00HrhmnDtBFo1+XqPPnv8J++wT1R80EuMDMRl3RGDcVOhcJG7uEG6iTi5ufgZKcOOFxk2FSauSdHMIFxCToPKkhU2US8RL5Uvqh37L+OkNtO5owfHepDpDQ08lVNoYABEoLXagEBINUJCo6GhRU6BC4yb9hjGEkQ/wuemXx8i4WWnEFJ1jTOsc06YlzvGjOJ8Qjk1jiM9C9BGCEXADceMR0dBi5sYLjZsolXMOG2hs53PTAOP6M1iQCh/D42bDQJkGFl53wDC4xpgBRpjqtDIVGuk6PgvlJwQjoLFCZU3ZizduKlKuI99/mHKlUcE15NpzzhgYg7swiETQMCCy4jsrbjBReeE9w5HedEGE8J78zT3APVbUuDFDFFbyVIikUkmjkjmhbHNOlE+yFKSrKRO8xvGed73sop+W/eguSTUYN+WBRk/8YEzKGN1jYf3BdQiNG3PgGsY3/KkP6N8P6w+uMw2TsMFdFBorNGwo06FpphqMmzEy3E+hGVF/YFTUH5RRyh2GG34G7h/qj/iGP/Uq9QfnxPWhLo2fw45JU+9QRskqhQ21qMC4uZf4LNTxIdQfNPq4VtQfNPzJ2IXGzT2HcYcNNK4NdSw+QP3BfUYQVPR60FAhUGJwGsYuUgDGTYGihUWUHEKEwgWhNc1ACwpveOOxH/sTRYfQT8V8TQos6T8qCgyAQk4ESGHgRgjhhscIqSypeKJIu2I+FEAqP94P6FukMNJSp3FB5UdKLzTusI8qPtVFxUkBpWLBKGlZhqmxEBotVMxEPAzIS7WhxcONR0p/vwtzDVOFGCkVBBkGKkxEy5objM9ESpObKz5VTlRDRE1DgCiam4yR20Sd3NRUMnyPIaSVyZTwGt9BFBE378lArvhnhoc3P+WQyjQ+VU40QyVEQzCE74RyRSqc8+J7oLFF5BR+X/HwPVBOqIDKMpgoGWg0kpJkmhDlK4TPQ0WH6fK+3A9hg5HKj4qTa0ilGYIhUjZJdZJtwQD4zri3uIZsI4qiwUW6k+vNfcq9W1yjpSJwX3EPUx+QkQqhgRFff5ARoC4AGlzsT2M+hGwAlXpYf3DtiUK5XmGjOx6+O0yE947K6GjU0peOoYbpYe4jGsPx9Qep8tCsuP+oP+IzK2H9wTkVrT9ovHG+mCJlgwZq1NC4pYxQf3AeYZBBuadBTv1Bo4iyh8GHxk1miO88PiNVtP6gUVZ0UC6+QDmncRKflREVgC+eipjRgrQi+ZKpGEgPkcriAjNSkko/NF4iSlrxFDYKJDdcca15CjSVDJUqNzItOiphRkwS3dDqjiISAAoRrV8W2qAAEjli2nwWIiBuMj4DhTe8MbkpMWBSYaQkaS3HV5xFIZVHS5XKkSgimUUlKgrGQwXAAhuYGBUm14RGA40kKgKuHWZA1EOjikobk6ci5ztgDAMNq+IyA9ysNN6IgGjYcM24/gymwmAoI+yTaigLVPJHXTT2qOwxaDIZRJoYE5+JMkt2gYYDZka0yja+C65z0YZVCJ+ZCorvi2wQ50TDhO+T/6eMpnrgHcZDo4PRxgzk4p7h+8TMaaRwf5CVoizSOKQRSxRGOeX6YuZ8DzS4ku1SotzyffG9cZ5RXCvgM5Hepf7gu6P+4LoUrT8wOc4ZaEQQodP4CuuP4lLDZIp4newL9yPienHvYizcx4mMPRXwnqS9qT8wJsoV9zf3WHz9QYYoNDOuHxkDrndp9QcGh5lTR9GQoTHOteL/+I6K+04qCsaNyVJ/0PCgkVW0/gizcDTQ+X4RjUGMm7q0tPoDaLCwHw0b7i3KAY0TyjLBgagAtPC4yZgyReRNuhFT5qJRSIlaaBmTzqNAAWZMZc7NR1RABROmLYuCyTBqkX4bjsmxaYFz03Fjc8xEEVAqoDDyPtwUfH4GHzG4gkqEz8t7c74UyPDGI21PKpwKk5uSyqikedxEs1RWVJBURPHp3ajgZiHypY+eGwmjw7gwZYyVKIwULNEINyFpPv6H6JObh2vAjYRZcXMVB5UyqT+Oww3O//HdcUwirSj6qjBNbnT6fImAqUi4DqR/6T8kjc3Nz+egEYiR8T80UIiMKGNEBpxronJFA4a+RhoxYYSN+P6ojInew3R7qqDS4zujYcf3yPVi4B+pVhqI3GMYA6ZOPz5liv/BBLhO3GfcmzQq4/sPS4KuLsoux8dwiks5VxTqAhoI1B806IiwKSd8Zj4v50ZAQCM/bPjzP3RP8b1Tf/A/8dm+eGjIMZo8LAdcY/6Hckx5YEBXVNktzJPIM6w/KFfUH7w3jUnqDz479z6pe6AuIIMS1h8YYHFdL5Q16hqm/DE9ju+De43vjvIdZpRSDfcFffDUH6T6+W65dtQfXEvqDwY78lmoI2h4UH8wWJRz59wov9xzJQVdNMoot8ym4Bz5GY5kj+9+E+WAi0JLGJPGDIhoqBi56SiMpKoowERfYTqI1jstSSoWDDlcXKG4G4jKlX5IWmocmz4hWuIU8qhay0AKjcqdcyF1TyGklUyqisqeFi83B2YbjuCkhU+rl8/HuVHAS0pfcRNg+kT3HCfq/ikgIiPKJK3INUCkoajIuFmIsPnMRD5EK1TamCyfjbQW+5ESIzotmtaKh5uVipFyQUVLuovoj3KRanMLIWVK44lIhGtGmeGaUS4pc5Q9yhrnRoOQMhc2DmmsEDVgkpTZRNEA/09DjOvKvvS7cZ1JpbM9ii4bPh8GxveIMVMe+f7Dz8k9RhaALAaVPN8t9wzXkMqSfWlAkbpN9n6hQmV/7m26gRI1YlIBDQkMOVH9QUTGuVFJF60/OE+uMd89/0P9kKj+oKFFPcHx2Bdx3fgeOX6UXVKksfncYf3B9aIs0igsqf4gykym/qBhzP1EVMs15ifXmfsMU6TMRAFlnPIW1h9cB96XeoFzof7gWoX1B9eL7zm+/uB74PeS6g/qDvYlQOsXE79zblw7IYQQQgghhBBCCCGEEEIIIYQQQgghhBBCCCGEEEIIIYQQQgghhBBCCCGEEEIIIYQQQgghhBBCCCGESAH/7//9fxxqROHUbm6jAAAAAElFTkSuQmCC;" parent="1" vertex="1">
          <mxGeometry x="409.01" y="260" width="182.25" height="152" as="geometry" />
        </mxCell>
        <mxCell id="744nSJvXdaSqL4zcJOoP-24" value="" style="shape=image;verticalLabelPosition=bottom;labelBackgroundColor=default;verticalAlign=top;aspect=fixed;imageAspect=0;image=data:image/png,iVBORw0KGgoAAAANSUhEUgAAAe4AAAGdCAYAAADUoZA5AAAAAXNSR0IArs4c6QAAAARnQU1BAACxjwv8YQUAAAAJcEhZcwAAFxEAABcRAcom8z8AAHcFSURBVHhe7Z0HmFTl2f4/cb/03kxVo0lMjF+KUdJj7C02ivS+LL333nuvUqRKkyJNQCmKoCIWLIiCIAr2rtii/pPn//wOc3RcZndnd2dm54z377rua3bPnDkzp733+zxvOf8jhBBCCCGEEEIIIYQQQgghhBBCCCGEEEIIIYQQQgghhBBCCCGEEEIIIYQQQgghhBBCCCGEEEIIIYQQQghRRr7uquUa6BodpwGuBq4zXJVc8fD/r1x1XKw3JqZurqtc33cl4ruuy1xdXCNdfM8wVzvXpa4fuYQQQghRDKe4Nrnecz3pejCm+1xbXP1cv3TlueDzrsoulq9xsd7DMe1w3ehq6vqpK/wMRv9tV1XXHNedrvtdfA+v611DXH90CSGEEKIYiJwxz0OuTi4iYtTMhaHe7WrjIor+nAvTnuLa6ZrvynddGVNP11rXNld/F+YNX3FVd811LXexHhE233Otq0VMbPs4lxBCCJFSTnSREm7t6uHq4MKY/uoiajzXdZbry64QItV/uEgvn8YCh0j0D66LXXzuQheGSSq5pesc11ddgGn+2fUvF+nrcHkI//O9l7t+4fqCKxlOd93lus31cxbE4POkwYmKZ7l+5yKV3df1kAuDZp/ZrxCOC7//gZhquvjdmP44F4bey8V68ZBC53ewfRm3EEKIlHG8i9Ryc9dNrntde1z3uEgB93GRQp7pIqqMb7P9pmu8i/XrssD5XxcmfbOLz1zvIj2NWWKOGOb5LswRY6YteImru+vXrniInBe6iGgvcX3NlQx8DuPe6sI842nlwtDnuahE/M212UV6HFP+lqswLMOkH3eNdWHS6DoXxk2FpLBxh8i0hRBCpBQMh4hxnWuRCwNtGFNjF8ZKp6tVruGueIOijRcDfM1FVAq0ARPBPu064CKVzHuNXBgdJjnRRSSPERNtL3Ytc13hCsHwMOtdLioBROREuskQRty3u2jLDqGiwb6wzckuonk6q2HIfMdJrqLgWFARWOHC8H/oolKD4S91kV7newtnDYQQQoiUgcmS0qZj1XYXbbPfcIXw9z9dGBQdtGjj/bErhEh0qosOYBg9EMF3de1z7XbRlkwUDr91YZhE9b1dtBNj/qEBdnSFnOAibY8Bj3B90ZUspNUx2f0uepbz2zBomgA2umjnruciVU6vcX4rmYEvuYqC9usFLj7Ptqh00EwQRt2k2amQcIwKXBw39kEIIYRIGUSgdKCi9zQGxP+FIWLF8EhXJ2PcmDQpdTqAkRYnOg3hvRquR1ykx6kYEFnXd5FKJx3NUC7gc5g8WQDa0MPe3MkQ9ip/33XQxbaJsvlN7AfGSsRM2p8KBBE331Vc5eA812wXaXYqFPwe0v1/clHxIBKnQxzHApGhIEqPP15CCCFEuaCHNGlyhjxhtok41UX6HMOjrTveiDBeemPHGzfpbIwM4yRlTntzPPSyxkRJmf+EBQ7RKcaHMdIBDkMk9cw6DKkiBV2atmI6pJEmf8pFFEwkT2c7DJv0e7gP33Gx3/z+Ga7ijJvP0eOc/aKyE44DpzJC5Ybe5AwZoyJA6h8Tx+Qx72Q71QkhhBDFgiljNKTKMedExBs3RkykGkKEXpRxk1LmNb6NGTBmemdjykTGwCsd2oiu27t+5qKSwHpNXPE92ZOBygL7RLr8/1hQBET3VBBoj1/tKi46JivAbyaSruYqPIFLPHSyo9Pey64bXIq6hRBCpASGLGGURMCjXPHDoEKIyolW6XHOjGDxJoTh0uubdDTGBkSgRPG0+05wFZ6AhLZiUvMYYNgGTNvyBS7S51QQ6KE+yYVRkqIuLckaN+3xbJ82d8RwuESdy6g4sO+PuWgaoPJRXAYAU6/tYhw57emFe8sLIYQQZYLo+BoXaV0iZHpZx/fcJnWMCRL1YqJ0UKPjF7AeBstQsMMuphgF2n7p8IXJkYIPI3Gg1/YgF8PCaM+OH95FJD/NRU90ephj4ph3OD68NITGvd11NguK4WQX0fGjLnqH08s9vj2d8drsJ5Oz0NmO/aFtn/T3711sv3DfAMyfys6LLpoA+A4hhBAiJZDKph2YNmGMks5jTIpCj2mGZ9H+TDRMZI15EaHzPpOiYL5HXAwHowMZEMWS9t7resLFtpmE5S8uOrmFw86YKjQ+widSpy2a6P0lF1OPsk16nZcWIlzS7FRI6DxWHET7jCtn2BqfYew5k7D8PSZ6xYfj2xnDHVYkSLMzxI1e67yyjxwXPsPwt7CzGpWY4nqrCyGEEKWCyJHUL+3Rt7iIkjGpO1y0zxKR04mMIVB0tqKHNgZOByzGdfP3c65wAhaiVQyaNDVpb4ZQkS5mWBcpcgwtnOikcLqZNHo4xzjbp1MaFYHSwufYB35bSXOF8xsYlka2gQeEbHBxDBiehuiJTvs3U6ey3TAjQbaA5gGOERPM8Bm+j/X5e6Wrs4vx56XpWCeEEEIkBQbDrGKkjZkxjU5nGA/pYMwY8yayJMqm9zfmTKTKeGh6ZjPNKZBepxLAuGai0bYuDH66i6dtYdpFjW/GGPl+eoNjomWNVNk+kTIqakazwhDxn+mixzht8+wjom2bSknh7WDgv3FRoSH9z3A6hr/RO51JXvgM/QNk2kIIIdIG5kUEjvkizCm+9zTRb/g+aW7eYxnGHq5H+y69z4mymYiF9ub4zxQXQWP+mDufZWhVWcEs+U2otMZZ+BgU95vZZ76DdcL1k9lPIYQQImsghcxQLtLutHUnG/FisIx5Jr1OWzJt4kKIHIT03UUu2prCDiLfc5UEHUto+6IjDjX7Kq5wTKkQouxg3KSXadNmpjUi7uLgXqRTF3Oi01aM4XNfMjlKCFEw9ycd2ki9M3NZ+NjMUOFyDD8+SyCEyDLoUEKbEk8yol2Mnqj06iwObmrWoR2LITB0YuEBAzzhh2EbapMSouzQ0YsUOUO6MGMmUykK7jUicjp+cQ8ztGywq3DbcNjzm57tDBdjilKGZsWL5fRkp11eaWohshimT2S8JDX87S56dfLw+6KgPYqxpBQs9G6l8wxDN4a6eMgANff4hywIIUoH0TGdtjBahmXFj9VOBBE3UTIzmNHRjc9yn8YTRtzMWMZwNDqd0ZEuXiwn6uapY4q4hchimPmJKJkaOh1iSLMx+1FRYMoYOz1m6fkZTibB7EpMvsDQlfgH7wshhBAihZASo3aNITPncknGTVqOaJuJJpiSkLGkQHsaQ2AYe1nSTEvAdxIF0OuWHqS88n/Yk1WSPsuKh3s00TqhEqW1E32mNE1YhT8rSVLphJ+lvckJ404m4mbWI3qs0r7NzFDhwwtI57GcqJtZosJJFhLBTjHbFMbPeFXa5Ib87//+76ivfe1ro7/73e+OPuGEE0Z/5zvfkSRJkqRSK/SQz3/+88xnMNr9Jfg71HHHHRcIz2FdfKfwNkortvGDH/xg9De+8Q2+j2cXMDtiWs2baRHDISjFGTcTPPDcXaZhpH2caBloZ2MSBR7bx1zFdLApCkydmaboBDPPhdlv/da3vvXB3//+d2vYsKE1atTIGjRoIEmSJEmlFh5Sr149O/fcc+20006zU045xX76059+LP4/88wz7ZprrgnWxXcSbac0YhuNGze2q666yr73ve996L7GI3WLC2LLTVmMm+FgZTFu0uSsT2eZ37rOrFSpUovTTz/91dGjR9v+/fslSZIkqVzau3evLV261Dp27GhVq1a1Sy+91C677DL717/+ZfXr17dRo0bZXXfdlfCzZdWBAwds/fr1dvbZZ7/p3sZT/kiZp41kjZtUOTMzFZcqpzdsqWoZeXl5Z/3pT3/ae9NNN5kQQgiRCt566y1btWqVtWnTxqpXr261atWyOnXq2MiRI2337t2xtVLL4cOH7eKLL+YZ+wznTKtxM86T+ZJ58tAlLCgCOqcxmxNRN3MJh08eCjun8Yxg0uClwo37nLPOOuuJhQsXxnZdCCGEKD8PPfSQ9ezZ06pUqRJE3qTQb7jhhsDU08Fjjz1m559/PvOiMNQ6I8bNHMfFGTcpbh5VyHAwGt/pZAakvMPhYMVNGJGQ448//lyMm4MphBBCpIrnn3/eZs6cGbRl16xZ07p162Z33HGH/fe//42tkVoeffRRO++889Jq3Jgs0yDSUYzHCD7vop2a5+nywAImgOD1dy6mQqVHeDgkjKFfTNzCZA6M6WYCFiZjKfUELDJuIYQQ6eDdd9+1nTt32oABA6xVq1ZBtP3ss8/G3k09mTBu2qOZ8nS7a7/rWRfTHvI4Ph63R3s3r7Vc4ZzJjAdlylMeH8izf3nmLlOeMmsas6qVespTGbcQQoh08cYbb9jq1att+vTp9vDDD6ct2oZMGDezppEaZ0x1ndgrDxxh/BmzoTELGq/0Jo9/aAEpc9qyebhIQxezqTH7WpmQcQshhEgnL774oh08eDCIwNNJJow7K5BxCyGEyAVk3EIIIUSEkHELIYQQEULGLYQQQkQIGbcQQggRIWTcQgghRISQcQshhBARQsYthBBCRAgZtxBCCBEhZNxCCCFEhJBxCyGEEBFCxi2EEEJECBm3EEIIESFk3EIIIUSEkHELIYQQEULGLYQQQkQIGbcQQggRIWTcQgghRISQcQshhBARQsYthBBCRIhMGvdxrm+6TnWd5jrR9VVXJVdR8N63XT91/cx1ius7ruI+kxAZtxBCiFwgU8aNaf/E1cS12LXBNdlV3fV9V1Fg7i1d81x8bn7s/x+7SoWMWwghRC6QKeP+lqupCwNe4lrkWu6a47rUlecqDEZf3zXDdWPslc+Pd1Vz/dCVNDJuIYQQuUAmjJto+7eupS6M9/cu0t31XGtcvVw/crFePNe4MPbBrr+6TnCd7mrvmuK6wpU0eXl5f3fj3ifjFkIIEWUyYdxfcl3uutk1whW2T//ORfQ8xnW+i/Xiaeva7Gruiv9htVx3uDoG/yWJG3dlZ++CBQtiuy6EEEJEj0wYN23YpLznutq4QuOmw1kz1zhXvosoPB7W3eJq5foCC2K0cB1wDXEV1UnteBcR+h9cF7kuq1SpUvdf//rXz82ZMye260IIIUT0yIRx04scg77O1dgVmi3p8TquCS7S3xhtPFVcdEYb6fqL62suepXTqe0FF9H7512J+Jyrsquni/ZxUvJ3nnTSSe9Mnz49tutCCCFE9MiEcTP0i57gGC6RN9Ew/MBVwzXR1dlVuHf5ya4Grmku2saHujDidS5+cF9XfCQeD53d+Dwd3+gUR9Q+/rTTTntp1qxZsV0XQgghokcmjJuUeIFruovhYPERd10XEXc7V+GIGxj2RbRO5H2Dq5+LDmu7Xd1cSf9gdU4TQgiRC2TCuL/nIiWO8dKhLDRuJlRp7RrrIrJmcpbC0NOcz9Ob/AwXqXI6re10EaUX7oleJG7cf6lcufI+dU4TQggRZTJh3KSz6SDGpCt0RAvHbJ/tYmw2vcr/xIJCJBrbTQc2DPsmF9F60mgctxBCiFwgE8YNRMy0UzPxysWu37iInNe6+GImU/mui3T5l11E5V9xkWb/levXLsZ/E6GHbeIMJ0saGbcQQohcIFPGTY/wa10zXbe4GJ/NuO5JLnp/097NbGikzDF1onTmKGcZvdFvdWHyq1x0SmOdwuO+i0XGLYQQIhfIlHEDETVDvOiMRgczDPgCFwaMSV/iutpFL3SGefEAkvNcrDfLRa/07q6/u0r9Q2XcQgghcoFMGjfwBRjy112kxMN2bDqZYdaIZfyPGI9Nypz1idox+URt3yUi4xZCCJELZNq4KwwZtxBCiFxAxi2EEEJECBm3EEIIESFk3EIIIUSEkHELIYQQEULGLYQQQkQIGbcQQggRIWTcQgghRISQcQshhBARQsYthBBCRAgZtxBCCBEhZNxCCCFEhJBxCyGEEBFCxi2EEEJECBm3EEIIESFk3EIIIUSEkHELIYQQEULGLYQQQkQIGbcQQggRIWTcQgghRITIpHF/xfUPV2fXAFe+6yzXl11F8XXXha62ri6u7q5rXSe7KrmSRsYthBAiF8iUcX/Rdb5rrOt2107Xza7BrjNdx7kK8yXXOa5xro2u9a7NroWu5q5TXEkj4xZCCJELZMq4MdmJrsWuJq6rXETda1yY8Ndchans6uvic+1dl7iucI1xrXLVdiWNG/c/ZdxCCCGiTiaMm43+07XBNcVFJA1/c93gGun6vetzrniquYiuh7tOY0GMFq6HXKTNkyYvL+/sypUr712wYEFs14UQQojokQnj/parhotou5srbJvGjGm3Jn1ey/VNVzyk1kmTT3BVcf3I9QtXT9cyV3ERN6n3z7toI/+u6wSPuKv8/ve/f3L+/PmxXRdCCCGiRyaM+yQXHdFmuJq6wvbsH7vquca72ri+54oHwyWlPttFG/dK1yZXmG4/0VUU7MhvXM1cmP91rlWnnHLKmzNmzIjtuhBCCBE9MmHcRMmktye76ruOd8EPXDVdtGF3cn3fFQ8R819c013bXXRO4/UmV4GLCkFRsCO/c7VykZ6f5Vp38sknvyXjFkIIEWUyYdw/c9EBbaqroStMlf/QRbqbVDhffoIrHiJmIvGBLgye1Do90Pu7iL6pBCTqjQ4spyf7d1xE9j+pVKnStb/73e8Ozps3L7brQgghRPTIhHHTNt3IRcqbyDs0biLmxi5S2SwnNR5PHdcCF+lu2qpDaA+/x0Wv9C+wIBnUOU0IIUQukAnj/qrrahdDuIiewyj5DNcQF53TLnORGo+no+sOF2nxML0OVV2MA+ezYQ/1EtFwMCGEELlAJoybCJsx2YzZJuoOO5Vd6aK9msj5VFe8OQNp9bUuzP5XLrbDDyR9fr+L4WCFP1MkmoBFCCFELpAJ4wY6nmG09AinM9oI11zXjS6icTqq/d3F9KaYOGO6f+3iM4z1poMak7Fg4vNi/1/gShoZtxBCiFwgU8ad5zrdxbjtW1w7XItcpMExdYybjmoMG/uDi45lwMQsg1xE3vQq57MMH7vIFd/uXSIybiGEELlApowb2PhPXcyidrGL9Dk9y0mB08mMB4fQA50JW8IUOMvpTU40fq7rPNf/uWg3LxUybiGEELlAJo27QpFxCyGEyAVk3EIIIUSEkHELIYQQEULGLYQQQkQIGbcQQggRIWTcQgghRISQcQshhBARQsYthBBCRAgZtxBCCBEhZNxCCCFEhJBxCyGEEBFCxi2EEEJECBm3EEIIESFk3EIIIUSEkHELIYQQEULGLYQQQkQIGbcQQggRIWTcQgghRITItHFXcn3B9UXX52L/FwXvsc7nXXwG8Tdi+fGupJFxCyGEyAUyadzfdF3uGu66ztXNdY7r665E/MLVwNXPxWeGuga5xsX+/4craWTcQgghcoFMGfdXXFe5pro2uu5w3ezChP/iShR5/87V0zXftcK13HWr61BMLVxJI+MWQghRHl577bXANB988EF75JFHjtHevXvtiSeesD179nxqOeuz7PXXX49tqXxkyrhPc13vWujCwP/o6uRa62rv+parMF9zneL6jev3rsquZq6lLj5X3ZU0Mm4hhBDl4Z577rFevXpZq1atrEuXLseoa9eu1q1bt2OWs36fPn3svvvui22pfGTCuGmTvsC1wTXBRfs0YN6zXKNif9OGXRLXuqa4ursw9KSRcQshhCgPjz/+uM2ZM8cmTpxoM2bM+JSmT58eGHTNmjVt8ODBn3qP9efOnWv79u2Lbal8ZMK4v+uq7SLaJsoO0+I/d7VzjXXVcyWKuuOhjZzU+mpXFdc3XEmTl5f318qVK++TcQshhCgL//3vf+3//b//l1AffvhhYN4dO3a0Xbt2JVyHz6eCTBj3T11NXdNd+a7QuH/squsiCm/rOsFVHKTbb3Ktc9H+XVyP9GMIjXvBggWxXRdCCCFSB1E16XLautNJJowbw23pmuyq7wqHcf3AVdM10UUk/n1XUXzVdZlrpYsKwI9cxcF3nOg630U03+S4444bcdppp704a9as2K4LIaLMRx99ZE899VTQGei9996LLRWiYvjPf/5j119/vXXu3Nkefvjh2NL0kAnjPtVFpzKGgDVyhZEy5ksKnYibLy8u4v61q4eLNnG2VVKanHZ0OrP1ctGZjR7sd5144onvkMoQQkQbUo7PPvuszZ8/36ZNmxa0PVJwClFR5JpxE1kzHnuOq7UrNO4whU67dYHrO66iuNS12DXahSGX9EOJuH/oYqjZ1a7qlSpV6nf66ac/P3v27NiuCyGiyptvvmmbNm0K0pJt2rSxpUuX2gsvvBB7V4jMk2vG/WXXFS6GcA1zHeeC37rGuOicRko7z5UI1sfY73bRm5xOaqUmLy/vT5UrV96rNm4hos/+/ftt9OjRVrduXatVq1Yw1Gbnzp2xd4XIPLlm3BjvmS4mUZnnOt3FGG3at+kh3tt1kiuc0hQDD82dV1LoA10YN5F7+F6pcOP+m3qVCxF96J27devWINK++uqr7ZprrrFGjRrZ8uXL7Z133omtJURmyTXjBoaEkSZf4GImtNku2p75+2IX6fSLXKS1MXbmMocvuS5x0bZNqpzIvExoHLcQ0YcOaU8++aTNnDkzMGuMu0qVKsHY2VGjRtlDDz2kjmqiQshF46bNmTZtpikl8t7imuGic9q3XUTVzIRGRE10jmEDU6XSm7yzix7pzKRWJmTcQkQfIurVq1cHY2VJk1977bVWo0aNIF3eokWLYHKMF198Mba2EJkjF40bMG8ib3qIMw77Zy7aq0l988XfczEkjKFf4ZAxXpmYhYicdcNZ10qNjFuI6EOnNHqRY9SYNpE2wryrVasWzFjFEDEhMk2uGneFIuMWIvocOXLEuIebNGkSmDeGHZp3vXr1bNy4cfbMM8/E1hYic8i404CMW4jo8+9//zt4UMPIkSOtQYMGVrVq1SDSxsT79u1rmzdvDqJyITKNjDsNyLiFiD5MvELUTTt3QUGBXXXVVUGv8jp16nzcvk2vcyEyjYw7Dci4k+eVV16xW2+91RjzzsQWy5YtC7RixQpbt25dIIbehMtDLV682G688cbgok3VZPpCJIJrrHfv3kG0jdq2bWu33XZb7F0hMo+MOw3IuJOH4TbDhw+3/Px8a9eunbVv3z4QhWPjxo2D9kX+DpeHatmyZTC2ds2aNcFFLES6YJY0Kopcc1ynU6dODeYsF6KikHGnARl38tBGSDsi7YVMdHHHHXcEIj0ZmvPNN9/88fJQRDy33357YPyKuEU6+eCDD2zPnj3B7GkDBw60u+66y959993Yu0JkHhl3GpBxlx/aFocMGWIjRoyw999/P7ZUiIoBo7777ruDCuOrr74aWyqynddff90OHDhgr732WmxJbiDjTgMy7vJD4Tho0CAbNmyYvfXWW7GlQlQcRN70NFeGJxpwrrZt2xY0bWzZsiWnZrmTcacBGXf5occuacmhQ4fmXG1ZCJFe6O1PP4RJkyYFs9yNHTs2aO6g8pULyLjTgIy7/Mi4hRBlhaaNVatWWevWrYMJc5o3bx6MWsmVcfcy7jQg4y4/Mm4hRFlhRjtmtqtevXrwYBgmz6G/DJ1ZcwEZdxqQcZcfGbcQoiy88cYbQZt2165dgwlzMG2e7MbDYjZs2JATnQtl3GlAxl1+ZNxCpBZGatDuu3v3bnvsscc+1t69e4NIlN7X8ctpE2bdQ4cO2YcffhjbSvaD0TB0jzkgmF8e8ZAYHs1KefLAAw/E1owuMu40IOMuPzJuIVILBTBPNKPdl2g0VLdu3axnz57Wo0eP4O9weadOnYJ5FDCIKN2D9CRnH5nljvZt5pbnlf+ZupaZGqOOjDsNpNq4Gce8fft2mzt3bvC0ooULF35KS5YsCSYsuemmm2zRokUfL2dd5lRmohKeLRwlZNxCpJaDBw/a/Pnzg7bf66677mNxj9WuXduaNm1qkydP/nj5lClTbPz48cEESFEakrljx47A0MInucWLWRgpD6OOjDsNpNq4SXFhwPSMpAbcoUOHT4naJU8vIjUUv5yLtFmzZjZjxozImZ+MW4jUwvjzjz76KEh7x4u0OBE2hk5ZU/h9hlZFaez6008/bfPmzbNWrVoFndMQ0TbDwmbOnGn79++PrRldZNxpINXGzc2zb9++IOpmukVmcIoXD+Ggtkyqi+lAw+WsS9qIG5PJCKKEjFuIzHD48GHr1atXMFFJLkCG8sEHH7T+/fsHndPoVU7nNPZx586dOTERCxUpGXeKyXQbN0MfaKOaNm1abEn0kXELkRnosEalf+LEiTkzvTBlBsZWt27dwLhp5yb1T7mSK5BVIFOS7gfeyLjTBD1CufG4MHPl+cAyblERcP+QLuaaY57reNHOy3sMN4pfzrpM7EFmLIrkonGH053yONb69esHne54kFE29vVhNre33347uIaSFdcd/RF4oiLZ1UTrJBLfU9rrVMadJrjxunfvHpzIqKXEi0LGLSoCxvjybPi+ffsGD7lhrnzEo2dpA54wYYKNHDny4+WoT58+QZo5qpN75KJxk0p+6aWXgs66mDbR6fPPPx+0DWcT/J7777/fpk+fHgxhQ2PGjClRrMfTE8kocP0lWide4bZp49+1a1ep+ixk0rg/5/ql6wrXta7zXCe7WF4cX3T9ynW5q6rrX66/ub7vShoZd/nJBeOmoKCfAU+UovYfihoyNyvtbfHLQ7E+61DwiMzyyiuvBB1BKewx7wEDBgSicKQDKL2veS9cTjsq6Up6X0e101MuGnfI448/bmvXrg3Go2djBzs6C1JRrFOnTnB90aEOQ05G7du3DyaVocNyovfjxXbZPkbPKKTSVGAyZdxs+Leu3q7Nrvtcy13tXD93FQWmfrarr2u9a5trnWu866+upJFxl59cMG5Mm0KdsaPcZKFIbzESgF7/8ctDsT59FnhOucgsFKRcb88991xQ8XrhhRcCEU1zPVJQcl7C5azDui+//HJk771cNm4Min3Ktkg7hLQ1o36YHIaI+MYbbwyMHO8oSYsXLw5MOBz6W5TYHtslU8T3UDEtTZNqpoz7hy7Md5FrqKuna5oL867t+oIrEae6BroWuPq7Orv4oY1dp7uSRsZdfnLBuJmJasWKFcHNw40TitQVkRs9QuOXh2L9lStXBsNaRPaAsfXr1y+IynOJXDbubAfjJk3OsF3m6SDjtmnTJtu4cWPKxPbYLp31+J5sNO7jXX9y3eya6QpT3Je4MO7Brl+4WC+eb7iquDBtTP9LrhB+aEkp9k+Rl5f358qVK++lppMJZNzRgqEqzErFZBgiGvC0KR4NSWcnpgDNJaJs3HQ2Y6gs05g+9NBDwdCoeDFtK/vHkNj45dyDrE/GpCJT6Bg37c7hfBuY7Lp164JJb1Iltsd2mVQnrCBkm3F/3YUBr3D1c1Vywa9dA1xjXVe5vuaKp7Krj2uki3bt41xlRhF3+cll46bgINrOVMVOlB8MIjTuXMuERNm4n3rqqSDFzOQqVIa5r+LVpUuXoLmK1/jlYTMV7d8VORKnsHETIWO2/K5Uie2x3Ww27h+7SG3PcjV3hcZ9oquhi/bqlq7vuuLBzGe4hrj4HO3hPVx0bOOzxRl5nutnrmtc7Fg317Sf//znr5CayAQy7mhBxzQKGXq6imgg485OKCdojqLswwApc+PFpCs8YIQOhfHLMTFS1HQQrcj2bxn3Ueh8hvFOcTVwhSlx2r1ruSa4OrpOcMVDD/JlLtrFr3Mtca11zXG1cCXTqa27i8+vcm076aST3ubCyAS5aNyMU+SBCAzDYexhLiHjjh4y7uyFVDfmm0g8UIToetWqVQnfr+ie5jLuo9B+jdFOdsUb9w9cNV0TXZ1chYd3YdwbXFtddEy7wPVPF23ia1xNXUTWiSCq/7aLdDy9z8+pVKlSuzPOOOMZOgFkglw07tfcuAcNGmzD3LiPyLhFBSPjjiZMAc1zG3gOdzYi4z4Kae18Fx3TClxhqvwnrvouUuWtXd9zxUO7+E2upa6rWRCD5Zj5cBefSartOy8v72x1Tvs0L7/0ku3YcbfdvOFWWxXT6g0bi9QNS5dbQZt21rxdR1u0YmXCdQpr5fqj2924ebPtfeyxYEaibETGHT1k3NGETlm0Za9Zsya2JLuQcR/lm67qLgyYYWChcTMZC23WdE6r5vqKK56LXKTRh7n+zoIYTNyCoY9wneIq3Bs9IW7c/zjrrLP2qXPaJ+y4Z4d179rF8uvXtbZNG1sbV9uCJkWK91s0queqX+K6H8vXa9m4gTVt3NBm+k3A1JTZiIw7esi4o4mMOxrGTTr7Hy7S3ozd/qoLSHvT/kzkTEq7MMyW1sY1xkWUHUKntTDipkNbUhG3epUfy7qNm6ygYX0bXP8qu7l7I1vjWtmtYZFa3b2x3dK/hd3Sr4Wt8r8TrROvVa71PRvZgva1rUX1f9nAIUPtxZezc7ytjDt6yLijiYw7GsYNTG2KAdPBrL2LFDnDvOg0Rs9y2reZUIXZ1Wj75ocwPIxIm4icdvC6LiZrGeXic41cRbVxH4OM+1jW3LrJ2nhUvKZbA/toVnf79/Xd7ciMbinT267/zulhh8e3s4FNalj/ocPteRm3SBEy7mgi446OcTMzGiZMepto+X4XPcSZApXe4T9yYczNXIzfZrIVImk6mNE+TmS+ybXdtdBFZzeGeyWNjPtY1mzcbG2b5dvKrg3svZlHjfa1aV1TptddH3iF4OC4djbAjXvAsBH2gow7bXCd0dsfYWqhmKiEwp/X+OXhehRUUYTfLuOOHjLu6Bg3YMZ/dNFBjeFf9Cg/w0XUTPr8LNefXXRmi58VDYO+0sWQMlLnpMqJ4JNq2w6RcR/L2phxL+/SwN6aftRoX5raJWV62fWOVwieGNPW+rtxD5Rxpw3m896yZUsw9zHiqVmheLQsBRDXYvxyhvXxIA72PYrIuKOJjDtaxl2hyLiPRcb9CVE3bgobCkJmo0JMchGKB6TUqFEjeIhK/HL2lydsbd++PbaVaCHjjiYybhl30si4j0XG/QlRN24mreC51TwxCzHtZCgKh6ZNm9rSpUs/tTxcj4f5R5FcNm4ehoNxT5o0KWuHUJYVGbeMO2lk3Mci4/6EXGjjLgoKSB59ee+998aW5Aa5bNw8lpT9omDPNWTcMu6kkXEfi4z7E3LZuJcvXx4UlDxGMJegoJswYYL17ds3eA53NvLhhx/Yyy+/ZAcPPm1P7D9k+1y8lqTNW7Zb67adbcDA4bZ7z/6E6xRWsO0Dh+zQocP25ptvVPjUoUUh45ZxJ42M+1hC417hxn3EjfsNN27MNlV6xfWuG/d+GXeFsmzZsqCgZKrJXOLf//7Axo0bb31697Fnn3k2tjS7ePHFF2z+vDlB2rtb996BuvfoU6Lad+hides2tEaNC5L+TFe2362nDRzQ301hQ9am2GXcMu6kkXEfC8PB2rlx39y9of1ndnf7cFb3wGhTJYaY2dwe9tzE9ja4aU0NB6sgst24P/zoQ3v88cfsFqbcvWmdrVqxzl/Xl6hlS1ZZh7ZdrVl+a5t7/YKE6xQW20Y3r11vu3Y9YO+8+07sV6SHfU8csG5du1ijOufY0J7n2eh+F9jw3heWqFH9LrFJw66yCUOusBF9Eq8TL9Zh2706/NPq1brEpkyd5vv2XuxXZBcybhl30mTauOn0Qy176tSpWZuyWrdps7UuyLdZ7eraE+M62uNjO9ruMR1SpkddByZ0tLsGt7TuDavboOEjNHNaBZDtxk1b9Zy5c6xRk/rWqGltK2hZ39WgRDX19Zo0q2uNm9Wxpi1K8Znmda1ew1o2evRIe+7Z9Ebqex570jp37mYjep9rB7ZeYC/ce6E9tf2iknXnxXbo7kvt0F2X+P8XH/t+IT1950X28v0X2l03nWedWl1uY8fPsCNvy7jLgow7i8i0cR86dMh69uwZnJhsZfNtt1nTJo2tybXXWJ/mDa23q1ez1IrtdmpU22pVucpGjBxlr7z6auzbswsZd8Xx1ptHbMyocVaz4WXWbdzVNvSGGjZw1rVJqIaNWFDfRi5sYIPn1Erw/rEaMq+G9ZlWzWoXXGzdunW3gweeiv2K9PDonietS5fuNmHQ+fbKAxfZv/debK8/dEnK9cbDl9hHT1xsu2+9wLq1+5eNkXGXGRl3FlFW437n3Xf95ttj27ZutTs23xZo25aStXThYmtV0Nz6dO9pW27ZmHCdUEe3u8W23b7VHtm9O2OPzDxq3E2sec0qNrhVo0ADW6ZWQ1o3tp75daxu1att+MiR9sorMu5Mk/XG/YYb94gJVtChik3bUt9ueqKZLX64wBY/lHqteLyZzb+3ibXpd4316N7LDjyR3t7oRNxdu/awMf0vsMN3HzXt53ZemnI9f++l9tYjl9h9ay+0rm2vsHETZsq4y4iMO4soq3EfPnzYxowZY43ym1h+i2bWtGULK2hVsvKbN7N6jRpaA49oC0r4DNvMb9HcGrqJDhsxPBjDmQlu3rjZ2jTLtxs61LPDkzrZ0xM72f7xHVOmA67npnS2B4a1sl6NrrVBauOuEFasWBE8//jOO++MLckuMO6xIyda0w5Vbeqt9W3powW24P6mtuC+1OvGRwpszl2NrU2fa6xnj9725H4Zd6aRccu4k6asxv3E43uDAv3S+jWt9pBuVndkb6s7rGeJauDrFUwYbPnjBlq9BO9/SiN6W+2hPezShrWtddu2tvuhh2Pfnl7CzmlrY53TmFec4VupEh3U6Jz27AR1TqtIVq9eHYzj3rlzZ2xJdhEY9yg37vZVbfL6+rbEo+35O5va/HtSr8UPFtisbY2tdW8Zd0Uh45ZxJ02ZjXvPY9a1Sxer0aOddbhlvnW+40brtHFBydqEFh5Vovfj1HnrjdbR16/Zt6O198ho964HY9+eXuLHcYfDwRKNxy6rGBKGeWscd2p4/bXX7bHHHrN7H7jPdtx/r93zwL22MwmNHj/WGhU0sevnzk74fmGxXXTfrvvtiX1P2NtHjsR+QXqQcZdfMu7UIePOIsps3I89/mnj3rokofmWR51vX2Id/bVmn5hxP/hQ7NvTiyZg+YQoGDep7r69+1jrVq2tXTu/Htu1T0oFTZta/Xr1rUWz5gnfL6z2vm2237pVKxs+bJg9uvvR2C9IDzLu8kvGnTpk3FlEeYy7W9euVqN7W2t/8xzrtHmhdVw/L6UiKu/grzV7d7AOHTvKuCuAKBj3spuWW8Na9axH3bZ2XbvhNqXtEJvUZnCJmtF5lM3pMd6mdRyR8P3CmtJ2aKB21za1ZvlN7Y7t6Z1xTcZdfsm4U4eMO4uQcR+LjPsTomDci5YvsdaNm9uq3tfbi9ffa4euu9OenLqtRB28zjVte/Ca6P3Cemb63fbsjB02u+Noa9OilW2+47bYL0gPMu7yK0rGvXXr1qCz5IYNG2JLsgsZdxYh4z4WGfcnRMW42zRpYWv7zrZXZ++y59xcD02/K+V6YebOoGIwr9M4a9uitYy7HMi4j2Xz5s3Wrl37wMCyERl3FiHjPhYZ9ydEwbgXr7gxMO6VvWfaczPvCSLo/VO3plxPT7szMPBZHnG3bdnatmy7PfYL0oOMu/yqCOPmwS633X6bLV263BYtWRZo8Y3LS9SgIcOtTr2G1rf/oITvxyvYpmvVqtX28EMPZWT6aBl3FiHjPhYZ9yc8/PDD1rlzZ1uwYEFsSfYh4y6/ZNypY8fdO7yy29Ea1a9jbVrkJ63WrlbNm/hrk4TvF1bzpg2tUYO6NnXKFHvttddi354+ZNxZhIz7WGTcnyDj/kQy7tQRb9zPuHG/4cb9PEabYr3gxn0kw8Z9y62brCC/sQ3s2tTWzh1sa+YMspXXDyxRa+cOtQ0LR9raeUMTvh+v9fOH2A0Te1qLxjVtwMBB9uJLL8W+PX3IuLMIGfex5Kpx81CXp58+ZNu23WEbb91gt96yzl/XF6uZM66z/CaNrH+/PgnfT6Sj291gd27fbocPPxP79vQh4y6/Mm3cj8aMe+Lg8+21By+yD/ddbG+6waZab+2+xP6z/2J7dNMF1qP9FTZ2fPqNe92Gjda6ZTNbPLWPvfrQEnt510J77t4bUqo3d99oj22ZYX27NLP+Awbb8y/KuCHTxv1l1/ddP3J9x/VF13GuRBzv+pLr2y4+84OYvuv6qivPlTQy7mPJVePmBli5cqW1aNHKGjdpagXNWlqz5q2KVX7T5tagURNfvyDh+4nEdhs1zrc2bdrYOr8R0/0UuFw37oJwytM9uTPl6WOPHzXuIT0vtEduvdSe3HaZ7dl8ecr12JbL7ek7L7MtSy6yjq2usPETM2Hcm6xNq+a2cHJve2nXInvh/gV2eMf8lOrVhxbb7k3TAuMeMHCwvZBB427evLldf/31tmXLlqAH/Pr161Mmtsd2p0+fHnxPNhv3Ca5arpmu5a4Rrn+5MPBEYNCXu0a6Friuj2mw62oXJp40Mu5jyVXjPnrjTbfqNepas7b9rNuAadal7yTrXIy6D5hq/YbPsl6Dpyd8v7C69J0cbDe/VW+rUauezZ831/7zn//EfkF6yGnjHunG3bGqTdvSwFbsS99DRpbzkJGdTaxtv8wY9xM8j7tbd6tX61Lr06WqDexZzfp1r55y9XcN8m13an2l1al1tU29boa9m+bncWPcbVs3DyLuV9xgX3pgoT2784aU6o1HltieLdOtX9fmNnDQkIwb95w5c4KH8xAd33rrrSkT22O7VAyy2bi/7qrrmuVa7VoTe53uOt9FdF2Yn7m6una4HnQtcs13YeRVXT90JY2M+1jW3Oo3XkETW9OtoX00q7v9+/ru9vaMbinTOy7mKn9mQnsblF/D+g8dbs9nxLg/CFLfjfJb2ZAJK2z2Tbtt+pJ7bdrincVqekyJ3ius6UvuC7Y7YMxia5jf0ubNnS3jLiNH3jxi48dOtHr5Vaz3hNo2ckEjGzbHNTv1GnlDIxs4o741bHmV9erZ2w4+mWbj3n/AunfvbnVqXmo9vGLSp2t169U5DepS3fp2q27tfb9q17zarrtuetqNe+OmLdaieYEN7O7X5OxhdtOsIbZ05uCUavXcYTZ3Yh9r2bSeDRky1F566eXYt6ePjz76yGbPnm0NGza0fv362dSpU23ixIk2YcKElIntsd3evXtbo0aNDF8qTfmRKeM+w7XQdYPr766fupq61rowZ6Lxwpzmauea6+riOtWFWbMuFYFS/di8vLx/uHHvk3F/wlo37lZNG9uiDnXspckd7flJHe3QhA7F6plJnQIleq+wDrtendrJHhne0no3rGYDhg7LUMQdGndrGzphuc1a8UhSxl0aYdxsF+OmgiDjLjtvH3nbC7JJVqXa1Va3UXXLb1nHmrRIj/JdDZvWtKur/Mv69O4T9IVIJ2GqfHCPC+3B9Zfavtsvs4dvvTzlemTj5Xbgjsts48KLrUPLK4NU+dtpTpXffvvtlp+fb7WurRr0EG/dvEnQWzyVauPbLWhS36pVudqGDx+ekccCE/kyLLRGjRpWp06doA26oKAg5WK7tWvXtpo1a9qiRYtK1dSWCeOmHfsS1zrXaFcYXZ/pmuIa4zrHxXrx/NLV0jXKRcq8XLhxn125cuW9pe01nMvGvXHLFito1NBaV7vcRhXUsBFNa9jwYjSyWS2b2K5RoBH+d6J1Cmt0s5rWv2FVq3fN5TZs+Ah7+dX033gY9/Uzr7PGTdvYsEkrbc7KPTZz6QM248b7UqaZS3cF2x00bql/T2ubP0/GXVaOvOUR97iJVrvhNdZ5SC0bMKWh9Z3QIC3qP7mh9Rxd1+rmX2m9evW2pw5muHPaE2nsnHbgYtuTwc5pmzZvsebNCqxbu3ybPaGvzRrfx2aM7Z1SzZnY1yYM7WJNG9a2IV7xf+nlzEXc9evX93PX1UaOHGnDhg2zoUOHpkxsj+0ykqVBgwZZGXETIddzkeYmgq7kAiLoFq6xrsYuOqHFQ8Td0bXMNc51oess149d4TaKgve/5Trd9RfX3ytVqtT2jDPOeIY2i9KQy8a9Z8+jNnnSROvpBViPPn0D9ezbr0h16d7T6jVsbPUbNbauPXolXKewgu16ZNO/f39bs2qVRwFvx749fdBGNWvWTKvXIN869x5nwyYutcFjF9qgMQtSJrbHdjv0GGX1G+b7jTcv7ca9aMUSa5vf0tb1m2Ovzdllz7t5H55xd8rFrGkvzbrP5nceHxj35gx3TltG57QHmh7toJZiLd1dYHPubmxt+lbAcLAdF9sbD18SjLlOtV6471I74uZ9/82ZGw62/pajndMWTOoddEx77t759tTdc1Mqeqo/fOt11rdzswpp4/4sd047xVXgmubCoEPTpWd5HdcEV3tX4XQ56XR+1DbX464NLjqptXbR/l0cn3Od7ermom18pWvbSSed9DYHqjR8bNw93LjXzbVOWxZZxw3zU6pOmxdZB3+t2Sezxv3+e+/Ziy++aE8dOmxPJqF7dz1oXXr0tO5uxLse2Z1wnaJ0+Jln7Y033ki7uQE1Zm6E6tfWsFp1GliTglbWpGnL1Mu3S8e0mjVrlTrVVRbCiPsmj7ifnbnDnrzuDnti6u0p11PTttvT0+/MWMQdb9zXbaxvyx9rZgt3FdjCB1KvZY82s7k7mlSIcefaBCyhcdOr/MUHFtrz991gh3bMS6leeXCRPbLxaK/yijDuWbNm2W233Wa33HJLYLapEttjuww3y1bjJnIm5T3ZVd8VpsrpFV7DNdHV2cWQr3joVU7HNX7YINcAF6n1GS6Mnmi6KBgq9nMXndjYdk/XzJ/97GevUoMqDaFxEw139Gi7y53LrPNti1OqLtuXWSd/rdW/c0aNu7S88847NmTIkCDF88EHH8SWZh8fffShzZkzy2rVrmcFLbtY557DrWP3ISnW0GC7TZp3tDp169vChQvSbtwrVt1kjes3tG6N29nkLsNtQqchNr7T4JRrYqehgdrWbWYtmrewbXduj/2C9JDL47g/C8Y9b0JPO3zPfHvaI+T922anVIzlfmD9FOvdqSDjxv1ZH8dd1oj7Cy7Ga4dt3/w42sXpVb7R1chVEowRD3T88cefV6Ze5Y/vDYy7Wrtm1mreeGu7eIq1uWFiStV20RRrPX+iVe/Y4qhxP/Rw7Nuzi5dfftkGDhwYtM8QPWcrR9u4pwWdxgaNXRy0SU9dsN2m3LAtZZq64M5gu/1G3uDf09Lmz5uT9mzCqtWrrV6dulb/2jrWrkkra9ukpatFGuTbbdzCalW5NihU7rrrrtgvSA8y7vJLxp06ZNxHSbaNmzbpkiCSbuZ6xEUUnTR5eXl/KkvntP1PPGHdunWzK6pVsbotmlr91s2tfqtmqZVvs27LAruyepXgcXd7/KRkI6TVMW46V2RizuCy8knntNY2dOLR4WAzUtyrfEZsONjAMUv8e1plxLiX3rTcmjVsapPaDbHNwxfbhiE32LrB81OuW4YutFtdQ5r1sNYtWtrW7XfEfkF6+JRxb3DjfsSN+143Wsw7xWIs96ztjWXcKUDGXXZFwbiJmC91rXcV1av8b67CM6gV1QGtTMZd1nHc+/cdNe6ratewBl3bWeNenaxR9w4pVeOenaxht/Z2Vd2agXE/unt37Nuzi2gZdxhxL/HI+P4gQp5yA1F3ajR1wV3BdjMZcdM5rZ1/14b+8+zNuQ/bS9ffG/QuT7VemfVA8NjQG7pMsHZB57T0P9ZzzIgJVtCxik2/rYHdtL9ZYN5E3qkWk7vccN/RCVh6dO9lB56QcZcVGXfZFQXjhv9z0UmMzmWYdPw4bsZo01OcsdnfdJEix8SJwH/hIjI/yXWy6zwXw8NuctV0JU15J2C5tmtra7dypnXcMM86rJ6VUtGzvL2/1ujRLqvbuGXcn6gijDvsnLa6z/VBz+9D0+60J6/blnI9M/1ue3bGDpvTaUzGOqeNGTneGrS40oYvqmEz3LyneOSdjKZtbGzTNzWxqbck95npWxrY+NV1LL/jv6x7tx6KuMuBjLvsiopxY8gNXHNcq1zMmoboaMaELEyscpWLKVHpdPZ5169cnVzMrobhz3OtcDHtKal1jDxpymvcNXu1t44bF1iX7Uut8+ZFKVWXbUuD3uq1+mV35zQZ9yeqSONemWvjuI+8bZMnTbbqta50877CmnWqYk09+m7aoXgxRWqb7rWsbc86/plqCdcprALfduO2V1uVmpda37597FCaJ2CRcZdPMu7EZMq4iaDpRR5Oe4oBEzlf4aIDGj3Ir3TRyxzDxrjp1EZanF7nzJ7G56a6mrh+4ioVmvK0/Mi4P5GMO3X8+9//tq133B5MAzly+BgbNXycjR4xvkQNHzLaCpq0tIb18m1AvyEJ1yksto3GjBnrBehqe/319F7HMu7yScadmEwZN2DeiZ4OBrR7f8X1NRdjsFmXH/MNF53bwieD8TdGX7g9vERk3OVHxv2JKjZVPstenHVfkCrHvFOtTKfKGUb3/r/ft7feesveeP1Ne/21N4PXkvTcs8/bsKEj/P7sYY88/GjCdQor3Pabb75l7733btrPmYy7fJJxJyaTxl2hyLjLj4z7E1WEcS9cvsTaNG5h6/vNtTfnPhS0c8d3KkuVXp51v70y+4Fg5rQ2LVrZ5jvS2zmtPBCl8yCIV15J/xz4ZUHGXT7JuBMj4y4BGfcnyLg/UUUY95LlS61JnYY2pllfW+fmvbr39UHavCTdPGBuMHRsTf/ZCd8vrDUe0a/pO9v6N+hkzfML7LZtW2O/ILt49913bezYscETlg4dSm9bdVl5dM+T1qVLdxs/6Hx75YGL7P3Hj5p3qsVUqh89cbE9cusF1q3dvzIyV/m6DRvduJvZoim97ZUHF9uLDyywZ3bOT6lef3iJPbp5eoU8j1vGnQXIuMuPjPsTVYRxc6MTAWPerZu0CNLmyah14+bWysVrovePkUf1bL9R7XrWrUtXu//++2O/ILtgJr/QuJ9+Or29w8sKEXfnzt1sZJ/z7OD2C+1lN+9DHnmXJKLzZ+651J7ZcUnC9wvr8I6Lg4eY3LPqfOvc+nI37hkZMe5WLQps9thudvCuOXZg+yx7/PaZJWrv1uvtiTtm2T5/TfR+vA7tmGv3rp1oPdo3kXHHIeMuARn3J8i4P1FFGDc9oHkI/+JlN9qCZYtt0bIlSalHv95Wu2E9GzJqWML3C2uhb5vt3+gRPo9ufCkDhWVZiIJx79t3wLp26WJN6v7DRvU91yZ45E3avCSNH3SxTR91lU0dcYWNHZB4nXixDk8g69f5HKtX62KbPGWaH5/0GvfmzVusaX5ja9Wkpo3q18ZG9m1tI/qUrLGDOtiUEd1t3KCOCd+P15j+ba1/lwKrV/OaYLrlTDwdTMadRci4y4+M+xNVhHGXlWXLl1u79u1s27ZtsSW5QRSM+4UXnrc5s2cG5t25S7cgbU6bd0lq166j1a3XwBo1zg8+l2idwurs2+7cuYv17dPLNmxYl/bnCTBR1NixY6xzp86+X12ti5eTXbvyW4tXi5YtrU6dutaseYuE78eL7bJPPXp0t+XLlgYdGNONjDuLkHGXn2ga9402Y+kDNnXhXTYF806Rpi68O9huv5ELst64V65cGczIt2PHjtiS3CAKxo15Yt5E3qTNeT43ryXpllu3WqvWnaxf/2H24EOPJ1ynsNj2Y48fsCefPGivv/6q/fe/6b0e3/Xjf/jwYXt87z7//r1H9bj/XYLmzrvB8gua2/QZ1yd8/1MKtrnX9u8/YK94tF0acysrMu4sQsZdfqJk3DNnTHVDbW3DJq20Oases5luskTIqdLMpbuC7Q70igHGPW/urOyNuJcts/bt29sdd6R3zvFMEwXjLivPPfdcsF8U7LnG9u3braOXczT7ZCMy7ixCxl1+omXc06xO/Xzr1v86GzVtgw2fvCow8aI0YspqGz3tZht13dqE7xfW8Mmrg+126jPR6tZv4sadxalyGXfkOHDggPXs2dMmTZoUGEkusWXLluB6xMCyERl3FiHjLj9RMe6PPvrIOM+1atW1WnWbWKOCdtaoaVtXmyLVpFl7a966ixW07JTw/WPl2/Pt1qzT2OrWrW833nhj2p/HXVZk3NHjiSeesB49egTj1N9///3Y0txg06ZNwfW4Zs2a2JLsQsadRci4y09UjJvI97777/eoe6aNHzfGNdomjB9brPr17WX169Wxdm1bJ3w/kdgu2581a5Y9+OCDMu4MI+OOJjJuGXfSyLjLT1SMG7j5mKDj7SNH7MiRt/y1eG3fvs3at2vnZj8j4fuJFGz37SPB92RzOlPGHT1k3BWHjDuLkHGXnygZd2nZs2ePdenSxRYtWhRbkjvIuKOHjLvikHFnETLu8pPLxs3sYJ06dbJ58+bFluQOMu7oIeOuOGTcWYSMu/zIuKOJjDt6yLgrDhl3FiHjLj8y7mgi444eMu6KQ8adRci4y4+MO5rIuKNHLhv31q1bg5n8NmzYEFuSXci4s4iUGPe6udZpyyLruGF+StVp8yLr4K8y7orjgQceCIx7/vz5sSW5g4w7euR6xN2uXTtF3DLukimzce95LHhAQI1e7a2jR9td7lxmnW9bnFJ12b7MOvlrzX6drL3XRB/Z9WDs27OLXDbuxx57LOhVvnjx4tiS3EHGHT2ibNwvv/yyrV69OjA9DIksVrz69u1rNWrUCPYvfjnzIcyZMyfIflXkLIQy7iyiPBF3Z4/ErmrdxJrOGWPNF020ZvPGlagW8ydYm8VTrPXCyQnfj1fzhROtYO44u7pdU2vrNdFHFHGnjSNHjgSFPFNKPvXUUx+Lm6l58+Y2bty4Ty1HBw8eDNY/dOiQvf3227EtRQcZd/SIsnFzz4wcOTIwJFLiZLLixTzloeKXt27d2tq2bRtE4qUxsVSDcWPY/H4qE7fddpvdcsstQWo/VWJ7bDf8HiosMu4ElNW4n/QCu3efPnZljWp2bbNGVqNlvtVsUbJqt2xq9du1tHptmyd8P141XNc2a2xX+Hd07d7NHvfoLxvJBeO+9957bcCAAUGB0qtXr49FgVGzZk3Lz8//1HLEnNGsP3jwYNu1a1dsS9FBxh09omzcVG4xFp5Gd9999wURdLweeuih4H1e45fv3LkzuD+feeaZCp2FMDTugoICu/766wODxWzXr19fokJjTvRevFiH7U6fPj34nmw27i+6znblu9q7rnX92sXykqjkOslVzcXnfhpbljRlNW4Mar0f5GlTp9p1EyfbNNf0SVNK1MghQ61J/YbWtkUrmzphYsJ1QrFNtn3dlKm29ua19tJLL8W+PbvIBeN++OGHgwc3sA8U+qEoILmJpkyZ8qnlaMyYMcH6vMdELVGDtCXRDQVjLiHjFumAZx1g2LVq1Qoq7Nz7gwYNCsq+4sQ6ZBrC8iLROqFYl3WoUNeuXTtoKihN80CmjPvzrr+6hrlud93vWuPq7fo/V0l8z9XM9ZBrm+tfrs+5kqasxk3NjxrY+++9b++/+17S2v3II0Hb+IRx4+3NN95IuM4xeu+94Pm9/0nzc3TLSi4YN+eSAp+ogNdQTFtKAfmen4P45aHC9bmpsxGuU34j7YvolVde+VjU5lu0aBE0B8QvD9djn6MI50PGLVINkS9t0Jg2zWek8JNVkyZNrGHDhkl/jjQ5zQSkzkuTZciUcRMtj3ItdhFt13eNdK1yNXF9xVUcmP4y1xuu21xXur7kSpqyGndZId1DinXatGmxJdEnlzunRR0qFKTf+vXrF4i0fihM+9prrw1q9/HL+/TpE5xLUppRRMYt0gEG+vzzzwfp+23btgVNTLyWJNbr37+/NW3aNHg6YaJ14sX6PJuc73nhhRdi354cmTDuPNffXRtc17m+5oJ/uha5hruIuhN9+fEuTB9zv9FFpD7LdYHry66kycvLq+zsXbBgQWzX0ws3Xvfu3W3y5Mn273//O7Y02tCxa8iQITZixAgVJllGaNz02EWk4kJxvkjfDRs27FPLMTzO59133x3bSrSQcYtsg97hXbt2tX379sWWpIdMGPc3XdVdS109XWHb9C9dPVxjXbz/DVdhvu2iTby7q7lrnmuu6yJXScZNhYH2c6L5r3rEffmZZ555IFPjdKNs3LS1xKeMSSMjeosSpdG5i4xCuDxUuD7pfpFZwlQ5/SNQmDJHZEdef/11e/XVVz+1PFyPcxdFZNwi25g9e3YwrDTdfWEyYdwnujDfma4C13Eu+ImLlPl4V2sX7diFIRKf6MLgz3INdN3gutRVnHGzI6e7GrgGu4I0/amnnvo64/MyQZSN+7nnngsmIiFCY3jU+PHjA/F/vXr1rH79+kEUFy4PNWrUqCCyI/1TmvYaIcqCjFtkEwQ8dGrr3Llz0Ak2nWTCuH/hauGa7MJISX/DD1w1XRhzJ9f3XfHQcxxjx6zPdX3V1dlFxM3/RNRFQce1M10dXbNdpOQ3nXzyyUfoOZwJomzcFIIYMbMbUXjQVo8YGhW2oYbDpOLFBdutW7cgZVuREyiIzwZcYxMmTAiaBuh/kUvIuKNHrhn3z12kuae44o37h65argkuDPYEVzy8N8fFZ78VEyaOCdOrvLgObUT1GD1RPSn50ytVqtTwN7/5zdN0u88EUTZuCgpS4fv377cnn3zyYzERCcsRf8e/h5ikhFd1XBOphgwOBWO86HMxevTooNLI9Vj4/ShnfWTc0YNrLpeM+8euxi46lWHCYRs3KfSGLlLlLV3fdYUQTfd1Peta7+rlIt19l2u/C/Ou6vqOK0y9F0teXt5Z6pwmRPR48803g+E53EtMjEHhiJgukh68devWDZpowuWIdZcsWRJUMqOIjDt65Jpxf91VxbXC1c8VGi2Trwxw0TmN4V3xE7Fg3I1cW133uG6J/f20600XvcsZVkalIFnjPieTw8Fk3EKkBjrRTZ06NRjWxkQyFIyh6MGL6BAULmNcLOvSY37v3r2xrUQLGXf0yDXjJjX+Z9c61/WuMCV+iWu5i85jpNPjDZi/f+T6o+sfLoaTkR5f6GICly4uOq4lM+taQKbHccu4hUgN3D80w/AEN6bJpFBEjzzyiD3++OOBOe/evfvj5Yh1eY90ehShmSo0bpUf0SDXjBswYaLrJS6MmuFd01xE4UxhSsc0pkP9m+tkFzOtFYYKwAgXE7EwjjsjU56WlVw0bvaD8YkUKsxAJoRID88++2zQW57mABENctG46eX9exft1ltc97mIttu56EBGR7W6LoaLVXYl6njGsq4uOrOd4/qCK2lk3OWDaQAxbQoShtTRGagin+AjRC5AGpymAIZgMlsXM2ghJsVhpjtmtmOUR7icdViXDqC6/7KLXDRuIIqmh/cVLqLs81xE10TOTF96musMF6n0RD+EZXyeCgBjvsPe6Ukh4y4fFBg33nhjML8uT9JauXJlUOAIIcoO6XzGojOMkukymdwI0W7PQy6Y95rhbuFy/qZcoZMtk+qI7CFXjbtCkXGXDx7Px7Cb6tWrBw/BZyx3ui9OIXIdygnKCAyZCY5C8ZQpxqgzAdLw4cM/Xs4c89x7VKLfeOON2FZENiDjTgMy7rLBWFimxLzpppuC2v9VV10ViOdWr1u3Tj1ehSgH9BVhuFs4LW0oTJmOdW+99danliPWZXpbjEJkDzLuNCDjLhsY84MPPhhEADVr1rRrrrnGrr766uAZssyuRs/eXMgoCCFEeZBxpwEZd9ngwRTMNsdzYzFuHg+J+Ltly5a2cOFCpeyEEJ95ZNxpQMZdNujBykQWRNkYNh1mEG3dRN9E4uqkJoT4rCPjTgMy7rJx+PDhoFPaJZdcEhg3KXJUrVq1YBkdZehxLoQQn2Vk3GlAxl02MGV6s1apUuXjiDtMmVetWjV4yAPPdBZCiM8yMu40IOMuG/RgXbRokbVq1epjwyZNzt9t2rSxpUuXBj1fhRDis4yMOw3IuMsGv33Pnj3BeFLGb8f3KmffmCf6gw8+iK0thBCfTWTcaUDGXXYw5rVr11rjxo0/HsdNL/ONGzdqznIhhHBk3GlAxl0+GMtNRzRS5LRzM4MTF48QQggZd1qQcZcPOqCtWrUqePABzztm1jTGeAshhJBxpwUZd/lg6lOeCDZnzhzjGD7zzDPBMiGEEDLutCDjLj+0Zx86dCgY261HCgohxCfIuNOAjFsIIUS6kHGnARm3EEKIdCHjTgMybiGEEOlCxp0GZNxCCCHShYw7Dci4hRBCpItcNe6vus519XANc7VwVXZ9xZWI77pYv5Wrj6unq4vrX67vuEqFjFsIIUS6yEXj/pLrItd4122uHa51Lgz8LNdxrsL81JXvmuu61cX6vE52XeH6titpZNxCCCHSRS4a96muKa5Frnqui11E0WtcRNRfdxXmm64zXH9zEXmf52rgGuOa5LrQlTQybiGEEOki14z7cy6Md4OLaPkLLviLa55rpOsPrs+74qkUe40HM8fwN7uasiBZZNxCCCHSRa4ZNyntmq7Frq6u0JB/4erkGuuq7cKUE4Hx895PXJe6RrvmuK50JU1eXt7fKleuvE/GLYQQItXkmnGf7CI6nuGizTo07h+7SJvT7t3W9T1XYTDts10Y/hLX3a6FLioCJ7iSxo37T27cexcsWBDb9fQi4xZCiM8OuWbcp7noQU6avL7reBf8wIUBT3QReX/fVRjS53Re6+yifXyn6wYX0fY3XEXBd7D9P7uuclWtVKlS39NPP/352bNnx3Y9vci4hRDis0OuGffPXM1dU10NXWHE/UMXKfIJLr68qAiaNnHS7Se5LnMNdI1zFdc5jUidoWa9XEtdN7vuOvHEE9+ZPn16bNfTi4w7WvCks48++ii4+YQQorTkmnH/yIVhz3a1dIXGjRE3cWHCGDvjtkuCSLqxa5uLH1wUrHei63wX6fgmxx133IjTTjvtxVmzZsV2Pb3IuKPF888/b1u3bg1uCJm3EKK05JpxM/EK6erVrsGucMz2/7mGu+icdomLKDkezDfR+G6Me4+rb/BfkuTl5f2Vzmlq4xaFefvtt23jxo3Wv39/oynl2Wef1WNLhRClIteMmwibDmYYN73BT3Hlua5xrXT1dzHZCstYNzTrb7mImr/m4j1+HGn3fq6tLqL0pAmNW73KRTzcbNxko0ePtsaNG1uXLl3slltusbfeeiu2hhBClEyuGTfQfs10pXQwo62bKJtOZgwRYxY0OpKd4yLyxsT5Ib92tXbRpj3INcBFB7dZrt6uM11Jo3HcIhGcmxUrVlhBQYFVq1bNatWqZePGjbNnnnkmtoYQQpRMLho3EfMvXR1dTF16lwvjpo0bU8e4a8X+/42L3uTMmsZkK3QuW+8iYl/uYs5y1mGbSSPjFoWhM9rBgwcDo65evbpVqVLFrr766uDGu+uuu3TehBBJk4vGDRgtk6gwROufrt+7MG1S4xg17zHmm+lPSZnTNs5QMnqH/9XF5/ibiLxwe3iJyLhFYV5++WVbs2ZNkB7HuIm4MW+i7xkzZti+ffuC3uZCCFESuWrcFYqMWxRmz549NmjQIKtbt67VrFnTatSoEYh0eZs2bWz9+vXBzSiEECUh404DMm5RmF27dgU3GVE2xh2KyLt+/fq2bNky9S4XQiQNo1LI4BEUpBMZd5qQcWc/pMLHjBkT9CYPI+5rr73W6tWrZ926dbMtW7Yo4hZCJM2cOXMC43788cdjS9KDjDtNyLiznzfeeMNuu+0269WrVxBlV61a1a655hpr0aKFLVq0yA4dOqQ2biHExxw+fNg2bdoU9I3ZsGHDp0TTGmU+2Tr6yMS/x/qbN28O5ohIBTLuNCHjzn4w5RdeeMGmTp0aRNukzDHunj17Bml0pcmFEPHcfffd1rVrV2vatKm1a9fuGFHpp3Nr69atP7Wc9fGDnTt3xrZUPmTcaULGHQ0+/PDDoKbctm3bIE1ObXnatGmBoQshRDxE3LfeequtXr06KDcKi+Y1pk5mnfjlrM/sjIq4S4mMWySCqHv//v2BWTdr1sz69u0bjOF+9913Y2sIIUR2IeNOEzLu6PDBBx8EKbCxY8cGPclfe+01tW0LIbIWGXeakHFHi9dff90eeeSRoEOaEEJkMzLuNCHjFkIIkQ5k3GlCxi2EECIdyLjThIxbCCFEOpBxpwkZd7TgSWE8g/u9996LLRFCiOxExp0mZNzR4sknn7RVq1bZjh07gl7mQgiRrci404SMOzow/AvTZkakSZMm2YEDB4IIXAghshEZd5qQcUcDHiJyzz33BI/3ZNY0ZlC76aabguFhQgiRjci404SMOxq88847wQNFGjZsGMxVXr16dRs+fLgdPHgwtoYQQmQXMu408cwzzwQPq2AqTZGdUKHiubkjRowIng6GcV911VXWvn374Ek+R44cia0phBDZg4y7jDAlJp2YmNM6kZiFq3PnzsE0mjw+svD7mIam1axYnnvuOVu8eHHw9B4eMEK0jYE3adLExo0bZw899JDOkRAi65BxlxHM9+abbw6itTFjxtj48eM/pQEDBlitWrUsPz//U+/zN6nYlStXBsOPRMXx8MMPB8/i5pGeNWvWDMTfiEfz0WGNNnAhhMgmMmncea6TXP9wXeg62/UDF8sT8WXXT11/dJ3rOsf1Z9cprlL/0FQb99tvv20LFy60Dh06BL2RSYvHC0Po169f8LSp+OWsSyp2zpw56gBVwTz44IPB+SDKDo0bEXnT5r18+XI9k1sIkXVkyriPd/3S1dm1wbXDtdBV4DrZlYifuVq6bnBtcq1z3eTq7jrNVSpSbdwU6C+++GLQCY3HQjKEKF50buLZrTy0gjHC4XLW5TPPP/+8hhxVMJwj+iA0b948iLLDdDmmTcaEx3sqVS6EyDYyZdwnuLq5MOuJrhGuua4bXdVdn3cV5v9cGPdA1wBXf9dM1yxXa1epzDvTndNE9kPWZOfOnYFJV61aNdDVV19trVq1CtLkL730UmxNIYTIHjJh3JVclV2rXZgu6XK40kUEjSmT/iYqj+cnrt+5fhj8dzSlTnp9uGuxC8NPmry8vL9Urlx534IFC2K7LsTRyVdmzZplderUCXqVI5o46G0uhBDZSCaM+6uuq12rXETPGDmc4RriGuu63MV68RCFf/Honx/zHVcnF2nzJixIFjfuv2HcirhFPDRX3HbbbUFbN50JmzZtavPmzbOXX345toYQQmQXmTDuH7kauWa7SH2Hxk3k3dg1ztXc9V1XSWD2pMxJuVdjQREQvbP9i118R/PjjjtuzGmnnfYS0ZUQ8TDmfv78+da6dWsbOnRo0GlNk+YIIbKVTBg3ncww5qmuhq7QuEmB13ZNcPHltIMXx7dcGD9t4z1dpNGL4nMu0vOsRzv6WtddJ5100jvTp0+P7boQR2HIF+Pu6em/cePGoO1bCCGylUwY9y9cLVyTXfVdYVs2Q8FquuisRvr7+66iYGjYBS7atom2/+4qnFqPh+9ge7SJX+a6slKlSj1PP/305yichSgMETajBN58883YEiGEyE4yYdykrPNdM1xNXWHE/WNXPdd4VxvX91yJoFPaea4pLqJntvV1V6nIy8v7Y+XKlfeqc5pIBM/hZiY1ja0XQmQ7mTBuUtw1XEtcDAkLjZvhXF1cdE4j8v6aqzCY9m9cQ130Sse0v+QqNW7cf1fnNJEIxuTTrj1jxgxbv3695igXQmQ1mTBuNsrMZ7e4iJrDnuJ/czG5ykjXb1mQgF+5BrlYD9P+pqtMaBy3KIqnn346aN9u2bKlDR482O6//357//33Y+8KIUR2kQnjhlNdtHETddPD/AoXvcPXuJg9jfZoxnIThWPOtFGf6KJz2QEXM60x/IvpUmnrZurT4trEj0HGLRLBcLBNmzYFD4RhulMeMIKJaziYECJbyZRxk95mfnLas2937XQxFnuw69cuhozRw5w2cGZMYwz3P10rXS+4nnCx/goXPcSvc/F+0si4RSJeffVVmzlzptWuXfvjCViYX54bQwghspFMGTfQC5wHhdCuzWxpmPRZLoZu0dnsry5S6syYRts2c5szBpsf1tbVztXRxXznRO2k0ZNGxi0KQ1v23XffHcyUVnjK0xUrVtgLL7wQW1MIIbKHTBp3hSLjFoXh4S9TpkwJHuFJmpyHjKAGDRoEUff27dv1WE8hRNYh4xafWXbt2mVdunQJIm091lMIERVk3OIzC7Ol9enT51OmzeM9eW3WrJmtXr1aEbcQIuuQcYvPLDwTfenSpdahQ4ePn8VN9J2fn28TJ04MjF3P4xZCZBsybvGZ5YMPPrC9e/fayJEjrVq1akGP8quuuiow8ttvv93eeeed2JpCCJE9yLjFZ5p3333XlixZYo0aNQqibSLvESNG2FNPPRVbQwghsgsZt/hMQxv2fffdZ0OGDAl6k7dv3z5o237jjTdiawghRHYh4xafeXiwyNq1a61Hjx42depUO3jwYDCjmhBCZCMybiEcUuM333xzEH3LtIUQ2YyMWwiH8dp0RuO53EIIkc3IuIUQQogIIeMWQgghIoSMWwghhIgQMm4hhBAiQsi4hRBCiAgh4xZCCCEihIxbCCGEiBAybiGEECJCyLiFEEKICCHjFkIIISJEpo2bL/iq6+uuL7vyXEVxnIv3v+T6musrrs+7KrlKjYxbCCFELpBJ4/626xrXeNccV1/XBa5vuBKBYZ/pauti/Wmueq6fuEpt3jJuIYQQuUCmjJsou5prumuDa7NrrWuS6x+uREb8TdfFrgmug64XXJj32a5S/1AZtxBCiFwgU8b9K9dc1wLXJa7fuIikMe+Oru+4CkN6/Jeuc10DXKtcw11/cpEyLxV5eXnnyLiFEEJEnUwY9xdcF7mItMe5wi8hcp7hGu36i4v14vmci3Q5y0mpj3X1cf3RVRbjPqty5cp7FyxYENt1IYQQInpkwri/66rjItomug7T4j9ztXFhyA1c33IVxTmuia7+rmSMm+8gYj/ZdYbrt5UqVWrym9/85tDcuXNjuy6EEEJEj0wY909dBS7at5u4QuP+kauuizbsdq4TXEWBcdMenqxxE63/wdXJRYr+RteWk0466cj06dNjuy6EEEJEj0wY92mulq7Jrvqu413wA1cNF5F0Z9f3XUVBO3dpjJsdoV2digGfGeZacOqpp742c+bM2K4LIYQQ0SMTxn2qq5nrOlcjV3zETQqdiLu9q7iIu7TGDVQQiLxpI//i8ccff/Ef/vCH/fPnz4/tuhBCCBE9MmHcRNJE2qSsadMOjZsUOoZOh7V8F+O8i+KfrtC4K7sw5FKRl5f3R3VOE0IIEXUyYdz0DL/cdbNrhCs07t+5mIyFzmlE1GEKPRG0V9P7vJuLFHip0ThuIYQQuUAmjJupSzHpZa75sb8Zt80saGtcPV0nujB4xI/gM0BkzfSoVVzMnjbGxThwovjCw8eKRcYthBAiF8iEcQNpcNLiGPcS1yLXChdmfL7rh67LXMyudroLUyYyJ9ImPX636znXE66trqkueponjYxbCCFELpAp48aEiappy8a4mYxliqu6i6lN6ZhW1UUv8N+6vujiM392EWVvcd3qWu/a5LrBxaQuSSPjFkIIkQtkyrgBI8ak6WXOEDGMnDnMgaeAMQELKXTS5axLupwngrEe6zNhC+JvtkEKPWlk3EIIIXKBTBp3hSLjFkIIkQvIuIUQQogIIeMWQgghIoSMWwghhIgQMm4hhBAiQsi4hRBCiAgh4xZCCCEihIxbCCGEiBAybiGEECJCyLiFEEKICCHjFkIIISKEjFsIIYSIEDJuIYQQIkLIuIUQQogIIeMWQgghIoSMWwghhIgQMm4hhBAiQsi4hRBCiAgh4xZCCCEihIxbCCGEiBAybiGEECJCyLiFEEKICCHjFkIIISLEZ8q4//jHP+5fsWJFbNeFEEKI6HHo0CG7+OKLD7q1tXfltHGf94c//OHJ+fPn23//+19JkiRJiqR2795t55577mG3tk6u3DVu58ITTjjh0BVXXGF9+vR5r2/fvu/467vpUF/fNurfv/9b/fr1OxIuK7xelNS30D6F/ydaN2rqe3Rf3s6l84X6xs6RK9g3XsNlidaPkvrG9oPzFdu3nNgv1De2L7oeo6O+sX3IxPXY149bfn6+/ehHP/rQfW2E6/OBw+UoZ7rmu+5wLXLd4FqQJrHtVa6HXfe4FrsSrRclsU/LXbtcD7iWxpYlWjdqYj/WuXa7tseW5ZK2uh513Rq3LBe0xHWv6yHXSlcuXY9h+bHTlQvlR7w2ubgeb4tblgta6LrLRTlysytd1yM+tsbFfU2q/HOunOWrrl+5fu/6peu02Gs6xLavcFGYTHb91pVovSiJffqni0rPPNdfYssSrRs1sR91XJj30NiyXFJv1wZXQdyyXNAfXDNcy1wXu3LpegzLjymu37kSrRdVtXbd4uoStywXhL+McmHaNVzpuh7Z7hkugtETXZVcIkX81EXNqE/wX27wNRcFyVhXrqVnMIEbXa2C/3KL+i7M7dzgv9xiiOt61/eD/3IHyg8qyP2C/3KLS1xk76oH/+UW9PImQ/J/wX8iclAjIpVHwZIrqYwfuSgkp7q+zYIc4h8uIhw6e+QazVyrXZcH/+UOX3aNdpGS/BkLcgjKDwxgmCvXKslVXGtdDYL/couerhWuPwX/ichBepwoZ7jriyzIAUjLzHFNc53AghyCaJR2o67Bf7lFSxfpuyuD/3IHMkDjXDTfkD7MJSg/6Ecy0vUlFuQQRNo0SzUO/ssdSFmTYaV/wl9ZIKIHBQkpZVInuVJj/oFrsIv0Xa5F3JVd9EfItcIEarrIkuRaqvwrrm4uzI3Uci5B+THGRQYoVyr+IfRHuM51TfBf7oBxN3dNdNGXSkQQItKqrvNceSzIAYhw6DRzmYs0ZS5xsuta15+D/3KLs1yY9y+C/3IHKsQXuTCAXKtIUn6QUj7flWvjdE93cT2SVcgljnP93UVG4ccsENGDdm1uPgoUTmguQAXke67vuo5nQQ5BVEMHp28E/+UWX3eRLcm1yhYRzndc3Ge5Zm65WH6EkCnhemSkT67xTRflyBeC/4QQQgghhBBCCCGEEEIIITILbRT0VP25K9FwDNrUGB7F+FHaEIFltJGWpi2RNjoG6zPu728uJgKh/SedbXZ0MqOj0kmuRG3VtEGxX7wfttXQBkz7TTI95Pn8KS72hRnW2Dd6bYd/03EjHbP9sE3a4JldiPbBRNBmyL5zjNl3PkNbG+etNJ0IaYPk+qAzG+eN4R+/dqWr3Y7r4Scuehtz/grDfjDOnuv1Wyxw2B+uTX5TSe2kvM91znn7o4tzxb7xN2OKOa6p7tfA9jgPnK+iOpdxHjlffD/7yGfYf/arLNcQ2+O6pINUMselrHCfhOVHovKgvOUHx4HzzH5wrkL9xsV9mk7iy49E9wy//1QX74c94sPyI5m2X44d1wUzxnFfheUG20znCB2uJ/rvJFt+sO9cP5R3yZYfnDe+g455zB3B/cV1kmtD/ioMCkmmimSCB05UYbjZ6rnauCjYgIKTHq6YVDJwgVdzMakJY/82uhiTyrhbCuh0FSr8vgkuphzkoisMNwjTEjJBAhcoULmglzzvlQTHixnIGPPNRAs3uZgp6W7XDhdTb6ajYsJNTU/c6S6mHEwEBQFDbP7lojDBgJnKld7yoeGVBJ/hxuvlYv+YvpEpRZnwn5s+HVDBa+diyFqi64vfxL4z/JDCAChk2M9zXCWZLu9zzTEOlfn8t7iYtIWxxMxFcIErLIRTBdd/IxfzAtA7PBEMHeJ8haMzuF5Zl+WlLey4Z7n2mCubGQAxcI5bOqByyvXBkC6Oa2H4LXVdlB/hLFs/dFF+hOevODh2GNogF/MPME6fsdFMAZvuXvaMUhjvYs6DROUHlb+w/GCfgDKS8iOZiXL4DPcv1wX3FfvFPvZ3McwqXUEN1wLHrrjyg2Melh9cf/wW7q9kyw/O24Uu9o059rnPuruYLlWkAMyHSeO5cBIdVGqORCQM18CwgYtqtqtJ8F/xUPtk6AAzI2HWzHHLPNkUKBhdW1eimyIVMOUgE9QzljJRLZEaIfvFRRpGd1zITMFIdFkSFFpcyFzgA119XVSA7nO94mJ2oWRqp6UFY6Eg5METFByJIAKi0Md4qWHzO6igTXIVVcsuDJE1+8W5Zr+YHY+xxJyzdI0npjDDtLe5KCgKw75gRJgaBScwxI3x28lMKkOhdbaLfdrr4mEGFJSYD2PbubZTHe1gXgNcPIinqOkvKfA5X+E9SGRDBYn7prQ9dy91YXAvuJjdKh2VkRCuM44hlTqi4sIkKj+IMGe58oP/igfTYH3KGo4h12NYfnDOOZ6lPT7JwjV2uwvzSWSilB9UtKgkh+UHv4fygzKvJAgOCIrYL/aJuSPYJ65NKpbM0Z0OOF6UG5QflCOJoOIRlh9UdhH3CPdmSdPuEohxPJhPgfKe7+GBTXxWE7akCC4ejI2ICqPjf2rOpH+oNVFQUqslIsVgwwj8MRcXGOtSiGPQiSJntseTXYi2KfCJqACz5AkzTHdIejAdcFMRTc10UTBSyPB7MQduRMRFyA3IvvLbiLqecGECVGpI8/FeItjf0BQRNwRRItsg8ma8dDrgeyjIqMVyM2Fc7Bf7xz7wmyjw2E/OC+eNfSHbwQ1EbZt1OaeJIjH2i4K+tosIgIxFeAxYn2sgXREc5wOzIivDGFjMObzGKAz4bZga+0YKmGUYFfvFuaaw45oLj0NhMGWMnwKF6wITjyfRNVxe+I0cQ84XWSb2hX3id4b3DfvCPnFs+ZvrCNOgAkMBSEFKhau4iiCFK9uggkbWZ7OLY0mmpahruLxwfjAbKgrJlh9E4HtcZKrCc1tU+cH+ci3HmzPbpMLMU7f4bj6bDjhu3DOUXWQL4ssPrv/C5Qf7iQFTfhBdllR+cExI+XOswu1xL3NPc+7ImqQD7gEqqVyPXCvx5Qf7kqj84PpjqmSemkjGq6Tyg89zbDD+pi4yMkxoRYUmHffYZw5uGqZT5EanZklNlodQEJlx4WKqFKAUOBR4FCKkWN5wHXIRrXNSqJ0lKig54ZggDyKhlhdGMxSwpCqprYdmnmq4SDBQCkB+Izcg+0aERWTDvrNfGBQ3EBckkcN7Li7QuS5qvlx8ycI2mFGI6JvjlQ44hhR+FFwULJhQ+Gg9ZjTihsKQOrooTIlYOPY8YvAdFylUTIt95+YsDIUln6HwoVLHNjIF5sSxo6mB409TB5U7UqMU1hQspO+oBNIeSAWQyPRF18supt/l+JOuTBRlcuy49qhccY1TuKYbjJjIZruLef25FrlviMw4j9xj3GucL15J0fZwPel600WlmvPQ0FWcSRHRXuWiMOZaDx/ewTbTldWi0Gd/4ssP9pHoKiw/yGKF5QfLWK9w+cE1VlIzRzxU1u50Ebkn2/RTWogOuZ7I2jE7ZFh+ECGTXaD8aOGi/MDYqRCTuaT8eNDF8eda5l5KBNciBlcYKuVURLn/0gHfy1MCKT+o7MaXH2GZwDUYX36wnMd4xpcfNBOGWZTChFE6xk7mgkwJZamMO0VQY+YkHHBRQHJRcjNwAVJ4MHsY75Pm5mahsOREP+t6xIXpsx4nJJFxc1MR+ZJipSDmQuaC5GalMOYCSleqi0KCi4zaPTVzasPceNQcaXOkQsLf/Bba26h8LHWR5qbGy2/G8JJtz6VQpU2M6IM2/XS1v3EzcHPzHGOyFhgX+0B0TBTDXN20Aa+PvVKo0A6HGWJwnGeOBcc+Udqc80EhxP6TvqNw4slbHDMqbunKkAC/B1Pd72J/uOExLSpURI9cg+wrzSxkNDBhIhSuXz6DYXCNUeAkuq44dhRKVD5p0qBAZr+oDNDfIx1gmkTcj7u4rjimVEho08TouMf4zVw3nFfOF9cd5/cZF5ktjgOVESLWouA+Y3+IcDBL/ua70mncmBf3Mccfw6b8wOAoPzgv7Bvvc83xN/cZ11Xh8oMOTMUZN/vNeaOiw7HiuFEBYD/T1QzAbyLzQ3aRa5B7hn2kskzESvnBdchxplzEoChfKD+IZsPyI1ETQlFQhlApxVQxy3TAPcA1z/VFhSu+/KCMpvJHlpTyA/MmqCHLyrovucLyg3ORTLPbhS7uXSqRNEHKuFMAETFRKTceNSjSeqS7iJK5qWjXpFaGIdDmyEnnxBKRUviwPoVCojYgwMwp6LkASPtRE6WApdBk29TmEhl+KuBGut/FBcffRD7cYFxEXKzsHwUMFyHHgZoo7dJEphR+7FuY7isJLka2wY2MydBWmq4LlGPNzX3QRYWKigW/FbOl4kBHHipfGAHnlPNDFM66HAtuHo5FUQUehsdNSYWN7XAzs19sj8KSAiuZG7YssF2+42kXNzrZGCIA9oPrjX0jCqIApYLCsQibXdg/1mXfuE4TQTYBY6TyScFFuzMGyj5SmBFBpvp65PhjvESYRPmkT6nUURiyT7xHtEMlkmXsE+eU33WrK+zFX1QFl+uM48TT0TA0IkU+z7HiHqNSnS5zo6zgfJAdwKQwWIIBKipci2H5wfGlAsF54bxRfpAZKan8CKE/CZVHzjtl1U4XZRTfn677jL4BlFNUeKkIxpcfmHJYfvA/qWPKDyohlB+ci9KUH8A5omzlHHJs6BeQDrgHOFeUHxxPso9FlR+sx36T9iY7wrHgeiqu/IiHc0PZK+NOMZgNJ48CnRpmCCZN7ZkIlEKRWnPYsYCoiw4HnOCSoLChfZnaN9ugJocpYpYUVhTIxUUR5YELht/O/nHhATcS0TC1ZGqUpMHYTwpToEczhQoXcWngwidip/Al4khX9AYUfqReiVj47SHsA6lyokn2i4KfdjJuVG4yIjdq8pzz4mD7GAgFLhEihS/HA8PGzLmB2Ve2m2o4T2RHOAfxHblIs1Iocs1wTnklggOMjeYQrq+SoBDlO7jW2R8iNrIRRKYYf2dXqttMKeRonuF8URCG0K7I/cB52e6iclTLBfxGriVU0u/h/iFdy/3IPnH+uP64NqgUYDZFVWTKC8ZJBEaBTrkQwvGNLz+4bsIOnxg45QfHPFk4hpznMJvE/YtxXu1K174RKZKOZx+oEEJYfhChhuUHx5h2aqBCzbVLdqQ0YGZEtlzDXAfcb+lqQqSSxHXI9RhfhlN+UOGg4sx+sX/8z/qU45g59xmVlGThfqOskHGnGApxomnSJNwYIdyQXIREj3TnJ1UUGje1TyJZap0hGFfYM5bCg2ciczHThkiqFaPmYqZWCrQbk3KibYVUUmnat5KFGjMRC1FOGK3w/aTcMCOiLSospN6ItIBIgUiMNHIIGQPajGljZd+oCYcVgRD2k0KfY4mpprrwj4d9wKAp7Kn4hNBpi1QyFQfOGdEAPXfZd34P/QzIeoRt9hgv54gaNG3zpJ45NkS97Cc9kilE4h+TGV4TvLJeqm9CjiuFMhUGCvgQ2tKIiDEyChyuG/YVMHX2i6gubDOkgCXq5Bpgvyjguc44Fux34d/Ntc21wvZT3e7NvUHFld8Y32GRghkToCJE+yHHmuMOXI/ck0Q94YMcOO/clxgkn+N+4p6lAoAxsn0yRhT6XMe0jVN548liZIA4JqmG30PFg99JJiOEqJv7ICw/MIPQuCkjKD/IeoQULj9ousAgiioXuGbJFGLe6Wq6oemB30/zS3hdheUHlQ4qK5QfGBJNBkAZQPlBxTckLD/Yp6LKD+5JKndcf1wrYUUhHVDRwZApP+J7lVN+ULZTeeCcse8EWVT6eY82ez4TttknKj+oJMYHYjLuNIFxU6Bzkri5Q7iJOrm4+ekowY0XGjcFJrVK0s0hnEBMgsKTGjZRLhEvhS+pH9ot44c3ULujBsd3k+oMDT2VUGhjAESg1NiBi5BogAuJgo4aNRdUaNyk3zCGMPIBfjft8hgZNyuVmMJjjKmdY9rUxNl+OvYnhG1TGeK3EH2EYATcQNx4RDTUmLnxQuMmSmWfwwoay/ndVMA4/3QWpMDH8LjZMFCGgYXnHTAMzjFmgBGmOq1MgUa6jt/C9ROCEVBZobDm2os3bgpSziPHP0y5UqngHHLu2WcMjM5dGEQiqBgQWXHMiupMVFb4zrCnN00QIXwn/3MPcI8VNm7MEIWFPAUiqVTSqGROuLbZJ65PshSkq7kmeI/tPe96zUU7LevRXJJqMG6uByo98Z0xucZoHgvLD85DaNyYA+cwvuJPeUD7flh+cJ6pmIQV7sJQWaFiwzUdmmaqwbjpI8P9FJoR5QdGRfnBNcp1h+GGv4H7h/IjvuJPuUr5wT5xfihL48ewY9KUO1yjZJXCilq6wLi5l/gtlPEhlB9U+jhXlB9U/MnYhcbNPYdxhxU0zg1lLD5A+cF9RhBU+HxQUSFQonMaxi5SAMbNBUUNiyg5hAiFE0Jtmo4WXLzhjcd6rE8UHUI7FeM1uWBJ/1FQYABc5ESAXAzcCCHc8BghhSUFTzrSrpgPFyCFH98HtC1yMVJTp3JB4UdKLzTusI0qPtVFwckFSsGCUVKzDFNjIVRaKJiJeOiQl2pDi4cbj5T+PhfmGqYKMVIKCDIMFJiImjU3GL+JlCY3V3yqnKiGiJqKAFE0Nxk9t4k6uakpZDiOIaSVyZTwHscgHRE330lHrvhnhoc3P9chhWl8qpxohkKIimAIx4TrilQ4+8VxoLJF5BQer3g4DlwnFECl6UyUDFQaSUkyTIjrK4TfQ0GH6fK93A9hhZHCj4KTc0ihGYIhcm2S6iTbggFwzLi3OIcsI4qiwkW6k/PNfcq9W1SlpTxwX3EPUx6QkQqhghFffpARoCwAKlysT2U+hGwAhXpYfnDuiUI5X2GlOx6OHSbCd6fL6KjU0paOoYbpYe4jKsPx5Qep8tCsuP8oP+IzK2H5wT4VLj+ovLG/mCLXBhXUdEPllmuE8oP9CIMMrnsq5JQfVIq49jD40LjJDHHM4zNShcsPKmWFO+XiC1znVE7iszKiHHDgKYjpLUgtkoNMwUB6iFQWJ5iekhT6ofESUVKL52LjguSGK6o2zwVNIUOhyo1MjY5CmB6TRDfUutMRCQAXEbVfJtrgAiRyxLT5LURA3GT8Bi7e8MbkpsSASYWRkqS2HF9wFoZUHjVVCkeiiGQmlSgvGA8FABNsYGIUmJwTKg1UkigIOHeYAVEPlSoKbUyegpxjQB8GKlZFZQa4Wam8EQFRseGccf7pTIXBcI2wTqrhWqCQf9VFZY/CHoMmk0GkiTHxm7hmyS5QccDMiFZZxrHgPBeuWIXwmymgOF5kg9gnKiYcTz7PNZrqjncYD5UOehvTkYt7huOJmVNJ4f4gK8W1SOWQSixRGNcp5xcz5zhQ4Uq2SYnrluPFcWM/03GugN9Eepfyg2NH+cF5KVx+YHLsM1CJIEKn8hWWH0WlhskU8T7ZF+5HxPni3sVYuI8TGXsq4DtJe1N+YExcV9zf3GPx5QcZotDMOH9kDDjfJZUfGBxmThlFRYbKOOeKz3GMijom5QXjxmQpP6h4UMkqXH6EWTgq6BxfRGUQ46YsLan8ACosrEfFhnuL64DKCdcywYEoB9TwuMkYMkXkTboRU+akcZEStVAzJp3HBQWYMYU5Nx9RAQVMmLYsDCZDr0Xabdgm26YGzk3Hjc02E0VAqYCLke/hpuD30/mIzhUUIvxevpv95YIMbzzS9qTCKTC5KSmMihvHTTRLYUUBSUEUn95NF9wsRL600XMjYXQYF6aMsRKFkYIlGuEmJM3HZ4g+uXk4B9xImBU3V1FQKJP6Yzvc4HyOY8c2ibTS0VaFaXKj0+ZLBExBwnkg/Uv7IWlsbn5+B5VAjIzPUEEhMuIaIzJgXxNdV1RgaGukEhNG2IjjR2FM9B6m21MFhR7HjIodx5HzRcc/Uq1UELnHMAZMnXZ8rik+gwlwnrjPuDepVMa3HxYHTV1cu2wfwykq5VxeKAuoIFB+UKEjwuY64Tfze9k3AgIq+WHFn8/QPMVxp/zgM/HZvnioyNGbPLwOOMd8huuY64EOXenKbmGeRJ5h+cF1RfnBd1OZpPzgt3Pvk7oHygIyKGH5gQEW1fTCtUZZw5A/hsdxPLjXOHZc32FGKdVwX9AGT/lBqp9jy7mj/OBcUn7Q2ZHfQhlBxYPyg86i7Dv7xvXLPVdc0EWljOuW0RTsI69hT/b45jdRBjgp1IQxacyAiIaCkZuOi5FUFRcw0VeYDqL2Tk2SggVDDidXKOoGonClHZKaGtumTYiaOBd5umrLQAqNwp19IXXPRUgtmVQVhT01Xm4OzDbswUkNn1ovv4994wIvLn3FTYDpE92znXS3TwERGVEmaUXOASINRUHGzUKEzW8m8iFaodDGZPltpLVYj5QY0WnhtFY83KwUjFwXFLSku4j+uC5SbW4hpEypPBGJcM64ZjhnXJdcc1x7XGvsGxVCrrmwckhlhagBk+SaTRQN8HkqYpxX1qXdjfNMKp3l6Wiy4fdhYBxHjJnrkeMf/k7uMbIAZDEo5Dm23DOcQwpL1qUCReo22fuFApX1ubdpBkpUiUkFVCQw5ETlBxEZ+0YhXbj8YD85xxx7PkP5kKj8oKJFOcH2WBdx3jiObD+dTVKksfndYfnB+eJapFJYXPlBlJlM+UHFmPuJqJZzzCvnmfsMU+SaSQdc41xvYfnBeeB7KRfYF8oPzlVYfnC+OM7x5QfHgb+LKz8oO1iXAK1/TPzNvnHuhBBCCCGEEEIIIYQQQgghhBBCCCGEEEIIIYQQQgghhBBCCCGEEEIIIYQQQgghhBBCCCGEEEIIIYQQIgX8z//8f4L8ywM+gCdjAAAAAElFTkSuQmCC;" parent="1" vertex="1">
          <mxGeometry x="245" y="260" width="182.25" height="152" as="geometry" />
        </mxCell>
        <mxCell id="744nSJvXdaSqL4zcJOoP-20" value="" style="shape=image;verticalLabelPosition=bottom;labelBackgroundColor=default;verticalAlign=top;aspect=fixed;imageAspect=0;image=data:image/png,iVBORw0KGgoAAAANSUhEUgAAAe0AAAGdCAYAAAA/lis6AAAAAXNSR0IArs4c6QAAAARnQU1BAACxjwv8YQUAAAAJcEhZcwAAFxEAABcRAcom8z8AAH47SURBVHhe7Z0HmBRlurYXE5tzzuHs6p5N7p49G9zFDce0RiTnzJCGnHOOknPOGUFAJQhKMqGiAuqqICbAvEpQTLvv/95Fl3/P2DPTM9PddLXPfV3PNTPVPdVVXV99z/e+X6iPCSGEEEIIIYQQQgghhBBCCCGEEEIIIYQQQgghhBBCCCGEEEIIIYQQQgghhBBCCCGEEEIIIYQQQgghhBAip/i+63pXD9co12jXQFcb199cX3LBl13/56rq+l/XZ1yF+aarkauh64tscD7r+qurnWu4a4yLzxjmau+q5PqUqyg4vlquvq6xLv63j4tj/o6rMF9zNXPx/jxXovcAx8R70F/YIIQQQmQrFV0/dXV0rXLd5XrY9ZBrl+tm11AX5sZ7z3eNcK1w5bsw6ML8zsV+drp+zAbney72s9911PW4i894wHWPa5LrEhfmHs95rl+4OrvWuu537XPtdd3rWu7C9P/bdY4r5EIX+zbXI65/uM52xUODAvPnPWiQSwghhMhafuvChO90YYqYN1H0lS6iWCJjzKyl67uuC1xEuph5J9e3XYX5owtT3ePC5OG/XETXGPkCV2MXn1HbNcO13TXTdZErHgx7sguDXubq4LraxbG1ddHQ2O3iGH/iquCC/3HRMMCMn3aRMfiGK+QTrt+7FrlC077BJYQQIocgHUwqt7mrm6u7CwMiZUy6mNcudhWOQDGUOi4i1pAfui53/Tmmeq4uLoypsiveEImGr3FhiKSoQ3MK+Y3rOhdmVThaLYpPuzh+DHazq6nrq654vuX6u+syF6aHCZPeLm2kjWmTCl/q4ruLT4XzHWxwERGTUg8hxc1nPOoi6q/mCtP08AVXK9fdLj4PYw7T9b920Wg47uLcRrq4RuH3xnfL/85zPel628V5CSGEyBE+5yI6nOoiMsXsEBEqFT79wRNdE1wYdzwYNqnhKcFfp8GEiRQxMva5zkVKl/fd6qIxgLGe5SK6XOga78JEz3WFfNI12LXV1cIVH1EWBfv8mesm1wEXBvZ5VyJIO/N54f/Q503Uy2fFm2gIqWlMNpFp8398FoYb8ksX3wERMa+FkC5f7MJ8e7o+7ioMfd1dXaT0ORcaR0Djhf8jlU4KnIiaFDvpdviDi8ieKJ7XXnQp0hZCiBwB46ruwnTWuzAuIlMiQwZdYTYMZsJ8MIFLXfEwKOplF6+HkOIltfuSa6OLqLe+CwPmb6JZokv6XjE20tJsJ4VNejfkB67VLsy+iqu4AV0hRONE5kSp9Cn/yZUMP3dx7pwH50+jojD0L+9wYdyhicabNmZPAyiE47jd9U9XfKRNSp79rHHRWEoEkTPZDSJtGlA0aICsBw0grhXf/S2uWa6wYcL3xL5pbGH6RNs0iApnMIQQQkQMKnLSwFT6j7kYVR2aERCFEoGS9p3vIoKLT4MDZkxEyz5CiJ63uQ67iMAxXyBFTX8xRkQDABMkQsTkiV7nuL7iAgwaQ8OUMG7emwycT2sXn0G0n+z/0aeNaWOyS1wcZ9hwCTXEddDFe+gCAH4yEI1tGD5RL6ZPdwCDyejTZjAaZgtE9TSCMF4yF0TORUFfO+bMZzLCHEjR8798f3w/ROwcL90IpN1pZHEs9Nlz/KTm+XyZthBCRBxMmQFS9LsSndH/jKnEQ+RICpwUNsacjGnTb73JRfSMcZDmDvmVCyMmxRtORSLKpX+W4+B1+JGLqU83ukghJ5MaB6ZAEbHTCOCYMeNkIN1N/zD9zC+4GOz1oIuR4KFIc59ycV4YKjB6HDMnG3DE9YSLBtDzLjIQZBXocw5T4GQ2eD9pbxoJnHtR0IDh/A+5aDRAaNpE9kTiNA5IhWPWjB3o78Kkr3Lx3XMsMm0hhMgBSCUT5WKwRIVh9BgP6eqaLiK7RKZd11XYtEl9Mwp7tgvDip+yxGcSHRI9Yu5AhEifOVEln4XJk9YmfYzxso/4tHlxEGkzyItIG8MsbaRN44U+ZEZtY/5E3KEwv2dc9LGH2QN+Emnzf4wBoAuAgXxkJfheOKf4xhDTszBWGi3jXAwsKwoGlbFPvisaTsDIcP4XM+d/GWPA/vhO+b7IbBDp0whh7ACNCJm2EELkAPSDMg2KyJEUayLTxkAxUswTIyo8EI3orijTZlvhwWX0FbMvjIj+VyAVzhSpuS6mTzHgi+OiXxxjSzbKBjID/C992vQ9MzArGcI+bSJYFi2JH1AWQv87+0SFB6LR6CHaDRddIRKnX5nvtp8rPuInfc8+VroYYV4UjKjnfUTxl7LBwbSJ+hncR1cG0Xg4Ev1NF8fP//GdYt58zzJtIYTIAUjZYqpE2gizLAymTTROn3YY9YZgwPSdEn0yJzmE95Pqpi8aA48fHU3DIBxcFhoRUShTv0hPE8WyqAh9wxgW08QKLx5SHLw3TMETZZJWLi5Kx8xQ/Ojxspo2Zhw/6pwGAw0XonAaNyFXuMgC3Ocimk90fmQMmK/NIDRG3IcZA0yb1DrnxwhzvjsGEjLY7d8uPo/pbMBANVLrMm0hhMgBqMgxUQZQMWAJkyBVHQ8GQDTIvF/MKhwQBRgIg72YM4wxhDDl6w4XETjRZjhHmgZAAxf7wXQYPBWCsRIx0gfL/7JQCdE/fbOlhWiblDHnRHqZTEHhaV/MCSciJXPAORMJc6xlnadN1EwDI35ZURormDJRMCPk6f/mO+c7pVFCo4JBYwwoi5+DTmOIxgaD+TB2+q3D44837TBFT5aAQYRkQkijh40kBhDKtIUQIoeggidCZCBYaFgMcCJKZIlMhFEw4pmBWcy75nWEIZGqZdWtaa4QjBbjZWAW/az0e7MPjIhIlsiR/w0jwhA+i3nib7hIbzNVLDTH0kKfOP3kTPvivJq4yCpg1PTLM0irt4uomoiVxVWY90zaOdGxAf/L+bLkaLgiGilq/o++666ucIBaCJkJ+shvczElLDRfRo2TvaB/mp+ksjnm8NhoSPF9Y/ZE+GGfOO9hGhdmHx4DDR4aBHxXpMsxaMSiLEy7w8xl2kIIkSNgNAxaIrIlkmRpTcwuNCJGcmMWDEYLTYt0OmaFCWOy010hzE8mEqQ/l//BtEgR879MgWKgFhFquCBICClqBlIRuTNCGvNnXfCyQJ8ukTwj0DFionuOm35yGhThwjEsdEIGgEibRUhoZJCeT2TaNGTYB99PODUOoyStzjkSPRc2bSJvImUiZgaL8V0CRksjYICL74nj4pzZPw0W9sexsxxr/PfEdSAbQSOguJHxmDx97DScuDYybSGEyCFIEdM3ipHRL8rIb0ZCk+pmCU1MkL5YRlWHA8YYSEZql4iVvusQBoJhOkTl9HljPkTiTE0iBY85JyKcZ0w6mT7xZEd+FwfRKNPSWIecc+LYicCZRkZkH84L57OZX076ntHe8YukhGDInA/ZiPD/SLOH06uYwlY4DY/hEikz+rzwOuGA8RLt830ScTNXncYQx5Eoy0BWgEYAqe/CS7PGg2nTKOC75zrJtIUQIsdgQBSRLVEg4vf46VoYASbEa6TVeY1t/IwfTIX5E6Vj0hgZfbTh/8SPJC8MU5yIcjFsBqUV7l8vKxxf/HlxHJxH/DFjavwdnlMik2Mbr6Pw9WT+DzhvlOh1/pdjij8+tiUi0TEUBcfDZ8afpxBCCFGAGi6mfJHqpi87WTB4ImFGqRO5k7YWQogPQdqLEbKkuOjbo58rTH8VB9NCSEExopYUF4tFkL4S4qMMA88Y+Uy692+uwn3X8RBVMt2LedoMGKM/l9Q191EYIRIxkgrmvmTQHClq0ujxImXNdlLc4ROxhBA5CpUB/XgMBmHOKf1xmHFxUJEwMpRoYouLASQMbqGviTRfSakrIXIVBqIx+pmBXdxHxZk2fcD0uZJOf8rFYDimYXF/hWDe9IOHy4yyYAjzvOPFsqNsZ9BVokFkQogcglGhDBRhsAqjZxk5y6CboqA/ifmt4drIrHjEk3v4f8yf6RsM3BHiowjTj4iwmddMhBxvwIUh0mbAGdE5DV4Mu/AgsDDSZjEWImrmQzOoK15E2WwPB84JIXIYKgTScRgxo2OZgsHI0qJgqUKiA1r1rDtMJQU8yYcpIyxEEf+gfyGEEEKkCNJvtObpo2YlJUy7qOfcAnMte7mYOsKgmzAyIC1Heo/VkX7BhhLgMxndSfqQ0a385O9wdKgkRVHxXUOU8UTviVfhrqRE/8O2ZAlHc0uSdOaUkZkLmDbLAZZk2hgyhs3cSvrsSPEBczaZ5kJ/HnM9OeiiwKBZfpD5mKTXeVzf0HPPPfeGz372s6O/9rWvBfryl78sSZIkSaVS6B+f+MQnmPc/+uyzzx5dsWLFD1ShQoVAn/70p4P3fuUrX/nQPkor9vGNb3xj9Be/+MXR7mV8Lt1VGHjawHTD9Hhxps2DFUiNY9o8Hi80Z0acM1iG9Dj9b8VNWcHoMXxGyrJq1Er/Au/yE//33/72N2vcuHGghg0bSpIkSVKpFPrHpZdeaj/96U/thz/8of3gBz/4QPx94YUX2nXXXRe8t1GjRh/aR2nFPpo0aWKVK1c2bwi8777GOK8wqE0LZTFtlkosbNpMdSnJtEn3MXKWVDv7+80555zT9Ve/+tWbU6dOtQMHDkiSJElSuXTTTTdZt27drHr16nbllVcGuuqqq6xevXo2fPhw27FjR8L/K6sOHjxomzdvtt///vcsR0x3c1aYNunxCS5M+yIXqxhBadLjH6JixYqXeJT9/JYtW0wIIYQoLydPnrRbb73VOnbsaDVq1LDatWsHGjp0qD344IOxd6WWI0eO0DB42m2NWVllfX5AUjBNi6cZ8bCD+OcGF4bomLQ2/dosrBI/EA3DZiAa/dWl4rzzzru2UqVKR9atWxc7dSGEEKJ8PPbYY9a/f3+rUqWKVa1a1erUqWOzZ8+21157LfaO1PLEE0/Y5Zdf/qzbGuvkZ8S0eXRgcabNlC8e9E+KnAcshM+1ZclGFmZh0f9ST/ly06785z//+QjpDCGEECIVvPzyyzZ//nxr2rSp1apVyzp37mxkdN97773YO1LLP//5T7vsssvSato8TYcnE/EYwl2uoy7WQGb9Y/qsWY2JR+T9ykW/NWlvjJqnGzEvm6ch8fQiRsuxuApLofKQhFIh0xZCCJFq3n777SAVPmzYMGvTpo3NnTvXnn322dirqScTps2gMcyWB/CzFCLPoOWZtWzjsX6sKc4D/EmFhw+eZyAZD9VnGdOtrnAZU1ZDK9MypjJtIYQQ6eD48eNB3/b06dNtz5499v7778deST2ZMG2iZlZAYylFVMfF/Gm20TfNA+8ZfMZyi6TGQ5jXTUqciBxT57m6hR+CnzQybSGEEOmCNPmhQ4fsxIkTsS3pIROmnRXItIUQQkQdmbYQQggREWTaQgghRESQaQshhBARQaYthBBCRASZthBCCBERZNpCCCFERJBpCyGEEBFBpi2EEEJEBJm2EEIIERFk2kIIIUREkGkLIYQQEUGmLYQQQkQEmbYQQggREWTaQgghRESQaQshhBARQaYthBBCRASZthBCCBERZNpCCCFERJBpCyGEEBEhk6Z9lusLrh+5znd9x/UZVwVXUZzt+orrh67/iv38kqu4/0mITFsIIUTUyZRpY9jfdTVzLXdtcE10VXVhykWBSbd3LXQtcy1wNXd9zVUqZNpCCCGiTqZM+8uuFi5MF9Ne4lrtmuO61EVEXZgfuJq4eM8K10wX5j3GdZ2rVMYt0xZCCBF1MmHapLJ/47rRNc/1Sxcm3ti13tXN9XVX4ZR3LRcmP8D1Bxcm/QtXVxdR+mWupHHTvrpSpUqHZdpCCCGiSiZM+1Oua1y3uoaxIcb/uia5Rrn+4vqEKx7MfKurkYv0egjR905XXvBXklSsWPEyTHvt2rWxUxdCCCGiRSZM+xsujJeouTUbYjCwjL/Huoi6P++Kh4ga027qOpcNMTq7nnL1cBU1IO0cF59Lw+By15UVKlQY9Jvf/Oa1VatWxU5dCCGEiBaZMG3MuZVrmquBKzRaRo/zN6nuti5GhcdT27XYNdT1excjzX/imu066urrStQXDkTtf3L1d61ykYa/9/zzzz+1dOnS2KkLIYQQ0SITpn2BK99FKryuK0x1f8tVx8X2ji76ueNhahijzRmANt+Fefdx3eYi0ibiLsq0icxpLFztYgBcG4+0p//yl798Y+XKlbFTF0IIIaJFJkybaVstXTNcpMlDiLQbuia4MPXCkTZ838VrRNyMHCe65vd9LrbH93UXiwaiCSGEiDqZMG1Gfdd3YbbMuQ5hgZUOLqZw1XN91lUYTJmR5f/t+rmLaWAMUNvtiu8fLxE37X/ItIUQQkSZTJj2x11Xuja7RrMhxh9d9E8zepwBY4VhMFlhaAD0cjHHm4VZkkbztIUQQkSdTJg2ML96kYtom8VUmKvdyXWzi0FojPRmZTRMmSliRNhE3qTWibJ/5vofF5E5A9f4yfakkWkLIYSIOpkybaZzsVjKLNcmF1O5mLdNf/ZvXd921XSRRicNzoF81cUIcv6HwWeMAF/r6unCsAvP6y4WmbYQQoiokynTBkyYlDaRMiujMajs7y7MlyibFDrLk/7YdZ7rcy5WPRvomutilDn92aTVkx6AFiLTFkIIEXUyadqAGTPfGkP+pCvst8aE+XDENC7mciPe/2kX7yddzv8UNc2rWGTaQgghok6mTfuMIdMWQggRdWTaQgghRESQaQshhBARQaYthBBCRASZthBCCBERZNpCCCFERJBpCyGEEBFBpi2EEEJEBJm2EEIIERFk2kIIIUREkGkLIYQQEUGmLYQQQkQEmbYQQggREWTaQgghRESQaQshhBARQaYthBBCRASZthBCCBERZNpCCCFERJBpCyGEEBFBpi2EEEJEhEya9mdcf3F1dQ10NXX9xvVJV1F80fUPVzsX/9fdVdX1HVcFV9LItIUQQkSdTJn2p1yXusa5trvudd3sGuT6lSsRn3Zd4prsus21wbXFtdDVxPVdV9LItIUQQkSdTJn2f7kw36UuDPda1xDXehcRNwZdmItcROQTXG1dl7sqx/5e7brelTRu2tfJtIUQQkSZTJj2ea7/c212TXSFH/I31xLXMNcvXee64qnrWuYa7PoBG2J0cj3swsiTpmLFipdWqlTp+bVr18ZOXQghhIgWmTDtL7lqu5a7+JCQ/3b1cI1x1XB91hXPFS6ialLq17i+4fqpq79rhau4SJv+bk7m866vur527rnnNvzjH//4wpo1a2KnLoQQQkSLTJj29115rlkuUuMh9Ek3dmHMrV0MOovnay4GndGHTV/2Ta6trsWu+q5vuoqCE2GQW76L/U+rUKHChp/+9Kcnly9fHjt1IYQQIlpkwrTPd7Vx0adNyvssF3zLxd+TXB1cX3bF83EXo83nuXa5bo39XOXC7Pn/ouB/f+tiv1Ndc1y3uWm/uWzZstipCyGEENEiE6b9YxeRNOZJhBxO1fq2i7/p52ZKF2n0eIiU27sYjFbNxX7+10UfOFF3dVdR8BlMJfuKi8/5zrnnntvsD3/4w4tKjwshhIgqmTBtTJMR4nNdpMlDGFzW3EWfNdu/4IqHVDqpcKJqpoyFsK/7XN1chQevFQkD0S6++GINRBNCCBFZMmHaDDCjb3qdi0FkIRe6RrhGu5jOdY4rnl4u5nQ3CP76/xCd3+/q6WJkelJoypcQQoiokwnTpg+bOde3uBiMFvZFY+Skufu5GKwW9nWHtHLRj93HRWoc6KtmZTRMmylfhf+nSLS4ihBCiKiTCdMGjLq3i3nX9GGPdDEqnL+vdjGdi0FnrIBG2py0N5E4hk2KfJqrr4sFWfg/BrVVciWNTFsIIUTUyZRpk/r+uYu1w1lk5R4XC6s0czG1C1Ov56IfG7MmoobfuYa7iNJZxnSji3Q6C7OwlnnSyLSFEEJEnUyZNhA9E0X/1UUfNoZMhM1I70+4eO1HLgakne0CtrOgysUujBr9zJVo2dNikWkLIYSIOpk07TOKTFsIIc4sx44ds8cee8yee+652BZRWmTaQggh0s57771n999/v02YMMFWrVplr776qv3nP/+JvSqSRaYthBAi7Tz99NM2Z84ca9mypfXt29fuuusuO3nyZOxVkSwybSGEEGnl3//+t23dutU6depkNWvWtAYNGti0adPsyJEjsXeIZJFpCyGESBukwEmFz5492+rUqWNVqlSx66+/3nr06GF79uwJDF0kj0xbCCFE2jh+/HiQCh8wYIBVr17dqlatGph2ixYtbOnSpfb888+rb7sUyLSFEEKkDfqyJ02aZM2aNbPatWsH6fEaNWpY/fr1g2ibtPn7778fe7coCZm2EEKItPHII48E5kyEXatWrQ9UrVq1oG+bxyW/++67sXeLkpBpCyGESBtPPPGEDR061OrWrftBpI34vXXr1rZu3bpgOphIDpm2+BBvvPFGcKPRQqaAhHryySft0KFDdvDgwQLbQ/F+3sP/CyEEMAjtlltuse7duwdp8bBfm3T51KlT7dFHH9VgtFJAXSvTFgV44IEHrH///tauXbsgrRWqZ8+e1qdPH+vdu3eB7aF4/8CBA4MRoUIIAUTRzzzzjE2cODEwbUaPV65c2Tp27Gjbt2+3t956K/ZOkQwybfEhKBSzZs2yMWPG2JQpUz4QRk5ai5RW/PZQvJ9pHY8//nhsT0IIYUGfNWlwFlbBuEmN33DDDcEgNVE6ZNriQ5Cqeuedd+ztt98OfobavXu3dejQITD0+O2hwvcr1SVE2WH6E9Ok6GbKpVHV+/fvt7Fjx1qTJk2sc+fOduutt0aqK42MwAsvvBCsm3748OEP6cUXX7SXX37Zjh49WmA7U9pYRCZVq7/JtEXSsNB/165dbfHixbEtQohUQ8W/evVqW7hwoT311FOxrdGHh4WsX78+aPiTlTtw4ECkGvg0OkaOHBnUgf369Qsyj/EaMmSIDR8+3AYNGlRge7du3YLXWHc9Fci0RdI8+OCDQQt53rx5sS1CiFSCsW3atCkYH8JArSVLlgTRXS7w+uuvG/Vv+/btg9Q43WhRyiRglsw3Z5EYzLuwwtQ/Jh2/nXE+ZBgeeuih2J7Kh0xbJI1MW4j0QjZr8ODBQeXPPGbW6t6xY0fs1WhD/TFixAhr1KhR0CihLn7ttddir2Y/9MvTqKLxQVq/sOg2zM/Pt9tvv73A9vD9dB2mApm2SBqZthDpg1QxBt2qVSu75ppr7LrrrgvW6l6xYoWdOnUq9q5owngXUv7NmzcPpnwxoJVUMtNHc4WVK1daly5dbO/evbEt6UGmLZJGpi1EeiBNjIERrTVs2DCYEsX63JgbKVZSqxhfFCFCpf+aFHE45YsGCdH2li1b7MSJE7F3RhvG+pAZYcBuOsm0aZ/t+rjrE67zXBVcRXGWi/fw/lAcIGI7ryeNTLv8yLSFSA+MLF61alUwnZIlPjG3UI0bNw4eY8mo5Cjy0ksvBVE2dQeNkHBxlaZNm9q4cePs4YcfzokZJ7lo2l90XeMa5Zrq6uqq5PqMKxE/dTV1DXSNcA1zDXaNdw1x/cGVNDLt8iPTFiI90Oc5fvz4IAKlL5t5zOGSn1dddVWweFFUU8kMOGMwVvy645wXysvLszVr1uTEMqa5ZtqfdV3vmuba4truusU12vU7V6KI+7eufq7FrtWuG123uQ67DroauJJGpl1+ZNpCpAdMm/QxfdmFTfvKK68MRiSTYo4iLG/MaoqcV7xxE3HTFbB8+fKceGBIrpk2UfNcFwZMtI1Rd3Pd7Grj+ryrMJ9z/ZfrV65fu37v4r0Y+FrX1a6kkWmXH5m2EOmBxVTmzJlj9erVC1Li8REpfzNo69lnn429O1qwGMnMmTODKVGcE+eDYfOEL+Y7M/guFxaRySXTZqeXuza7xrrCvug/u+a5SH0TVdNPXRJ1XaTWO7toCCSNTLv8yLSFSA9MB6Kyx5wxbgZr0e+LwRGlbt68OZhuFEXor2dhEaayhf3ZDLRjlDz9+MxDZxW4qJNLpv1VVz3XElcHNsS4wNXJNcZVx0VkXRxfc01xrXFd6SLlnjRu2ldWqlTpsEy77Mi0hUgfmBtLezItKpzyRYqc++2VV16JvSuakP5fsGDBBw0SxIOH0j09KpPkkmn/0NXCNcPVmA0xvutq6JrgIu39JVdx/NJFP/hNrp+4iht5/iFk2uVHpi1EeuEeo/+a6V4YGwa+cePG2KvRhUiaJ3rxeE4aIqw/TndArqz2Brlk2kTU+a7JLtLbYXr8Wy7+nuQiAv+yqyiIwiu76AOf6CrJ4M91/cB1mYsBa00rVKgw8cILL3ydCfCibMi0hUgvmNiiRYsCU2NhFUaU58pT83h4BufGqmGsz03KPJcey5lLps1gslYuRo5joGGE/B1XfRcm3NZVnBFf6Orrmu1q4vqUqziYB06f+QAXo86J0Heff/75p5YuXRo7dVFaZNpCpBfmKz/55JM2YcKE4CETGECqlr8803BupMMZlMaDQ0iZ5xK5ZNrfdJEWn+/CvEN+5GrpGudiPnaiEeQhTBdb4Rru+o3rHFdx8Pq3XRg3/1vdI+2Rv/71r//FwAdRNmTaQqQfTJrpXY8++mjOrBYWQr/9oUOHgsdY5hq5ZNqfdpHaJtplUZSQ/3Fh2MzV/purqBXO2E76/O7Yz5IGrCWkYsWKl9OnvXbt2tipi9Ii0xZCiMTkkmmTDmdeNgPImKtNHzcjv0mNr3f1dJEqD5cpZanTMIXOTyJ1VlG701Ujtq3UnHfeeVdpIFr5kGkLIURicsm0gWlf7VwsrrLQhXmvci1w/Z8LY77Cda0LUw8PhCVOWYyF9/G/pLvLhOZplx+ZthBCJCbXTJsUN33YTO0i4r7dxRSwWq4vuL4R+52Bagw6I+oGUuGYNgfHXO/vucqETLv8yLSFECIxuWbaQNqbiPtnLoyZUeXh4DNWQ+O1r7voAw/7txlQxqhyTB1zZypXmZBplx+ZthBCJCYXTfuMItMuPzJtIYRIjEw7xci0y49MO3rwIAbmw/JAilxY31mIbEWmnWJk2uVHph09WGGLhSx44MTrr78e2yqESDUy7RQj0y4/Mu1oQXR9xx13WK9evXJy2UghsgmZdoqRaZcfmXa0eOyxx2zcuHHWsGFDa9q0qc2aNSuyz2QWItuRaacYmXb5kWlHB9Z5vu2226x169YfPDGqa9euaa9QhPioItNOMak27TfffDNIN/L8W/oLqSDjRVryzjvvtB07dhTYzmP2NmzYYI888oi99957sb1FA5l2NKBcPffcc8GDGerWrRuYduXKlYMnRy1fvtxefvnlwNSFEKlDpp1iUm3aL730kk2cONGaNWtmbdu2tQ4dOhQQ21q2bBlEOvHb+ZvtPG3s1KlTsb1FA5l2NGC0+C233GI9e/YMHu9YvXp1q1atmtWvX98GDBhg27ZtU9+2EClGpp1iUm3aPK3mrrvustWrVwejc2+++eYCwtDr1atnvXv3LrCdB5ZwDA8//LAibZEWjhw5YqNHj7batWtbrVq1AtWsWTMQxk0EnmuPRRTiTCPTTjGZ7tMODW7ZsmWxLdFHph0NDh8+bCNHjrQaNWp8YNqhcRN5T5s2TdO/hEgxK1assC5dugQBWTqRaaeJPXv2yLTFGeFf//qX8dx4Wv2YNOZNipwom5Q54yoYkyGE+DAsQsSYDxYmIhuK+L0kLVy4MOgCvfvuuxO+Hq9wn3xOaRc9kmmnCVIkVJqkTHIFmXY0eOedd+zJJ5+0yZMnB6YdDkRr3LixLViwwJ5//vnIdc0IkSm4d9asWRPUc3Pnzg1+JiOibBrGw4YNS/h6vNgvonH96KOPlsq4ZdppQqYtziTvvvtuMBgtLy8vMG1EFMCMBi1nKkTRMPaIAcYYcIsWLZJWq1atPhhonOj1wmL9hEaNGgUzOoi6k0WmnSZk2uJMs3fvXhs+fHgwIJIKYtKkSfbUU0/FXhVCJIKZPdwv/fr1C6JhBm5Onz69RM2ZM8fmz58fLGKU6PVQM2bMCPY7ePBga9CgQfB+GtnJItNOEzJtcaZ57bXXgjUBSNsxi2Hnzp3B0qZRY//+/bZkyZKgQuRnKFKL69atsxtvvLHAdroAuO8YEKSsgigtlCEiYQyWe+b2228vsNZGebVly5Zgv5RnPgcTl2knQKZdfmTa0YNlS6mEmJrIoipRhMWLOnbsGKQf+RmKNCSRChVf/HZSlO3btw+6B2TaorQQaVOmGBOCwdLwpSylSizIxX6JsPkcRdpFINMuPzLt6EFlcPTo0WAxoKiugsbAOUbk7tq1K/gZikqVNOb48eMLbOd9rKGgddZFWQhNm+4kImNMNn6tjfIK42a/pN1l2sUg0y4/Mm2RTWzfvj24x4hahEgVMu0sQaZdfmTaIpvArEmHk74UIlXItLMEmXb5kWmLbIK+bqaxUQkKkSpk2v8fdn6B61pXDdffXN9znesqjk+6fua62lUl9vMi11ddSSPTLj8ybZFNRN20eWjLvn37gicC8jRARhQj+uTvu+++4CmCzKsPtyNGMvMaq96J9CDTPs15rl+7+rnucN3nWulq6/qhqyg+7sKgB7k2una4bnHd4PpfV9LItMuPTFtkE1E3bUbzM5iuefPmH3pSIH8jRsHHb2fRj0GDBgUVt0gPMu3TfNs10LXUNdTV0zXTtcpF1F3UBxOZD3ctcvV1cZAdXQ1dP3EljUy7/Mi0RTYRddM+ceJE8JjURYsWBc8o4IETiDqDaWuMjOfhLuF2xPrWnO8LL7wQ24tINTLtj33sbNefXBtcM1xfdsE1rtWuAa4fuXhfPF901XRh9D1c57hCiNxLSqsXoGLFildUqlTpMI/GzAQybSHSS672abN2PNPYWBDnueeei20VmUKm/bGPfc5VzXWTqw8bYvzSNdg12kU/9adc8WD0GDqR9uVsKA+KtMuPTFtkE7lq2qxDzfP4+/btGzwbXWQWmfbHPvYdVzPXHFdzNsT4vovt410tXETW8VR3zXbRn93SRVqctHpV17dcxUEkfr6LfXRyda9QocL8X/ziF8dIMWUCmXb2QQTDwB5uknCd4FAs2s9ymFyv+O2IdYJZanDTpk127Nix2N7EmSZXTZvHpo4bNy6ItJ9++unYVpEpZNqn+55bu6a46rnOcgH93Pw9ydXe9SVXPHVca1yLXdNcK1zrXXNdmP0PXEURDmCjH3y5a63r7vPPP/9Upp5vLdPOPk6dOhX0HbZp08batWsXnEuo8Kk+vBa/HWEMLJk5depUe+WVV2J7yy44N1KpBw4cCB4KEopKnxXF0KFDhwq8xnuJ5EpTYWQTMm2RDmTapyPeNq7JrnjTJlqu68K0O7jCvu4QTPs21+0u0up/d/3VNcq1zsX/FgX9419x/cL1Z9dfzjrrrF6//e1vXyGaygQy7eyDtOMzzzzzwXSaPXv2fCCegdu0adPgho3fjh544IHgevKc3bfffju2t+wCEx4zZkww2rhnz57Wq1evQFT8AwYMsP79+we/h9t79OgRGB4ZBJY4jSIybZEOZNqn52KTFp/lasqGGGxv7JrgauUqnB6v5cKcGYh2FRtiYPw7XUwf+4KrgqtEKlaseGmlSpWe10C0spPLfdpE4F27dg0eSB9FiKS5LkOHDrWxY8cGlT4aMmSI1a1bN3hu78iRIz/YjsHTUKG7iKeBRRGZtkgHMu3TZowBM72rOxtisGAKEfQY1/WuT7jiwaiJwhms9gc2xGA7Zs4gNfrLw8i9WM4777xrNBCtfOSyaTPthkdYco5RhCwCi3WcPHkyEBU/IjtA5I15M00o3B6+j7R6VB8kItPOPiiHb7zxhr344otBBoe56PGie4mFYWgoxm/nvYgxI2e6PMq0T0/NIrW92UWK/JMuuNRFfzPztn/KhkIwupzBZyykwujyEBoAYaT9eVdSkbZGj5efXDZtnsHMuZEKzyWoHAcOHBhE1lSouYRMO/vAsDE9umDolhk8eHABkd0ZPXq0jRo1qsB2um/69Olja9asCc7/TCLTPg3zsMe5lrkYdNbARYTNADHS3V93EXn/KvY7c7KZKobZM7qc/63top+b3xmghnknFWWDTLv8yLSjB2nzfv36BZVkro18l2lnH5g2XU0YMI1FMjzxoguqZs2awSpw8dsxeKa4ybRLJlOmTer7YheDyIiSH3Dd7GIKF4bOSHJWOaPv+7cu3k8E/TUX/d1E5AxI438Xuhg9zpSxpJFpl5+9e/cGKWQMLteQaUcPmXb2QWqbchamxkmHx4s11vPz8wNDjH89TJMfP35c6fESyJRpA4un0DfNnGvmTrPaGdE1UfVnXawlzuv0U4ernRFJM/q8sgvzznexkhrvKbyCWrHItMsPhYWWci6dU4hMO3rItKMHYyy6desWjCHJVmTaWYJM+8O89tqr9vjjT9iD+/bbA3sfsT37itfy1TdZs1ZtbOio0QlfTyT2y/4ff+IJ+1cWj1KWaUcPmXb04KlmZOtYsChbkWlnCZk2beYCY9pLliyJbcku/vOf/9gdt2+1Pl4xtG/fzjp26hgcb3Fi4REWIGEhkkSvJxL7Zf99+/SxbdvuiH169iHTjh4y7egRdrFh2tRB2YhMO0vItGmHLcqVK1fGtmQX7//73zZv4SJrWL2KDWhQ2Wa1rWPT2tSxqcVoZvsGtrB7c5vbuUnC1wuL/bHf/vWvs4Y1q9hCb8Bk640q044eMu3oIdOWaSdNWU2bFbBeePFFe/rQIXv64FNJ6+a16yy/VWubMnFSwtcT6Rm/QRmU8d5778U+PX2856Y9Y/4i69iwtu0akGdvzexmr07tYi9PKUb++ivTutorU7smfr2Q2B/73dG/uXVoVNtmL1pi/5ZpZxSZdvSQaZ9ZZNpZQllN+5DfNNNnzLCePXpYrx49rXfPXtanV+8S1aFde2tQt561zGuR8PV4sU/23ctv0qXLl2VkharQtDs3rmu7B7e0/8zraSdmdrdjM1In9sd+7xnUwjo1qSvTPgPItKMHi+SEps2yu7mETFumnTRlNe2H9jxobfLz7Yra1ax659ZWo2sbq9GlZNXt0d6a9O9mDXp3Svh6vGp2y7eqHVrYFTWqeAXb1w4/fzj26ekD0565YLF1ctPeNbCFvTmrexBFv+RRdKrE/tjvDo/kO7ppz1m8VKadYWTa0QTD4LoxDSqXkGnLtJOmrKa95777Lb9tW6vRu4O1u3mOtd8wz9qtm12i2q+fYx1vnmcd1s9N+Hq8OmxcYK1XTbWq7VtYX29dH342/Q++l2kXRKYdPbLdtDGlN988aa+8+qq98OKrdvSF5HTo6edtyNCR1qlzD7vv/ocTvqcovfzyq7G5ztm5+h1r+zNtlEfeZisy7SyhrKb94O77rG27dlZ7UDfrcscy67pzhXXZujSl6rZrlXXYMD+I4vv17iPTPgPItKNHtpv2u+++Yzu232Gjx4y2AYOGW/9Bo2zg4JLVb8Bwa9yktdWt18x69BqY8D2FNcD3PWDQSBs2bLitvWm1vf56dk6vfPzxxwPTXrhwYWxL9iHTzhLKbNoeabdr395q9+9inTYttM5b3Og2LEipMO52a2dZjc6trX+fvhkz7Rlu2l3cTB8Y2spsfk97a3Z3O+kmmyqxP/a7e0hL69y0rs2WaWeccO1xnvyVa2uPb9++PZhWuGXLltiW7OLNN9+yqdOmW73aV1qXNv9ng3pcZv27Xl6iBnS7wob3vc5G9r/eBna/MuF7CmtQ98usd6dLrX6t/7P+3kh79rnnY0eRHk6eOGGPPLLf7ti23TZvuSPQbVu3lajZcxd4g6S59ek7oMT/Cfe7bfsO++djjwV9/ZlApp0lyLQLgmnPctNu36iObe7b3F6Y0sUOTehkB8enTuyP/W7s08zae0Q/V6ZdZki1MpPhxMkTduzEcTt2/NjpnyXon4//06O1njZ46BA7fPRwwvcU1huxffMUsHfeeSftfY/hE8pOHD9px48lr3Vr11vb/HZ246o1CV8vSnwOn/f+++mdpXH8xFs2Ztw069D6H7Z9xd/t2bsutcfvuMz+eXvJenL7PwI9fsflCV8vrKfvvNQe3uiG3eXv1qNnPzt4KL2mfeipp2zUqJGW16yptWndwtq2aeXXomS1bplnTZs0tLzmTUr+H3+dfec1b2oTxo+3w4fTP9YHZNpZgky7IJgn86Yb1K5pnRrWtOFtm9jQNo1tSArF/thvpwY1rUGdmrZk+XLLTsvOftOmn5KIcvKUyTZ6wthAYyaOK1GDRwy1+l5JNmnRzEaMGZXwPYV1A/t2TZ8+3e6+866gsZBODh16ypYtX2oTxk2y8WOm2PixU/z3qSWqe5c+HsU2tq6deyV8/UMaO/X0/v1zlixZbAcOPhk7gvSAaY8eO916dLjKHttyib1/4HI7tv8Ke2Nf6vXOk5fbi/dfajf0u8Qbaf3twFPpNe29e/dbu3btrG2zWjZnTDdbOLGXzR3bo0QtmNjbVswYZEum9k/4erzY58wbulrLxjWsa9du9uSBg7FPTy8y7SxBpl0QTHvRkqVWt1YNa123uvVp2ch6tWhoPVMo9sd+W/n+63njYKmbdrbCjUpf2/79+2NbsoujL7wQPNawbpWa1qFBK+vWuJ11ady2RHVr2s56t+zi16KzdW2S+D2F1a1JO8uvm2f1qte2qVOmuPkcjx1Feti1c5e1bNXcatS/0pp3qGrN2ienlp1rWn73usHPRK8nEvuv2cA/J6+J3X57elfow7THjp9h3dpfbXtuudSOubkeve8fdmR36vX63ivs0K7LbHjvS61X7wFpj7T3PLjXOnbsaBOGdLBn75lvL+1Z4j8XlKjn0L0Lg5+JXo/Xyw8usad2zbWRffKtW/ce9s/H09vICpFpZwky7YKwItrshYutbcM6trZnUzswvpPtH9PB9o5Ondgf+13To4nlN6pj85Ysy1h6nCcFkXZloZr33ns39rNozZs31zp5JbR7970JX/+w2Oe7QYqVz0r3WT17+Dnr3a+Pda2fb1sHLbEHblhvd464sUTdNXK17R6zzu4dvc7/Xv2h1wvrLn/PntE32/o+c6xtnTwbOeYGe/3YG7GjSA9bN2+z5i0aWYdh19rUTfVtysb6NvHmkjVlQyObvrlp8DPR64U1eUN9m7q5gXUeda01zatvG26+LXYE6aGwaRMRp8u0/5Vp035o3wem/czd8+2FB5b4zwUp1YveEDi48/+b9uNPHIh9enqRaWcJMu2CJBqIdmp292C0d6rE/tjvfRkeiHb8+AnbuXOnLVgw3+bOmWlzZ8+0eXNnFasunTtao4b1bMTwIQlfLyz2O2f2DP99jm3etDnt82mfOfys9e7fxwbn9bCDU7bb6/MetqOz7k25Xph1nx1fsNceHrPBejRubyPGjkq7aW/ZtM1atm5q/WdWtxsfz7NVj+XZ8r2p18pH8mz1Ey1s8Lzqltemkd26XqZdVh5002YQ4LhB7e3AzjlB9HzADTaVen73QvvnHbP8nNpY9x49ZdoxZNolkMumHU75unNgC3vLTfbVaV3t5ampE/tjvzszPOWLASukkqvXqG0NGre0xs3auFoXq6Z5ba15y3bWpHl+wtc/rDbWsEkrq1ajjkcB3YORtOmESLvvgH42oHk32z9+sx2Zea8dnLoj5Xpq6k57YfZuu3fk2iAFP2rc6AxE2tutVZtm1mdKdVv2UHNbuqe5Ldqdei15oLktfzgvaBy0aNPYI+30jjr/KJj2pKEd3bAX2EsPLj2d9k6hXn5oqR26c56N6tc246bdsmVLmzZtmm3bti0w2E2bNqVMTFVkvywww+fItItApl2QXJ6nzRruvXr1tDoNW1vfEQtsyIQbbeCYZcVq2IRVNmLyGhsybkXC1wtryPhV/nO5NWzeJVgxb88D98U+PT0UMO0JbtoeFR+c5kabYj017cya9tIHT5vrwntTr8X3N/dGgZv2DJl2eQlNe/zg9nZwF1HxIv85L6U6fN8ie3zbbBtxhiLtyZMnB4M/N2zYEETHqRKRO/vFrBVpF4NMuyA5bdqHnrI+vXtZXts+NmXxXTb3pv02c8UDKdWcNXtt5soHrV33UUH5eOD+3bFPTw+haQ9p0TNIj78RpMd3p1xBenz+Xts7ZqP1bNLRRo7LRJ+2TLu8yrRp79v/SGDarZvVtUnDu9u0G3rZ5BE9Uqppo3vZ+KFdLa9xbevZq5cdPPhU7NPTC09mbNiwYTA6fujQoTZ48GAbNGhQSsV++f541PG8efOCcTLJItMuAZl22XXmIu1D1rdPb2vepqdNmHdHYLJT3bxTqRnL77OpS+6x/C7DrX2HDmmPtJ878rz1G9DfujdqZ1uHLbX7x95sd96wOg1aY3vG3WLr+8+19g1a2ujxY+yNNK+kJtMuvzJt2ixHiulUr1rZ2rRobG1bN7P8Vk1Tqna+z1Z5jaxalcp+Tr3t0KFDsU9PL6tXr7a6deta7dq1g0gY5eXlpUzhPuvVq2c1a9YMppuWZuEjmXYJyLTLrmww7fFzbw8MdsqiXSnV9GX3BlF8fpdhGTHto0eP2sBBA63m9dX9u2xj3Vt0tK557dMi9p3fsIXVrFrDJkyc6OaT3ilfMu3yK9OmzTxtTLtnh6a2dt4wu3XxKFs3f0RKtWHJKFs9e6h18WvVo2evjM3TXrFihTVp0sT69u0bDBajb3vq1KkpFfsl4m7cuLHNmTNHkXYiymvadQZ3ty7bllvXXSuty+3LUqpud95oHTbOD572JdMuP7lo2keOHrEBAwdavWq1rW/LLjakbW8bmN8z5RrkGtquj3Vv1sHqVq9t4ydOCBZ2SScy7fIr06a958HTfdqTh3WyI/cttFcfXu4/F6VUr+1bbs/ePd9G9z89EO2fGerTXrJkSTBAjMWFduzYYVu3bg0Go6VK9GezXx6awudg4Nnap13B9SnX113fcn3Z9XEX2xNxtuuTLt7H/4T6iuvTLl5PmjKb9v0PBKZds2d7a796pnXwiLj9qhkpVcd1c6zN0klWvX0LmXYKyEXTDvu0+zTtbLtHr7Mnp2yzvRM2pVz7Jmy2g1O32x1Dl1vnRvl2w7gx6tMuIx+FgWgTBncIRngfuX+x/5yfUh19YLE9uX2OjeiTf0YGok2ZMiUw7I0bNwaDx1IlBrax39mzZwefk60D0TDmb7jquua4VrmGu650fdGViK+6rnONcS1xzXbNcg1yXe3i9aQpq2k/9OBDwVO+rqtdwxp2yrdGXdpao04pVpd2Vr99K7uuZjUb0L+/HcnAGrsy7fLpTJk2A9EOTN5m/5r3UDDtK9U6OnO3vTH/YXtozAbr2aSDBqKVg4+CaWuedunFCHL2m+3ztL/gauCa61rnWh/7Oc31F9dZrsJc4Orjus+1x4VxL3Bh9pj511xJU1bTfvghN+22be3aWtWtQfvW1rBjG2vYIbVq1DHf6uW3sGtrVJVpp4BcNm2mfO0bv8kOz7zHDnhEnGoxV5tFVu4ZeZOmfJWT3E6Pn17GlHnah91cX3l4mf9clFK9tneZPXPXfBvVV8uYxpMp0/6Va5lroesi1w9crVw3uzq5SHkX5mcuDmqeq73r+65vujDrz7rOcSWNm/Y15UqP92hn7VZNt/arZ1i7FdNSqg5rZlmbRROsejuvUPr2tcPPKT1eHj4w7fxeNmHeNpu5Mn2jx9t2zczocZl2+SXTTh1E2jzLfFTfNrZ/yzR7csds/zmjRD2ydYY95tHzo7fPtEcSvB6vAztn28Mbp9qg7i2sa7fuirRjZMK06Ze+yrXRNZINMX7vItIe5fqTi/7teH7uaufi9UvYUB4qVqx46cUXX/z82rVrY6eeHAUGom1P50C0BRqIliJC027Rtm8QDc9dwzzt+1OqOatPz9Nu3/2GmGlnZp62TLvskmmnjv37Hwki7UZ1qtjAbi1sSK/WNqhHqxI1rHe+jRncxUb175Dw9XgN9X3275pnDWpfbz179LSDT2VmnrZM+/TgsYYuoux8NsT4sauta6yL1z/viodIu5uL/m+M+++u/3ExiK2owWshDFJjABv7ILKvdNZZZ/X87W9/+8qNN94YO/XkKDDla/NC67zVjc4NNpXqcvtSa7dOU75SxbPPPG39+vaxBk28ETRyng2bsMIGj1mcUg0bv8wGj11iTVp2tfZePh7ck95Hesq0yy+ZduqgC2/+/HnWp3cf69mrj39mH+vtdVdJ6tCxs9WpW9+aNW+R8PV4sU/E1KulS5akfX3/EJn2xz72I1dL13QX5hwa7ndc9HNPdGHeX3LFg6lj2ne5HnPd6sL42df3XMVB1I5Z93WRlr/Jdff5559/atmyZbFTTw7N0y67zpRpP//cc9a/fz+rfH1Va9g4z5rmtbGmzVunWG2sSbNWVrlKtWDlpIcffjj26ekh3rRZxhRjfSpYdjS1OjRtp73IMqajtIxpecll03733XfslVdesWe9rnrq6WcCHXr62RK1cfNt1rqNR9tjx9tTh4r/n9OvP2PP+v382quvlmouc3mQaZ8eUEaEPcnF6PFw0BkRcx0X2zu6iIzjoe/6Mldn12AXo8anuma42B+mXhTnuX7qqunq6upVoUKFhb/4xS+OMXG+NMi0y64zZdrPPfus9evX12rUbmjtugy0zr1GWKceQ1Oqzj2HW8fuQ612vaZB+XjooQdjn54eCj/lK63LmGb4KV8y7fIr06ZdVg4cOGDdunWzxYsXx7ZkHzLtskfaHMxnXGFfNz9/5xrv2uTCkEuCzwp03nnnXV+exVVk2qXXmTLtgqPHt9qM5bttyqKdKdX0ZffYlMV3Zmz0+HMeafM87U51W9uG/guC514zl7okbRu2wu4ctdp2ubYleL2weM89I9bY6p4zrE3tZjYqI8/TlmmXV1Ex7X379lmXLl2C9bazFZn26T5tzLmkPu3PuUriXBdR+T4XI8qTpmLFildUqlTpcFkHosm0S68zbdo8MGTSwl3BoLHpy3anVLNXPeiNAS8b3UZmxLRfePEFGzFiRLAiWtsGLfy65VvHxm1KVKcm+dYtr4N1a97e/+fDrycS+25dt5nVr1nXpk+b7uZzInYU6UGmXX5FxbT37t0bmDaPpfxPBuqCsiDTPj16nMVQiho9foPrj2woRKK52wwwK5Npl3lFNJl2mZUdkXZuzNM+6ca5Y/sOmzV7lk2aMdU1xSbPnFqiRoy9wRo0a2RNWzW3sZPHJ3xPYU1k3/4Z8+bPs/vu3W3vvPNO7CjSg0y7/JJppw6Z9mkudC13xc/Tbu1injYmzPxrRo8jDoKUNunyn7h+6GLgGf9DHzfpcUaUV3YljUy7IDLt8inTpk0Fx5OAMNBTb7/tOhX7WbwOPnXQevl3MWz4MHvplZcTvqeg2O/pffNZpXn6UFnJddPu3uFq27vxUnvzscvtlQevsJf3pF4nHr3cnr/nUhvZV6ZdXmTap2Gp0sau+S5WQgtXRaOfGxNnUFoVVy3X+S4O5BcuRo/PdC12YfirXQxEq+/6titpZNoFkWmXT5k27bLy2muv2cCBA23MmDEZMeCykMumPcZNu0fHq+2R2y6xd5643F73iPhfD6depx6/3KP4S+2GfjLt8iLTPg2RM8aM2bLCGebL3GsWXeHhH4wUv95Vw0V0zYHwk2h8sguzZ81yfqf/m37yUiHTLohMu3yKimk///zz1q9fPxs1apQdS/NzsctKrpr2yZNv2cRJM6xFk2tt1pir7OYF19nq2ZXtxlmp17r519myaddY+5ZXWJ++A+zpZ2TaZUWm/f/BuDFoDDf+KV9AXzUjxRHTtXgvP0mXY+g8bIT/4yEh7KPUyLQLItMun2TaqSNXTfvNt96yadOmW/Vq11mzRtdbu1Y1Lb9letTW992qeTWrVuUqv9797bnnZNplRaadJci0CyLTLp9k2qkjlyPtSZNnWLPG19rk4VfbypmVbfGU9GjFjMo2b/w1lt9ckXZ5kWlnCTLtgsi0yyeZduoITRszXfVonq3cnxeYa6q1Yl+e3fhYCxs010073017fWYGovXocLXt23SJnfrn5fbqQ1cEg9FSLQa5Hb73UhulgWjlRqadJci0CyLTLp9k2qkjNO3ek6oH0fCi3c1t/l2pF9H2kgfyrN+0zETahU37rTSa9kk3bY0eTw0y7SxBpl0QmXb5JNNOHdvu2GHN85paw1aVrfvwBtZ9WAPrOiT16jbU9+37b9SmsjVt1shu27Q1dgTpQfO0P4xMW6adNDLtgsi0yyeZdurYvn2HNWvW1KrXvtby2tYN1Dw/9cpDvu8ada61xk0a2ZbbZNqZRqYt004amXZBPjKmPe8Om7HifjfYO1Oq6axnvuRumXYKuH3LdmvRqpl1GFzVJq5tYhNvamLjbky9JqxpYpPWNbVOw6pa85aNbeOtmUmPY9oP3nqpHdt/hb1w/z8C4061XvcGwdN3yrRTgUw7S5BpFySnTfvQU9and69g7XGi4bk37beZKx5IqVjPfObKB61d91FB+Xjg/t2xT88uomDaWzZus1Ztmtrg+TXs5mdb2PqnW9iaJ1OvtYda2C3PtbThS2pYi/xGdsu622JHkB4w7dFjp1uPDlfZP7deYv8+eLkdd+Mm4k613j1wub30AIurXGI9evW3A0/JtMuKTDtLkGkXJNcj7d69elr9Ju1s0NgVNmrarTZ80k3F6oZpN9vo6bfYyCnrEr5eWCOn3mzDJ6+1Jq16Wn7btlkbab/44ovWv39/Gz16tJ06dSq2NbvYunmbNW/RyDoOv9am3Vbfpm6ub5NuLVlTNzWyGVuaBj8TvV5YUzbVt+lbGliXG661pnn17dab02/aY8dNs7YtrrCNC/5mj7lxE3GTKi9W/p69m/9h+zZf6e+/LPF7CumRLZfY3Tf93Xp3+Jv16NnXnjqU/jqkLDz22GPWtWtXW7BgQWxL9iHTzhJk2gXJZdMmuhw0aJBVqVbTGjRpbY2bt3e1LVZ5rTtby/yu1rRFh4Svf1jtrGHTfP+M2tapU2fbt29v7NOzi5dffvkD0073gz/Kyq6du6xlq+ZWo/6V1rxDVWvWPjm17FzT8rvXDX4mej2R2H/NBv45eU3s9tvviB1Benjzzbe8Yp5l9etea+1aXG49Ol5l3dtfXbI6XG19u1axft2qWs+O1yR+TyH19H13zv+H1at1uZf9gX4PHI4dRXaB4ci0ZdpJIdMuSC6b9htvvGGbNm3ym26ijR83JtCE8WOLVft2+dagfl3r3693wtcL6/R+R/vv42z16jV29OgLsU8/M7z66qu2fft249GzVDIbNmwItHjxYmvWrJnl5+f7ca7+YDvv4b333HOPnUjzozdL4tChp2zpsiU2buxEGzd6cqDxY6aUqO5delu92o2ta6eeCV8vrHGI/Y+Z6N/LIjtw4InYEaQHKuJ777nLpk+fbjeMmWwjR0/1n9NK1IhRk6yJNwrr1m9hAwbdkPA9hTXK940mTJxsmzfdasfeeD12FJnlrbfesvvvv9/WrVsXmFNY3kLNmDHDGjRoYD169ChQTjEz/uehhx46443LJUuWBGbKdduxY4dt3bo1MNlUacuWLcF+eaY4n4N5y7QTINMuSC6bNn1lb7/9tp08ecJOHD9mx138LE6z/Mbp4Nd5166dCV8vLPYZ7NcNj7Tzv/37PJMcOHDAhgwZYk2bNrV27dpZez8XxO9UDC1btvxgG2rbtm1g5uPHjw9S6GcSHmRCZX/i+Ek7fix5rVu73trmt7MbV61J+HpR4nP4vPfffy92BOnj3Xff8XL4ph3zz3zjmP9MQi+8+IqNGDnaunbrafv3/zPhewrr9L793E6cDMr+f/5zZsrjv/71r8DsmjdvHjQU48scYlteXp61atWqwPbWrVsH5ZQI/OTJk7G9nRkwbe4jxoHgFytXrrTly5eXqFWrVtmNN95Y4vtXrFgR7HfChAnB58i0i0CmXZBcNu2yQEqMtN2jjz4a2xIteJrXzp07g2iFyGXjxo2BNm/eHLTqicLJPoTbec/69evt3nvvPeORdlnhnDp16hRELrkGqVkGEL700kuxLdGAxtADDzwQlK34chiKa0U53bZtW4HtYQr64YcfPuORNsZbv359a9iwYdCgoOFLI7ckMcCue/fu1rFjx4Svhwob1Y0bN7batWsHDZX33ku+ASnTLgGZdtkVJdPmxuncuXNQ4YhoQIOkQ4cOQRo2l3jzzTdt3Lhx1rt3b3v66adjW0WmePDBB23y5Mk2ePDgQGSwkhHZgrp16wbmnej1eIX7JtNFF1VpMnUy7RKQaZddUTLthQv92rppc8OKaCDTFumA7i4yV2Q56DpKVnQLkP6nXCZ6vbDYP59DdqI0yLRLQKZddkXJtJctWxbp9PhHEZm2yCboyybK3rdvX2xLepBpl4BMu+zKNtNmwBPTweg3Y5EHbq5QI0eODAZmcePFb0e8l1Gthw4dytppUx9FZNrRg/uHaYjZutBPeWAAG2Ms7rsvvWs2yLRLoIBpb15knbf6hdm4MKXqcvsya7dutkw7zZD2YvQmg0Go7ImsQ2HY9Ee1adOmwHbEwBL6q0h/vfLKK7G9iTONTDt6PPHEE0FW6/bbbw/OM5dgeiWmvXt3eldHlGmXwJ7d91nbdu2s9qDu1mX7cuu6a6V1uWNZStXtzhutw8YFVqNrvvXr1ccOPyPTTge08hlxPHXqVJs2bVqwqEGoRYsWBZUJcyfjtyPmljKaF3PIxQghqsi0owUNXkZmY2xMp3rkkUeC6Wm5gkw7xZTZtD3Sbp3fxq7v2NJaLBxnLZdMsBYLxpWoVosmWNtlU6zNkkkJX49Xq6WTrOmskXZdy0bWp1dvRdpphDncpMkZrRkvtqPC20OF/yOyB5l2dODeYpQ0q/PVq1cvmJNNOplUea4g004xZTVt+jM7dels19aqZjVaNrGarZpZrSRUp02eNWjf2uq1bZnw9QJq3cyq5zWy62pWsyFDh9rRI0din54+NBBNRB2ZdnTgnMhkMfe5SpUqVrVqVRs4cGBgQLlCLpr2J12/czV3tXdVd/236+Oukjjb9UNXTVc113dcFVxJU1bTPvrCC7Z23TqbNmWKTZs42aa7ZkyaUqIG9xtgjevVt67tOyZ8PV7sc/ok3+/06bbl9q127Pjx2KenD5m2iDoy7WjAWBJS4Qz2rF69emDa1113XTB+hGvHKmpE4lEn10z7E65KrpGuHa77XetcPV0/dZXE113tXI+4bndd4jrHlTRlNW1SovSFnnrrLTv1ZvLatXNnsCzm/LnzEr6eUF64Wc4uEwVYpi2ijkw7Ghw9ejQwNFYCq1WrltWoUcOqVasWrAg2fPjwwORyoesp10z7B66xrqUuouwGrtGuta6GLqLw4viba73rDddm12WuZCL0DyiraZeV8LmxrDObjci0RdSRaUcDHsfZp0+fwKwx7VD83aRJk2CaZWmW8cxWcsm0z3X91bXJNcX1KRdc6lruGuIiTZ4ocuZ/SYu3dK12EaHPcF3sInpPmooVK15WqVKlwzzZKBNw4biAXMhsRKYtoo5MOxqEpk1qvLBpE23LtEtHJkz7iy76ole5urMhxs9cfVxE3FVcn3EVhrQ4ht3N1ca12DXbRSOgONOmv5tGAO9hv58599xza1900UVH16xZEzv19CLTlmmL9CLTjgZHjhwJplTGp8cxcAx72LBhwUNrlB5PnkyY9vdceS7MtikbYrC9iWuCq5ULc48H4/0fF9F5Z9dvXSNc811/dxVn2pzIL1183lDXDRUqVFjzs5/97ASLa2QCmbZMW6QXmXY0YKzO/v37bcSIER8MRKtcuXIwEI0ne7H+tgaiJU8mTPt8F1HyZFc911ku+JarrmuSq4Pry654/suFqQ9w/cn1OReR+RzXRa5wP4mgv/v3LiL0eS760rdfcMEFbzHtIBPItGXaIr3ItKMDz8jm8bfxU74GDBgQpM5zhVwy7Z+4WruImONN+9su/sa0GZz2JVcIUTYD1DDcxq7Pu77mYvT5Ihf94cUNXuMzPuv6rusC13+fc845+b/73e9eWr16dezU04tMW6Yt0sttt90WmDbPYs4lctG04xdXYblgLa5SdjJh2sypbuYiQmaOdsj3XWwf72rhik+PcyDDXUddTA3r7Rrn2u16wkWK/BpX4ZR6kVSsWPGSiy+++HkNRDuNTFtEnR07dgT32NatW2NbcoNcNG3AoFnGlLX8mbNNylzLmJaeTJg2aW0WRLnJRXo7hD7nwS4Gol3lOs8VQnqbAWi7XPe4GHm+0/Wci2lfd7voB/+GKynOO++86zI55SsKpj1j/iLr7KZ97+CW9v7cHnZ8Zjd7Y0bqxP7Y792DWlgnN+3Zi5bItEWpoc/zySeftMcffzz4GWr+/PnBg15mz55dYDvv48EUUX24S66aNnBdSJPrgSFlJxOmzWpmLKyywcV0rbDvmkiZaVwDXT9iQxykt4nQ/+Biehf/f71rpYvFVUinsyhL0nO1Mz1POyqm3bFRHbvbI+13Zne316d3tdc8Oi5O/5rezV5L4n2I/bHfOwc0tw6N68i0RZkgku7evXuQCu/Ro8cHatWqVTAauWXLlgW2E8l169bNNm3aFMkBTrls2kTWRNxvvPFGbEvukEumDfQtE1UvczEvu4drpotpYFVdTO1i4BgDzngv87MLQx82qXTmdv+ZDaVBpl2Q99205y5cZI2qV7Fhja+3xR3r2bz29WxuMVrYuZGt7NXClnZrmvD1wmJ/7Hdoo+utUc0qtmDxkpwYJSoyC/fSxIkTbfTo0cHPUDwqde7cucHP+O28b/z48XbXXXfJtEXGyDXTJvXN9K3+rjtcLJJyo6uti1HkDEpjlTT6vJnalWg6F/3X9G2zstofXfHp9BKRaReEyuy2zZuse5cu1qZVS2vXNt86lKDWLVtYowb1rXnTJglfTyT2y/67d+tqW7fcFvt0IZKHhTeYNlRYRG0s+xssM5zg9agu2CHTjia5ZtrAzklpX+uq4WKuNXO1SYWzShqjvFlw5auuRKuj8f+snHahixQ7afekkWl/mJdfetEe3rvX7tp9v+103bn7gWK1YNkKa9KilQ0YNiLh64nEftk/y7q+/NJLsU8WQhSFTDua5KJpn1Fk2uWHOZVdu3bNqXMSItuQaUcTmXaKkWmXn/AhKAsWLIhtEUKkGpl2NJFppxiZdvl58MEHrXPnzjZv3rzYFiFEqpFpRxOZdoqRaZcfmbYQmYFR8H379rUXXnghtkVkOzLtFCPTLj8ybSFSBzM43n///WAEfLyYw8y0NeacHzhw4EOvMypeUyezD5l2ipFplx+ZthCpA3Net25dkAqfMmWKTZs2LdCkSZOCld5Yo5vlPsPtaOzYsUGd8txzz8X2IrIFmXaKkWmXH5m2EKmDZVZnzJhh+fn5wX3FKm6I1d969uxpvXr1Cn4PtyMeZzl8+PBgqVaRXci0U4xMu/zItIVIHSwK88wzzwQPznj00UeDKZWISvngwYP21FNPBeYcbke8l5T5iRMnYnsR2YJMO8XItMuPTFsIIRIj004xMu3yI9MWQpQHBtEdP37c3nrrrdiW3EGmnWJk2uVHpi2EKA90B6xfv97uueeenHqWNsi0U4xMu/zItIUQZeX111+3W265JRhcN2HChODZ50xhyxVWrlwZrBi5b9++2Jb0INNOEzJtIYT4/+zZs8eGDRtmDRo0CEbMr1692l599dXYq9kPAwf/9a9/Bcf82muvfUjMBGB0/5YtWwps5/38X6oyCzLtNCHTFkKI02BYq1atsqZNm1qVKlWsevXqNnTo0GAkfFRg9D7PaWelOhofhdWiRQurUaNGEG3Hb+/Xr5/dcMMNQf2ZCmTaaUKmLYQQpyNUzJmFYTBrTPu6666zdu3a2W233RYMTIsCjzzySGC+pPcHDBhgAwcOLCAMmsVwhgwZUmA7K9vRQLn//vtjeyofMu00IdMWQgizl156yW688cagPqxZs2Zg3NWqVbMmTZoERv7QQw/Zv//979i7s5dTp04F53LkyBE7evRosC58vF5++eUgFc574rfz/hdffDF4EEwqkGmnCZm2EEKcNhki01q1an0gzBs1b9486NtmKphIDpl2mpBpCyGEBau9sSwr0XW8cRNxN2zY0JYvX55To8jTjUw7Tci0hRDCgoebzJo1y1q1ahWYNYO1QsPu37+/7dy5M3jamUiOTJr2Z13/5+rtGuZq4fpf16dcifia6xJXW1dfVy8XB/kP1+ddpUKmXX5y1bR5zCHrPDMlJUpTUISIAidPnrQHHnggGKCFWVetWtUqV64cmDh93fT36lGjyZMp08aYr3BNcG1z3e26xTXU9WtXIn7sauVa6NrsutW10cU+LneVyrhl2uUnF02byoIBJEuXLg1GftLqz7WVmoQ40/AY0gULFli9evWC0eOoT58+aV+IJBfJlGn/xDXdtcRV14XpDnCtd+W5PuMqzJdcv3T92fU3199djV3jY7rYlTQy7fKTi6ZNFLBjxw7r3bt3MChm8uTJ9sQTT6jlL0QK4X7iPmP6U+3atYP52nPnzg2ibFE6MmHa57lIcxMtEyWf64K/uBa5hrsudIXbQ86K/YyHlPkQ120uzD9pZNrlJxdNm+kYU6ZMCSIAUnes1HTrrbdqYIwQKYZ7jfqQe2zw4MFByjwXHxySbjJh2l921XEtc3VmQ4yfurq5xrhquujzTgQH9QXX91zXusa5ZrkudSWNm/ZVlSpVOizTLju5ZtpMM2HBAxZLYLEHUnZMQ5k6dWowDzMKc0eFiArcT6TDGZR2880327Fjx2KviNKQCdP+gYtBZzNdpLdDvutq5CL6buP6oqswH3f90cUgtFUu+sIXuK530RhImooVK16Oaa9duzZ26ulFpp3dkK57+umnbeHChcHyg9dff30wJYVou1evXrZ169ZgvWAhROpggRGe9MU4ElE2MmHaF7gw5ckuUtph2vtbLv6e5OrgSmTCn3D9wdXDtcJ1r2u+iz7xoiJzOMf1bdefXNe5qlaoUGHEr3/969dY/zYTyLSzG1r9LOzPOsGkxsPFHpiS0qhRo2C5Qvq2hRAim8iEaTMKvLVrqqu+q4ILMFX+nuhq52LgWWF4L8aNoROxX+NiuthoV3ED0fgfBrAx2O1GFyPVd59//vmnGCWcCWTa2Q3zQnmUHk8cKrzoA2lyzJzlFYUQIpvIhGljzk1c81ykyUN+6GLkOH3UzV30W5cEg9WI2ne6+N+i4H2Y/GWuBq6mHmlPvPDCC1+nos4EMu3shkh706ZN1qFDB6tTp06BSLt+/frB4v/cHEIIkU1kwrSZzlXFxfSugWyIwfzsUS6iZgaVne2Kp/DfIfmuR12dgr+S5LzzzrtSA9HKR671afPkoTlz5lheXl6BPm2mpWzcuFELrQghso5MmDZ92Awmu9k128UocPqca7jWuvrEbeO9YfqcdPl3XJg+rzF1jP5x0uMs0EIEnTQy7fKTS6YNPDLwnnvusa5du34wepwlFidNmmTPP/+8llYUQmQdmTBt+KaLwWRLXfRtj3Wx0Ap/X+n6hosFVBhghoGT3v6Vq71rkGtw7OcUF8bf3fVzV9Jonnb5yTXTBsx5woQJQYqcSLtly5a2bt26wNCFECLbyJRpEykzL5sPYSnSu1wsT8oUsK+4wpHk/P0zFwdC+px0OlO9NrjWuVa6urrYV1Hp84TItMtPLpo2D+BnehdztVmlady4ccFTibQimhAiG8mUaQPRM3OzL3L91cUqaF91kQ5nPjavfd/FVC7S5J9zkQ7/vYupW6TYecBImEovFTLt8pOLps2ANBZSmT9/fvBAg9tvvz1lD6sXQohUk0nTPqPItMtPLpo2YNyPP/643X333VoLWQiR1ci004RMO1qQDldKXAiR7ci004RMWwghRKqRaacJmbYQQohUI9NOEzx2DoPL1LKpmUCmLYQQZxaZdprYu3dvsH71ihUrYluij0xbCCHOLDLtMsLD2/fv32/bt2+3O++80+66664Cmjt3bvC0KKYRxW/ftWuX7dy5M1hCM2orbsm0hRDizCLTLiM8D5blLlm3ul27dtaxY8cCat26dWDavB6/vU2bNtaqVStbtmyZnTp1Kra3aCDTFkKIM4tMu4yEK2mxKMeSJUsCE44Xz+1ev369rVmzpsD2RYsW2cKFC+3ee++1d999N7a3aCDTFkKIM4tMWySNTFsIIc4sMm2RNDJtIYQ4s8i0RdLkqmmzEtqhQ4fsoYcestdeey22VQghsg+ZtkiaXDRtDPuVV14JxhvccMMNwUyAt99+O/aqEEJkFzJtkTS5aNonT54MpuD16dMnGOk/ZcoUe/LJJ7UOuRAiK5Fpi6TJRdPmsZxTp061+vXrW40aNaxt27a2YcMGe++992LvEEKI7EGmLZIm10ybxW1YbrZHjx5WuXJlq1KlitWqVcumTZtmL7zwQvDITiGEyCZk2iJpcsm0SX8/88wzwbz5li1bBqZdrVq1QL1797Y77rjDXn/99di7hRAiO5Bpi6TJJdMmimZxnK5du1q9evWC1HjNmjWDSJuV7EaPHh30bQshRDYh0xZJk0umTWp85cqV1qBBgyC6xqxDkSbnYS9MARNCiGxCpi2SJtci7Y0bN1r79u2tTp06QZQdRtoMShs6dGhwcwghRDaRSdM+1/V918WuS12/dX3ddY4rEZ92/cj1B9ffXH+J/c4+znaVCpl2+cm1Pm3S37Nnzw6mehFdE3FXr17dunfvbrfeemswf1sIIbKJTJk2xvzfrq6uTa67XYtczVzfcSXiAlc711LXFtetrtWuzq4fukqFTLv85JJpA4uo3H333UEq/LrrrguMm77tiRMn2rPPPhu5R6cKIXKfTJn2N1w9XUtcE10jXAtcy1yVXUThhbnQ1dY1yDUwpjmuWa48V6mMW6ZdfnLNtOH555+38ePHW+3atYNIm5Hka9eutXfeeSf2DiGEyB4yYdpnuUhr3+zCcL/tgqqum1x9Xd9z8b54vuvCuL8W/OW+67rINdqF+V/tSho37SsrVap0WKZddnLRtHnE6pYtW6xbt27WtGlTGzt2rD3yyCOaoy2EyEoyYdqfdVVxrXP1Z0MMDJmI+wbXFa5PueL5uOsTp3/9APrAe7lIlddhQ7K4aV8t0y4fuWjamPORI0eCcxo0aFAwDezNN9+MvSqEENlFJkybyLqpa66rBRti/MDV3DUu9vMLrpLA6Ie6FruKi7RJt5M+v9LFZ7esUKHC1AsvvPB1pvmIspGLpg0Y92OPPWa7du0KVkITQohsJROm/WNXa9dUV31XBRdg5vxNHzcDzr7kKo6vutq75rsY0PYzV1EQof/JRWS/ykVq/t7zzz//1NKlS2OnLkpLrpo2MJpcA8+EENlOJkz7fFcb12RXXVfYd/0tF39PcnVwfdlVFJ9xXeXCgOe5fucqnE6Ph9Hq33T93kW0fa1H2kN+85vfvLZq1arYqYvSksumLYQQUSATps28akZ7z3Q1YUMMBpo1dk1wEYl/0ZUIUt2Xu2a4mP7VwPVJV6moWLHiZfRpMzJYlA2ZthBCnFkyYdqkvWu7Vrj4kBDmbfdwjXFVdyWKnDHsX7sYrMZIc9LpDFArNRqIVn5y2bRJjb/77rt6jrYQIqvJhGkzVesS120u+q/5G1jljKlbw10/Z0Mh6Pv+pYsR5gtdRNikycuE5mmXn1w1bQx73759tm3btmAkuRBCZCuZMG34iWuai/R2I9c1riGu9S5S5kzlYslS3vd5F8uU8jcLqzzt2unCtFnKlAYAfdUMTEsamXb5yUXTxrBZYIXlTPv372+bN2+2EydOxF4VQojsIlOmTeqbfmn6r3e4druYa40ps1wpS5mS+mZZU9LmpMCZu73B9aLrcdctrjUuRoKznz+6kkamXX4efvjhwLTnz58f2xJ9jh07Zps2bQqWMm3cuHHwSM69e/dqcRUhRFaSKdMGFlkhJd7NxZKkGPRvXPRbE13/2fVXF6PK2UbKnPcwspwpYfzs5OJAibqZSpY0Mu3y8/jjjwfPn16yZElsS/R57rnnglXQeLoXy5jy8JA1a9ZoGVMhRFaSSdM+o8i0k+f1118PDHr//v3BoiOh+O6aN29uI0eOLLA9FO9/4okn7I033ojtKbs5deqU3XnnnUH2IP6BIaxF/vTTT9t7770Xe6cQQmQHMm3xIe6//37r16+ftW3bNliTO1R+fn7w7GnW6I7fHor30y+8Z8+e2J6yF0aJ0zCZMWNG0BCJfzQn2YT169fbyy+/HHu3EEJkBzJt8SEoFAzMIm08derUDzRz5kxbsGCBzZ07t8D2ULx/zpw5gRlmO/RZ88xsGiI84atmzZqBSJPXrVvXBg8eHGQPhBAim5Bpiw+BoTFnmX5dfsaL0dakjQtvR+H7ozCIi/NgdbyGDRsGETZmHYqom2j7oYceir1bCCGyA5m2+EhCw+KOO+6wHj16WP369YO+7DDSbtKkiY0bN84OHDgQe7cQQmQHMm3xkYWR4zxAplWrVla5cmWrWrVqEHX37dvXduzYEZkBdUKIjw4ybfGRhWibBWN69uwZmDZpcSJtBqe99NJLWtJUCJF1yLTFRxqenz19+vSgb5v0ePv27YPFVjTdSwiRjci0xUeaN9980+66665giluLFi0CAz948KCibCFEViLTFh9pMOdXX301GEnOlLW77747GAEvhBDZiExbCIdBaazoxmpwQgiRrci0hRBCiIgg0xZCCCEigkxbCCGEiAgybSGEECIiyLSFEEKIiCDTFkIIISKCTFsIIYSICDJtIYQQIiLItIUQQoiIkGnTPtf1GdfnXJ90neMqigou3s/7Puv6tIsDPMtVamTaQgghok4mTfvLriquCa55rj6uv7sw8ER8yvU7VyfXAtcUVy3XN10YeqmQaQshhIg6mTJtjLmGa6Zrk2uL62YXBn6RK5EJf8l1lWua6znXYddE14Wus12lQqYthBAi6mTKtH/mWuha5LrM9UtXRxfG3c71RVdhMPqfui5xDXOtdQ1x/dZF2rxUuGlfK9MWQggRZTJh2h93XeEiwh7tCqNqIuzZrpGu37sKfzh/05/N/1/pGu/q6fofV6lNu2LFipdcfPHFz69duzZ26kIIIUS0yIRpf9VV37XY1Z4NMc53dXCNcdVzFdW3DUTnk130gydj2gxWY38/cP3C9atzzjmn/e9+97uXV69eHTt1IYQQIlpkwrR/6GrpmuFqxIYY33E1dNGvne+iD7soMG0GoiVr2kTnf3D1cJGWX+HaecEFF7y1bNmy2KkLIYQQ0SITpn2BC1Oe5KrrCqdsfctVx8V2+rcZXV4UpNdLY9rnuYiwaSQMdA2vUKHCqp///OcnVqxYETt1IYQQIlpkwrT/y9XKxSjwBq6wT5tIm78ZEd7WVVykXVrTBkaYY95E3Z8499xza1x00UVHNRBNCCFEVMmEaX/DRcTLXOvWbIiBmfP3WFdj1+ddRRFv2r9xFbcoS0IqVqx4eaVKlQ5rIJoQQoiokgnTZpGUa123upi6FcLULaJsRpRf7CpuwZQ/uTD3zq4fs6G0aJ62EEKIqJMJ08aMMejVrvku5mjTf010vd7VzfVtF9O7EKnv0MA5ICLw2i4idaaHXepiRHqpDlamLYQQIupkwrThKy76tVlcZblrqWuNa47rry6WJr3axTKnDFyjL5oUOPO3WVDlPtdR1xOuO1yMOP+jK2lk2kIIIaJOpkybEePfd+W5mH610cW866ou5lN/3VXdxejyn7s4EEy7kosU+u2uza4NLpZAnev6iytpZNpCCCGiTqZMGzBulitlABoLqzB6nCd+ASlxXiNtToqc95Ii5/XvuXg//xf+L3O/efJX0si0hRBCRJ1MmvYZRaYthBAi6si0hRBCiIgg0xZCCCEigkxbCCGEiAgybSGEECIiyLSFEEKIiCDTFkIIISKCTFsIIYSICDJtIYQQIiLItIUQQoiIINMWQgghIoJMWwghhIgIMm0hhBAiIsi0hRBCiIgg0xZCCCEigkxbCCGEiAgybSGEECIiyLSFEEKIiCDTFkIIISKCTFsIIYSICDJtIYQQIiLItIUQQoiIINMWQgghIsJHyrT/8pe/HL3ttttipy6EEEJEi8OHD9tVV131jNtaJ1dOm/b1f/rTn15cs2aN/ec//5EkSZKkyOmxxx6zSy+99LDbWjdX7pr22WefXe3b3/72q1WrVrW+ffu+2a9fv5P8TIf6+b5dJwYMGHCsf//+x8Nthd8XJfU7fU4nOSf/eSLcVvh9UVO/2DlwncJzC7dFXf1i14xzy5VyiPrFzssV3GP8DLclen+U1C92DnHlMSfOC/WLnUsu1YuoX+wcMlGH9PN95+Xl/ec73/nOe25rY1yfCAwuR7nYtdJ1h2txmrXItcG137Urti3q4pxudXFOd8W25ZK4Tpwb58i5JnpP1MR5rHY97LrftcKV6H1R1RbXI67b47blgpa77nNx3W5y5VJ5vMUV1iFLXIneF1WFdQh1f7qu2ULXOtd2V2dX7kbazuddP3Nd6LogzTrf1cDFxRsc2xZ1cU61Xdx0I2LbcknDXBh2XRfnmug9URPncYkLs57j+p0r0fuiqnauTS4qr0SvR1W/cc1w3ej6hyuXymNNF3XIKNdPXYneF1VR11PnU/en65qx35+7KCPfc53lEimCCpLIvmXwV25Ag4cogMoy12jjwtz+J/grd/iyCwMY6cq1G/xqF8ZWJfgrt8AAaGh9M/grd/iFa5mrQ/BXbkFdT51P3S8iyN9ca125VDj/5Frj6h78lVsQrZGKpBsll/i+a75rvOuzbMghqrtudtUL/sodPum6wUU69CdsyCH+4KLLpmfwV25BXU+dT90vIghpSSoUzCBXwNDoT8nFG46RmOtduXbD/chF/9ok1xfYkEPQXUOXRsPgr9zhM66xLiJSUsi5BA1/jK2PqwIbcgjqeup86n4RQWhRTnE1Cv7KDUgdU/k3D/7KLZq4JrtyLbX1HddwV2/X59iQQ1zpmua6Lvgrd/iUi0Yk0fYP2ZBD/No10dXClWumTV1PnU/dLyLID1wMusilC/hdVw0XreVc448uzo10ci5BdI2pXeHKtekhDCyt5fpl8FfucJ7rUtf1LsYk5BLfdnGf/dmVa6ZNXU+dT90vIggV5DdcjFrPFT7u+ror19KswHXi3HLN2M51fdVF5X82G3KIT7u4x0gn5xIMGPyS62suDDyXyPU6hPKY03OnhRBCCCGEEEIIIYQQQgiRVTBXkukyKNFScfTNMOCA0Z2M9gTeR19Nsn0aDMSgD4RFSxgIxeCMX7nS2f/IZ7J/VtehbykRX3T92MXCDue4+B/6D+mz4e/i4L38P/tnJPZFrt/Hfuf8WMmH/rp0QP8fqwQxtzVRPyffKaOp/8sVjjWgz5ffOb/SwEhsVibinBiYxyAUBrGl67oxx5rzYjBgos/gfDkvXg/LK+WQ8pjMUodc16+4GNTF+XDdKJPMGIgv46kkPCeuWaJyxWdy//E69xuU5pwKwz3N4DXKIP3FJZXlssL14d7iHihqIBnjDDh3ftKHjfg+KFcllSHuMa433w33Vni9uFbUJ+lcRIfvn/JAWUtUz3EPch9wbOE9yDbuMb7/kuB+pBxyb3FOnBvlkO8yHWUwJL7eKmpBG8od9eK3XBwn/8MxcW78XRLhWAUWmGH6LNcuXffWRxJuKJa2HOJKdBG5KZn6xNSFcFoGF7SqiwKXDNzQTV3Mo2WO8G2uea76LirfdEDhusY13cWSnYnAgHjs27UuChT/Uyn2d0mGS0XITcY8TOaZMm+RVauYm/mQiyUM/+5KB1TEXV0TXDR+CkOlwejO9i4aSsB1rOyigkgWblKmG011sf71RheLzjRzheaSarjBOS/mgiaqLFnesK2LhUYwAuAcKY/JjIjHLLi+rHh3j4vrxjVjVS5WegrLeCr5rYtFX1isJ1Gjic/MdzEPGzMCKjzOCVMoDRghBrDUxb1WzZWuwVCUM+4tVqJj1bZEMJeXa/l/Lu4v/ocR44zyL6kS5x5j/jblmBW4WDqT+ercb3kuGjnpajxyTQa5WMqYzykM9UNjV2sXdShQ/li1juleJYFxXuUa5+K8EHXGaBd1UKKynwr4vi5zcU9zHyeCRlFHF+dCA4v/od6g/gjvueLg2P/qYtrsgy7WD6eeTNYvRAlwgbi5MZxEESkXjdYSFyE0Mm66Ba5k5o1ykVlXmIqYlY9oICAqSZbTrONKR4uZVi8Njd0uKo1EcGNSgKn0KZi0KKlYmYNY0rKKvJ8KheNnERZu8P4uGgk8uP2fLhoN6YCGzmwXD4X5XzYUgsqOiJ8Kk4gb/ts1y8UypsnANeH6Mj+Yc2IO9FAX144pOmWJAJOBsrLDxQ2fCMooBkCDKaz0afyxGlqi76IwlEfKBQ+quNfFOXHdaLxRiYammUq4X7a5MLdEkQoRFw08zJb7DWh0cU6laWQBDWrmPVMGaTy2cqXjnIAIk7LPd8k1SATl7vLYT+D8KEssN1uSMVGOabSwIhyVPoEFy57SAKIs09BJVGelAhpNrGjGIkuJGoOUPbJPLFJEIxq4flwzFsMpCeoXGmV9XXwfnBfzuglmuMf+4kpHvch3yrWiwUq5TwSNFOpFvCEc1Y+JU36TmeZFw5SGB+fBPUY5pA7hnKhjRTkhUiMCXuWi0JEOIpqhsieawpyo6CiYFFRa7Zjgky4Ww6eVSaEOK5vCkIbkhpvpIpIIK3tuRJ7uQ8uSgpRqKGwUzq2uAS6OkWOlUqOS5Iag1c/Nwzlxbpg4jRcKGRFKmDovyqAogHw/HD9iP1T8c100Sij06YA5oKwkxUMkMFAqNq4Z58gNE6bAqKypWIku+b73uYjASJ1yrrwn0U3EOZEaI8rg+8B0Qvie2Gc6KhTAkGlEUkFQ0XMNuG6cC4bHdeV3sjccCz+pxJ9wEZHxXspuUSlKyjEPOuDJSyzHWPg80lGpUFmF0TxmwDlxvShbnA/nhflQLsNz4rvnHuviCs+J14qC48YEMQK+PxqrfB6RMNcyHVDWWJ+fxiPfJRU650UdEpYtygrnSRnk/dwTPK1sl4uGCu8tKoXPteGcUPx1oc6iwc95pmvuOg1y7mOW/MWYw3qRBjPHw7FxvbhunBdZKTI1j7tYvCi8HznvRHCNKQvcu+yP86dc08giq8UiQemoF9knddtmFw0nrhnlC1HPc+9T73PNuIaUOeobAi6e7EV5ovxSporKtnE+fC+cH4s5UccT1BD4pave+EhByoKo7S4X0Q0tIm4IWutELlw8vnhEREq6lFTVSRcFlEeoEa0UFRGQKqIVSQs0Pk1NFLrHhfGn40JSGbK4AaZNCpTP4ViprIk2KXT0+dGC5Jw4NyIwGhJvuqhYwtY8hTYZKOTsm9QTP8MoN9VwTfjOaS1z7bhupHuJikk7UpmQ2uLYuYZkSnjPq64jLtKLmD4NjESRHxkV9kN2hGuXrvNIBMdKhIMR8BzdMCNDREJFSCXHeRGJUinQGOFaveXisZxEKr1cNEwSQWVCY45MUVHpwVTDvcE9Q5qQ751rxjkNdNEwoeKksiZrgwlx7WiQnXJxj3Dv0PAtzqBopPA5mGiY1aIxw6IsyZbf0kKFTpp6p4tGP9crfKwiDXRMgOtJFgPjw7DJZD3lOuYiHUx9wwpb3DvJQn8sjUm62ZJJRZcFyhoZt7tjP7mnuWaks/mew3LE+XMMNGwpU8ddnB/fAw0vGmyJoH7i+ytc93FPcl9z7RLdm+UFU6Z7iK4uRD3PcdOYpy6kUcJ9RSOM91Hm6Abg3uIeowxzT/J6ogwEcE40Djh+rjtBE1G9TDtFcIEojAdcVHhU0tx03FBUAKRIuaAYGAUQUem85KJw0Yrq7MIAE0Hh5uJjGlzsHi5SaqSCaJFimOmAAkO/J30qpGgwbY6VdBeFlP4Zzo8+MqIZWu80Ku50cW6YIOkdbkzOIRn4Dqi8qGTpLy8q2isvNDi4qQ+6MDgqfyJTbkJatKSY+W4xCr57jJvUIinTx1xU6rTkuaESteYxEfqNMRiuFTctYxIwAL6ndJ0XEH1hwjw/mnMgdch50JdOhMw14hoSJXBelB+ioVdcGB3bMUAih0RgJJg1RkM/In2SmCX9zunqpydVSGTDd0/DinJF+SL6pjHM98r58X3Tp086mXOmkUXURdmlEYhZFQVlgoYNlSP3LNeXe4xzS5dpUw64hx51kf6nIYmpcU9xnhgQjQ3+xtyoa7g2e12HXWF9Q3aASLUouC5EvjRmWPaUz6Au4bOTvTdLC6ZNPcg9RiaS+4r7mjJDfUEfPvUIohuKLCV13AuuB1w0YLq6uJ7JQlaC68U1x+jSEWljmnzfZGJoEFLmKF/cQ9TzROFkDLhmlCGCGRrGNKJfdlHfcE9SJyRTrvALygV1lEw7RdBKpJBw41EhUnCIvvu5KHhUglxAKlAuIC1EbkBSJUQ0pMVpMdKCSwTbMQFuTswTE+VGoNLE7Em1pAM+l+PkszBSzoljxcS46TExGh+cG2lV0lhU6NyEHCeFje+CVE8yUBgxS1rmtMpLGshWHrhZqECedhG5kJYnGuY8MGTODROgsiECoAFDHxWtZbopiGpI6RXVkueaUNnyGVSORA18T+yTyou+PMpBOiDCp4zsctGo4JrxeUQtiPOjcUJ5ou+NrguOifJIAyssj0VVDnxXmCQGT5knWqPCYn+YK99LqiHlH/ahc36UKxp1VH5UmJRHzom/ScNyTtxbNFxoLJV0TpgaFSL3KNmiMDuGidC/mi5j496gYqcxSLniPuf7pR4JszSUQRonRNOUN8oWAQF1Dvck30VJjaVwQCQRL9eZxg/fGQ2tospweSEDwnHS7cJ3yXFi5FwXjI5rxes0ljFm7gcMlwYJjTKuGWUpWePl2lJOCCzYJw2UdBkcwQxZUu5psh8cKw1FzguDJftB44RGB/UY3z/bqD94H+/n2ifTlcQ9LNNOMZg2F4g0Mi1h4IulcqFgcsMRfXJBw5QjhTMc5FISFNywgsLM+B/MlP1hkFQq6bjxuFn4HG4iKvuwsBCRMBqeSIDogMqSaIuKkhuPG4YUEDdoaaBfjs+jMuLGTmfhxLQxU1r0RDMhfM9EW6S/6e4gkuGmAV6jQUGlUBIYBxUu3wMNHqI8WuCkz8KWdlGpsfJCuSODQzdG2PChkiAdTnYBs+W60ajEnIDsDVED/1sSmB8VMo03yh4GTsRGJolrX1Q6szxQGdMI4bsMj5nj4DulYcz9x3dN4yOcTUEDjMZLMoM9adRgnjSCMU7KHlkJIm0+g/7TdECkTSYGIyX6DMGYOX7KKI1zGkVh1xhdNzT+yJYkmxLH1BmDQQOUKJDyRwOF+5j9pQPKCMfNdYl/uA7XkkYx90HYpRiOXQm7/MgGlBauG6lqjJQoNl2DBzHaMAPJsYd1LwELn0vDiEwXmSFS4GEjlnsPHyBwKw1kzmTaKYaLQP8QFT2GBkSpFFoqQypIzIECFQ7Zp9WMGdJXFUIFSwMAE6EiJGVEBUU6lcqEColoL4QWGw0FzJtIINUXk8JIC5lKI/44MQCOg5Yj/dcUTqITKlFeo6KhcIbpfsyfipQojEFf9JPTsua98VBxUpkQcfC+dIJpc3Nx7PHpNyJPzoUIgOvDQJrQtDEjUmLcqOF3TfRAQ4zvA1Ok0qHPmDQs5s/14WalwoRw1DrdKdyMyWYhSgMVMw0fIqkwSqHS5jzJ+nAOXB9MKkzPcaxcS9J+IZQp/gdzpjxSYVDBU7YLZ4UwD9LKVLg0UFJdFrkGNA5ptIZdCzQSiRQxABopNKg4hrAxRJTDNYwfiUzDEAPhOnFOlEkqW44ZA6HscR25P2mwce9i3ESpGHeqz4t7BrOmQUKWI4S6gEiRKJvBj5gf54FhkBHCsGmohA0UvgvKHdeIRgbi/iuqG4bviO+SLoaiuuXKC/Uf6WLMmWMDvj+6XajPuDcwPjIKoWlz3AQzNChDyDxQB5KF45rxs3CDl/uLffI9kXkpbcBQGjgHjoMZGtw3IZgz9zT1A+fF+dFFRgaS+49GEpkiugGA/XD/8Tf1HeWOvv7C3Rwy7TSAadPyxbjDwkSlRkEkRUr6kIqSCC00bVpk3Iy0xELC+ZTh/FcqEC4ofT9U9ESf8f2M7J/Ig0qF/y1ckZYXTJvUIpUh0UAIFXQ4lYmUJZEbrffQtKnsMAVuNKBCoXWNYVDx0gigsMffeBw7UTY3Oa3sogZBpQpuFhod9DNRcYfw/XKjcfNjQPGmzQ1DeovvO4T9UMHzPs6ZCgqTo9LgfPgMKhOMAbghMRYaNlRQ6YhyMG3Oi0ZJ2Cig8uY8qNAwCK4BZTM0bSpJDC6+sYQhYuxkiiiPVK7FRQn0c/P9YJapLoscOw0R7oNwNDHnxrWjoUcFyvc/wBWWK8oR9xiVYQj3DGWZ+5Vz4vugocy1otFCxMt3h4EzGOp1Fyl2siYMKEp1Rot7huPkWOIH9RElElmTSaMcUh7JzoWmzcBQTDvMOnDfUe64RkR5iLqFRkoiQhPBWCjX6QDTpi5jhDr1E3D81At0SVEXhPdTaNrhjJh4MyTrQKOKzBHfEz8JWEK4p6in+E6oY9Jp2IBp0oCivFEuQiiXBFyYNuZMeSUDFZo2jSR8gIwdcI+E/dVcS/ZHA7RwdycDEfkc6g0CG5ECuOkxZsyNua/AReImw6gZjMFNREQcps8pZPQHMoo3BDPkImICpFFpzZHyISqgoJIGDAs3YOgUDAoDFVWqW2BEaUSd9N3EGwA3BRUNNxs3JOko0uMYA5UH50ulFz/oh3QxlQrmTkHmpotP7fG/fD9UvkR76egXjQezokKkQuZ7DqEVjwmQ6qVCowFCSxcwDlrQRM4hHDeRG9eaSpLryjXm3Hg/58RNGVauVDBEwDROuMELZxtSASluMjtEY+GiFjQa6Fbh2Fe6KDcYdWjatOIxuPiuAo6ZDAJmQnkk8iOThHElKmucf5g9SnVZJOtEhUdFH1ZqfMekd/k+MQeuF9mo0LQxZ65vfEMEM6RRw3XinCiTfAc0phmtzf2IMBWMkkYp5QTj5/tIdWOE8kPjialpXIOwj5P7HOPivuOcaWSQkuV1omsqee67+HuIhi7XCINDmDHljXupcGODxiJlEBOMb7SmEkwbI8WYabQDdQrGTGOJ8R7UizQeaCAC3zMNp/gggXPgGOmu4JrxM2wE8BoBEPviPgsDhXTCNSArQtmifggbkdTVlH0aTjR0uW7cE6Fp03VEeYrPbPA/BGXUs7yX+69wQ56yQBkha4vXiBTARaDf5nkXhY0UB61kLhItJwoaF5EoIbxgVCREO7TKqNwptEX1m1GhcMEoIEQSGAs3AZE36V0iG1rsqYYbjIqeUaqcH8fMzUOFxrlQyGjZEmlj4hgQx8E2ojn+l0YINxiFtiiIxDlHsgakI8OWaDohWqEhxIhpGh80gKjAMTVMgIqb18me8H0D5kxlSWqbRgcNtLA7JBFU8lw3GjF0M2AWVLycJ9edSi0dqS5SuVQoNAoxXFrnNJaI7ikzRM9UKHTXhKbO+dLoxMgpj0TURTUoMD6+C0yBBg3vp8uDxiPfF43MVMN3RwTGoCbKFdeLc6MchhUa14brF5o6hs45YeThOYUVbElgpmRI+M6ooNPVP8rnYM6MKqaRRbniWDlm6g+uC6bGuZENwHzptuC8MTzqGe5JGsVhV0g83FtkCGh8hdeKuoN9UQ7JBBWO7FIFjQjqhqMu6i3uF0yZDB0NY7KKZKZoFFFnAudPpoMsI8dKOQuzVIUJswtEqMzcIRLlHCmX1DsYYtgISiXskwYeg1hpSHJOXAMMm/JCuaHe59wpm3R1cB1olFEeOW+Oke+nuO4xzptyzj1Jo43rxf6IvIvKoIgkwXComGkh0q8dRtZEoURxmBAtZm6Q0LS5kYicidC5IanEuUCJwPCYmoMZEiFRGIgquJAUVAw/HYWTCoLjJ2pGVBRUykTDVCScF69jYvTL0ernf2jtE/lwrFREFOIw0kwEhZp0OzcvBpquSiQejofWPubGMXKz8b1yzKTHadFykxGNhIOzMHoMj/chWvfFDXIiKqOCxEgoC3xv9JVTDmgApaOhBVRYRGFkBThGyiSNLs6FypuolTJKeaJiAyoCsgucP/9L1FJUFwWNDSoe9kf55f18H5gMFVg6Rlpzb3CdMG6OnQYVDTzKHo0UKni6KLinwi4kjIBjCs+JwZTFzdOOh3suNEzOKV2VJGWARgiZEcyKa0ADn+uFsRFlEYVx39FIoZIncia6JBPA989rmHCiBgnvp9FJxocySGON+obvkmuMedBwSAdk5Dgf7jGuE2WReovPJ1qmTqOBzL0Xmjb/w3kTjHCsGDzXNhFk8hhlzuyWF118f2SR+D++QxrI6WgUs0+mu3KNiJw5fj6X+5vGBo1k7m/qQBrJmC91QZgxpTySgaChGTaaE8E9yT1G44CAkBkG/I55c4+LckCEzI1By54WGOlfIm5+J1XHYCUqSlIfYYudbbQ8iYAwAtJ1VIZFwc3HRcRQeD9mzeeRDiouii0PFDRuDFK/HB/RIlE9Bk2LmJYu50cB5abj5qfxQPRJAeV9FExaw8WNvuW7IArif2ixpiNlXBg+k++T86I7goqTa8b1IL3NuTAIi3MjigG+Zyp93s81oFInEiguZUqDhNY/Jke/FK1xjLOo6CEV0Lig4UT5CLtayI6EfeiIlBxlkkE+EB4nZZdz45oXVaFQhrn+nBNRAO8n08L1S9coa8oUFWV4TmR5KFuhoXL8mDffbXgMnBsVfnjPUImHjZSS4Fpz/dkn5SFdZZLZFtzDmBj3F8bMteL8uBcoh9yDdBnR4Of9lDfOg+vJe7knOW/KdGF4P40vriffF5FaWHZpdKer7gAa8WRIwnqR68A9xnkyMI3GB40G6gfKLNCIwcxphHCs/Ay7FAtDmaCcU74pf9Q3fBdkLvheuL/TEcxg2tQJlD2uFw0oAhOOgTqexhNdLpRXrmHY1cd9Q3miDuB74NiLawziB5wbGbEBMfE7n1VUg1oIIYQQQgghhBBCCCGEEEIIIYQQQgghhBBCCCGEEEIIIYQQQgghhBBCCCGEEEIIIYQQQgghhBBCCPGR52Mf+38Mm46X2BV6kQAAAABJRU5ErkJggg==;" parent="1" vertex="1">
          <mxGeometry x="80" y="259.5" width="182.25" height="152" as="geometry" />
        </mxCell>
        <mxCell id="744nSJvXdaSqL4zcJOoP-9" value="" style="rounded=0;whiteSpace=wrap;html=1;strokeColor=none;" parent="1" vertex="1">
          <mxGeometry x="100" y="231.5" width="642.25" height="40" as="geometry" />
        </mxCell>
        <mxCell id="744nSJvXdaSqL4zcJOoP-10" value="&lt;font face=&quot;Times New Roman&quot;&gt;CHROM-H&lt;/font&gt;" style="text;html=1;strokeColor=none;fillColor=none;align=center;verticalAlign=middle;whiteSpace=wrap;rounded=0;" parent="1" vertex="1">
          <mxGeometry x="145.98000000000002" y="254" width="60" height="20" as="geometry" />
        </mxCell>
        <mxCell id="744nSJvXdaSqL4zcJOoP-13" value="&lt;font face=&quot;Times New Roman&quot;&gt;LGI-H&lt;/font&gt;" style="text;html=1;strokeColor=none;fillColor=none;align=center;verticalAlign=middle;whiteSpace=wrap;rounded=0;" parent="1" vertex="1">
          <mxGeometry x="475.13" y="254" width="60" height="20" as="geometry" />
        </mxCell>
        <mxCell id="744nSJvXdaSqL4zcJOoP-14" value="" style="rounded=0;whiteSpace=wrap;html=1;strokeColor=none;" parent="1" vertex="1">
          <mxGeometry x="80" y="417" width="674.75" height="8.5" as="geometry" />
        </mxCell>
        <mxCell id="744nSJvXdaSqL4zcJOoP-15" value="&lt;font face=&quot;Times New Roman&quot;&gt;POS-H&lt;/font&gt;" style="text;html=1;strokeColor=none;fillColor=none;align=center;verticalAlign=middle;whiteSpace=wrap;rounded=0;" parent="1" vertex="1">
          <mxGeometry x="312.98" y="255.5" width="60" height="20" as="geometry" />
        </mxCell>
        <mxCell id="744nSJvXdaSqL4zcJOoP-18" value="&lt;font face=&quot;Times New Roman&quot;&gt;PCA-H&lt;/font&gt;" style="text;html=1;strokeColor=none;fillColor=none;align=center;verticalAlign=middle;whiteSpace=wrap;rounded=0;" parent="1" vertex="1">
          <mxGeometry x="640.62" y="255" width="60" height="20" as="geometry" />
        </mxCell>
      </root>
    </mxGraphModel>
  </diagram>
</mxfile>
